<svg width="3176" height="2941" viewBox="0 0 3176 2941" fill="none" xmlns="http://www.w3.org/2000/svg">
<g clip-path="url(#clip0_1_186)">
<path d="M10309.3 0H0V10028.8H10309.3V0Z" fill="black"/>
<path d="M836.533 2263.65C740.103 2263.65 331.721 1961.06 478.96 1671.63C607.188 1419.57 884.535 1786.98 799.73 1272.34C764.139 1056.35 1027.94 817.774 1288.77 958.178C1436.05 1037.46 1692.12 1099.02 1776.12 944.473C1958.2 609.493 2487.47 628.78 2643.45 975.294C2810.48 1346.37 2441 1317.99 2580.47 1510.64C2660.17 1620.74 2713.36 1613.81 2795.86 1791.98C2892.43 2000.54 2773.43 2266.51 2548.12 2266.51L836.533 2263.65Z" fill="black"/>
<path d="M1316.62 1532.98L1300.22 1527.57C1292.03 1524.87 1286.46 1517.59 1286.9 1509.56C1287.47 1498.9 1286.78 1488.32 1284.91 1477.98C1283.45 1469.92 1288.15 1461.97 1296.13 1458.46L1313.33 1450.9C1323.33 1446.5 1327.59 1435.42 1322.84 1426.16L1312.62 1406.25C1307.87 1396.98 1295.91 1393.04 1285.91 1397.44L1267.7 1405.45C1259.77 1408.94 1250.17 1407.5 1244.19 1401.55C1236.02 1393.43 1226.81 1386.11 1216.64 1379.79C1209.17 1375.14 1206.28 1366.24 1209.3 1358.38L1214.46 1344.97C1218.17 1335.31 1212.72 1324.69 1202.29 1321.25L1179.86 1313.86C1169.43 1310.42 1157.96 1315.46 1154.25 1325.12L1147.61 1342.4C1144.71 1349.95 1136.91 1354.75 1128.25 1354.74C1118.39 1354.72 1108.63 1355.56 1099.07 1357.21C1090.65 1358.65 1082.12 1355.33 1077.75 1348.51L1064.15 1327.32C1058.49 1318.5 1046.19 1315.6 1036.67 1320.84L1016.21 1332.1C1006.68 1337.34 1003.55 1348.73 1009.21 1357.54L1019.79 1374.03C1024.48 1381.34 1023.26 1390.72 1016.68 1396.65C1010.49 1402.23 1004.76 1408.31 999.563 1414.85C994.412 1421.34 985.132 1423.73 976.944 1421.03L960.537 1415.63C950.107 1412.19 938.635 1417.23 934.925 1426.89L926.941 1447.66C923.225 1457.32 928.675 1467.94 939.111 1471.38L955.404 1476.75C963.643 1479.46 969.258 1486.78 968.832 1494.87C968.508 1500.97 968.604 1507.04 969.093 1513.06C969.798 1521.66 963.833 1529.51 954.928 1532.01L941.455 1535.79C930.86 1538.77 924.87 1549.13 928.084 1558.95L934.989 1580.05C938.197 1589.86 949.395 1595.4 959.997 1592.43L980.806 1586.59C988.873 1584.32 997.467 1587.08 1002.66 1593.22C1009.94 1601.82 1018.27 1609.71 1027.57 1616.7C1034.28 1621.74 1037.07 1630.01 1034.17 1637.56L1027.52 1654.86C1023.8 1664.52 1029.25 1675.14 1039.68 1678.58L1062.11 1685.97C1072.54 1689.41 1084.01 1684.36 1087.72 1674.7L1092.88 1661.28C1095.9 1653.42 1104.22 1648.22 1113.18 1648.99C1125.31 1650.03 1137.38 1649.75 1149.18 1648.26C1157.86 1647.17 1166.25 1651.65 1170 1658.97L1178.8 1676.12C1183.55 1685.38 1195.51 1689.32 1205.51 1684.92L1227.02 1675.46C1237.02 1671.06 1241.28 1659.99 1236.52 1650.72L1228.28 1634.65C1224.49 1627.26 1226.28 1618.34 1232.93 1612.94C1241.49 1606 1249.31 1598.15 1256.18 1589.5C1261.32 1583.01 1270.62 1580.63 1278.8 1583.33L1295.19 1588.73C1305.63 1592.17 1317.09 1587.12 1320.8 1577.46L1328.79 1556.69C1332.5 1547.04 1327.05 1536.41 1316.62 1532.98ZM1210.19 1528.06C1194.05 1570.05 1144.2 1591.98 1098.85 1577.03C1053.49 1562.09 1029.82 1515.93 1045.96 1473.94C1062.1 1431.94 1111.95 1410.01 1157.3 1424.96C1202.65 1439.9 1226.33 1486.06 1210.19 1528.06Z" fill="#3A91FF"/>
<path d="M2595.96 751.171C2616.62 732.034 2616.62 701.007 2595.96 681.871C2575.29 662.734 2541.78 662.734 2521.12 681.871C2500.45 701.007 2500.45 732.034 2521.12 751.171C2541.78 770.307 2575.29 770.307 2595.96 751.171Z" fill="#3A91FF"/>
<path d="M2248.38 845.056C2255.07 818.712 2237.44 792.335 2208.99 786.14C2180.54 779.945 2152.05 796.279 2145.36 822.622C2138.67 848.966 2156.31 875.344 2184.76 881.539C2213.21 887.734 2241.69 871.4 2248.38 845.056Z" fill="#3A91FF"/>
<path d="M2558.56 720.904L2206.65 826.492L1802.98 1063.41" stroke="#3A91FF" stroke-width="5" stroke-miterlimit="10"/>
<path d="M2634.84 2266.51H2490.41C2460.98 2266.51 2437.13 2244.42 2437.13 2217.17V905.969C2437.13 878.718 2460.98 856.631 2490.41 856.631H2634.84C2664.27 856.631 2688.12 878.724 2688.12 905.969V2217.16C2688.12 2244.41 2664.27 2266.51 2634.84 2266.51Z" fill="#3A91FF"/>
<path d="M2290.73 2273.49H2146.3C2116.87 2273.49 2093.02 2251.4 2093.02 2224.15V1117.96C2093.02 1090.71 2116.87 1068.62 2146.3 1068.62H2290.73C2320.16 1068.62 2344.02 1090.72 2344.02 1117.96V2224.15C2344.02 2251.4 2320.16 2273.49 2290.73 2273.49Z" fill="#3A91FF"/>
<path d="M1955.87 2269.53H1811.44C1782.01 2269.53 1758.16 2247.44 1758.16 2220.19V1309.84C1758.16 1282.59 1782.02 1260.5 1811.44 1260.5H1955.87C1985.3 1260.5 2009.15 1282.59 2009.15 1309.84V2220.18C2009.15 2247.44 1985.3 2269.53 1955.87 2269.53Z" fill="#3A91FF"/>
<path d="M1540.21 1379.42C1298.74 1387.24 1080.82 1480.46 920.208 1627.31C909.594 1637.02 909.88 1652.99 920.811 1662.39L1308.07 1995.56C1317.77 2003.9 1332.78 2004.37 1342.78 1996.34C1398.81 1951.32 1470.99 1924.16 1549.46 1917.43C1562.87 1916.29 1573.25 1906.09 1573.25 1893.61V1409.09C1573.25 1392.35 1558.28 1378.83 1540.21 1379.42Z" fill="#536594"/>
<path d="M646.132 2267.44H1179.99C1193.94 2267.44 1205.31 2257.31 1206.15 2244.41C1211.22 2166.63 1233.02 2106.95 1282.5 2051.65C1291.28 2041.84 1290.01 2027.3 1279.92 2018.64L896.388 1689.37C885.659 1680.16 868.852 1680.86 859.044 1690.92C715.87 1837.81 626.434 2030.47 619.892 2242.45C619.472 2256.12 631.357 2267.44 646.132 2267.44Z" fill="#BEC0E0"/>
<path d="M1606.42 1403.53V1893.39C1606.42 1906 1616.88 1916.34 1630.44 1917.56C1710.31 1924.75 1779.02 1952.07 1837.04 1997.18C1847.12 2005.01 1862.01 2004.44 1871.65 1996.14L2259.22 1662.71C2270.14 1653.31 2270.43 1637.34 2259.83 1627.64C2097.84 1479.38 1877.51 1385.7 1633.46 1379.23C1618.67 1378.85 1606.42 1389.84 1606.42 1403.53Z" fill="#BEC0E0"/>
<path d="M2556.1 2242.28C2549.57 2030.48 2460.28 1837.96 2317.31 1691.12C2307.5 1681.05 2290.67 1680.35 2279.94 1689.58L1896.58 2019.4C1886.68 2027.92 1885.37 2042.07 1893.66 2051.96C1944.13 2112.19 1961.29 2160.89 1970.58 2245.49C1971.94 2257.86 1983.22 2267.27 1996.64 2267.27H2529.87C2544.64 2267.28 2556.53 2255.96 2556.1 2242.28Z" fill="#536594"/>
<path d="M1586.95 1943.52C1403.32 1943.52 1252.75 2074.53 1238.28 2241.12C1237.05 2255.28 1249.09 2267.44 1264.44 2267.44H1909.46C1924.8 2267.44 1936.84 2255.28 1935.61 2241.12C1921.14 2074.53 1770.56 1943.52 1586.95 1943.52Z" fill="#26496E"/>
<path d="M1625.76 2096.23C1613.72 2077.81 1592.05 2068.13 1570.34 2069.32L1394.45 1782.41C1393.6 1781.02 1392.6 1779.72 1391.48 1778.51L1250.05 1627.12C1247.62 1624.51 1243.12 1627.06 1244.51 1630.26L1324.67 1814.83C1325.28 1816.22 1326.02 1817.56 1326.89 1818.83L1520.25 2099.5C1510.89 2116.27 1510.82 2137 1522.16 2154.34C1539.49 2180.83 1576.73 2189.3 1605.33 2173.26C1633.94 2157.21 1643.08 2122.73 1625.76 2096.23Z" fill="#315782"/>
<path d="M2484.3 2189.69L2485.69 2231.41L2533.63 2224.06L2533.44 2189.46L2484.3 2189.69Z" fill="#E1B39D"/>
<path d="M2533.63 2224.06C2484.08 2223.36 2467.85 2223.3 2405.67 2252.21C2397.29 2256.51 2400.73 2268.38 2410.31 2268.33L2524.57 2267.81C2541.14 2268.69 2533.63 2224.06 2533.63 2224.06Z" fill="#2F526E"/>
<path d="M2706.16 2186.86L2707.32 2228.74L2755.42 2232.12L2755.18 2189.26L2706.16 2186.86Z" fill="#E1B39D"/>
<path d="M2729.22 2223.88C2722.96 2223.91 2703.04 2225.13 2692.73 2234.61C2679.41 2246.85 2681.19 2268.05 2686.6 2268.07L2771.35 2268.33C2775.45 2268.63 2774.1 2250.05 2764.62 2238.24C2756.09 2227.58 2748.99 2223.8 2729.22 2223.88Z" fill="#315780"/>
<path d="M2714.83 1671.8C2719.94 1704.02 2742.04 1850.92 2739.59 1965.91C2739.58 1966.25 2739.6 1966.59 2739.64 1966.94L2768.51 2196.12C2769.12 2200.93 2765.06 2205.15 2759.84 2205.15H2703.54C2699.48 2205.15 2695.95 2202.56 2695.03 2198.89C2685.27 2159.96 2633.18 1951.62 2629.29 1923.99C2625 1893.49 2620.7 1852.37 2620.7 1852.37L2584.97 1987.37C2584.91 1987.56 2584.88 1987.74 2584.84 1987.93L2545.14 2201.39C2544.41 2205.32 2540.7 2208.17 2536.39 2208.11L2477.35 2207.24C2472.34 2207.17 2468.42 2203.21 2468.77 2198.58L2487.47 1956.13C2487.49 1955.92 2487.52 1955.71 2487.55 1955.51L2535.01 1662.11C2535.68 1657.95 2539.68 1654.97 2544.21 1655.24L2706.76 1664.95C2710.87 1665.2 2714.23 1668.02 2714.83 1671.8Z" fill="#315782"/>
<path d="M2620.78 1852.37L2598.55 1688.73" stroke="#264154" stroke-width="0.5" stroke-miterlimit="10" stroke-linecap="round"/>
<path d="M2606.41 1839.43L2558.47 1984.99L2525.96 2189.46" stroke="#264154" stroke-width="0.5" stroke-miterlimit="10" stroke-linecap="round"/>
<path d="M2704.18 1736.14L2720.08 1964.87L2752.7 2189.46" stroke="#264154" stroke-width="0.5" stroke-miterlimit="10" stroke-linecap="round"/>
<path d="M2574.34 1700.71C2574.34 1700.71 2582.85 1756.07 2606.41 1755.29" stroke="#264154" stroke-width="0.5" stroke-miterlimit="10" stroke-linecap="round"/>
<path d="M2660.08 1688.73C2660.08 1688.73 2669.07 1724.57 2696.83 1755.31" stroke="#264154" stroke-width="0.5" stroke-miterlimit="10" stroke-linecap="round"/>
<path d="M2710.61 1554.8C2710.48 1551.94 2708.58 1527.23 2711.66 1527.06L2760.88 1533.4C2762.85 1509.14 2754.16 1393.49 2690.98 1387.54C2645.91 1383.3 2623.53 1386.19 2588.18 1387.5C2562.58 1388.46 2538.85 1400.26 2524 1419.59C2505.51 1443.64 2482.2 1477.76 2474.87 1505.17C2463.97 1545.94 2511.74 1564.07 2525.83 1568.47C2528.13 1569.19 2529.65 1571.16 2529.66 1573.41L2530.05 1664.64C2530.07 1669.12 2534.03 1672.73 2538.87 1672.69L2710.46 1671.12C2713.54 1670.95 2715.9 1668.52 2715.77 1665.67L2710.61 1554.8Z" fill="#BEC0E0"/>
<path d="M2591.99 1372.94L2591.86 1391.45C2591.86 1391.45 2596.59 1417.49 2628.1 1418.24C2659.61 1419 2662.24 1387.15 2662.24 1387.15L2652.9 1358.74L2652.92 1327.32L2665.23 1279.22L2536.29 1238.14C2536.29 1238.14 2528.3 1308.71 2536.3 1333.4C2544.29 1358.09 2564.41 1382.86 2591.99 1372.94Z" fill="#E1B39D"/>
<path d="M2533.11 1256.75C2533.11 1256.75 2581.15 1244.35 2594.4 1274.01C2607.66 1303.67 2607.15 1296.93 2612.67 1291.25C2618.19 1285.58 2637.45 1287.22 2635.26 1302.82C2632.48 1322.64 2627.74 1339.22 2652.91 1358.74C2652.91 1358.74 2652.3 1329.51 2670.95 1304.24C2689.6 1278.96 2686.98 1222.03 2624.83 1212.58C2562.68 1203.13 2595.91 1189.7 2546.9 1196.75C2497.89 1203.8 2500.99 1254.22 2533.11 1256.75Z" fill="#315782"/>
<path d="M2556.64 1453.13L2543.44 1507.09" stroke="#536594" stroke-width="0.5" stroke-miterlimit="10" stroke-linecap="round"/>
<path d="M2406.33 1460.98L2534.74 1453.14C2537.63 1452.97 2540.25 1454.69 2541.03 1457.27L2597.4 1643.54C2598.46 1647.02 2595.77 1650.51 2591.88 1650.73L2463.25 1657.9C2460.37 1658.06 2457.77 1656.34 2456.99 1653.77L2400.83 1468.16C2399.79 1464.69 2402.45 1461.22 2406.33 1460.98Z" fill="#315782"/>
<path d="M2705.21 1508.03L2707.44 1540.17L2582.57 1542.57C2582.57 1542.57 2578.94 1525.5 2568.74 1517.46C2558.54 1509.42 2554.01 1510.06 2553.38 1513.21C2552.75 1516.36 2563.31 1527.35 2560.9 1532.93C2559.87 1546.86 2510.84 1510.69 2508.83 1519.82C2504.42 1523.07 2513.12 1531.58 2513.12 1531.58C2507.82 1531.97 2502.8 1540.28 2509.43 1543.51C2503.94 1545.09 2504.2 1555.51 2509.9 1556.72C2496.41 1568.46 2543.57 1596.22 2579.13 1574.43C2579.13 1574.43 2730.08 1594.57 2742.04 1584.95C2753.99 1575.32 2754.42 1521.76 2754.42 1521.76L2705.21 1508.03Z" fill="#E1B39D"/>
<path d="M2691.07 1428.4L2698.34 1525.08L2760.88 1533.4C2763.11 1533.63 2755.28 1516.64 2754.62 1514.65L2745.07 1495.13L2691.07 1428.4Z" fill="#BEC0E0"/>
<path d="M2413.53 1557.45C2411.21 1550.62 2410.93 1540.56 2418.1 1536.7C2432.2 1529.1 2435.54 1525.9 2440.5 1528.47C2445.42 1531.03 2440.38 1537.71 2440.38 1537.71C2445.69 1537.5 2451.76 1545.2 2445.58 1549.14C2451.24 1550.1 2452.34 1560.48 2446.84 1562.31C2454.81 1567.73 2446.19 1580.12 2428.81 1581.29C2417.18 1582.06 2415.47 1563.17 2413.53 1557.45Z" fill="#E1B39D"/>
<path d="M2707.44 1538.94L2691.07 1454.98" stroke="#536594" stroke-width="0.5" stroke-miterlimit="10" stroke-linecap="round"/>
<path d="M2552.02 1657.91L2696.83 1655.22" stroke="#536594" stroke-width="0.5" stroke-miterlimit="10" stroke-linecap="round"/>
<path d="M822.832 2081.7L802.836 2075.11C792.857 2071.82 786.066 2062.95 786.6 2053.15C787.305 2040.15 786.46 2027.25 784.18 2014.66C782.401 2004.82 788.124 1995.13 797.849 1990.86L818.824 1981.63C831.019 1976.27 836.209 1962.77 830.416 1951.48L817.966 1927.2C812.173 1915.91 797.589 1911.1 785.399 1916.47L763.205 1926.23C753.531 1930.48 741.837 1928.73 734.539 1921.47C724.585 1911.58 713.355 1902.65 700.962 1894.95C691.853 1889.28 688.328 1878.43 692.012 1868.85L698.301 1852.5C702.83 1840.72 696.185 1827.78 683.469 1823.58L656.13 1814.57C643.413 1810.38 629.432 1816.53 624.903 1828.31L616.805 1849.38C613.266 1858.58 603.751 1864.43 593.201 1864.41C581.183 1864.39 569.279 1865.42 557.629 1867.42C547.364 1869.19 536.973 1865.13 531.637 1856.82L515.058 1830.99C508.16 1820.24 493.163 1816.7 481.558 1823.09L456.607 1836.82C445.002 1843.21 441.184 1857.09 448.076 1867.84L460.971 1887.94C466.688 1896.85 465.208 1908.29 457.185 1915.51C449.639 1922.31 442.652 1929.73 436.319 1937.7C430.043 1945.61 418.724 1948.52 408.745 1945.24L388.749 1938.65C376.032 1934.45 362.051 1940.61 357.522 1952.38L347.791 1977.7C343.262 1989.47 349.906 2002.42 362.623 2006.61L382.486 2013.16C392.528 2016.47 399.376 2025.4 398.855 2035.25C398.461 2042.69 398.575 2050.09 399.172 2057.44C400.03 2067.91 392.763 2077.48 381.901 2080.53L365.475 2085.14C352.555 2088.76 345.257 2101.4 349.169 2113.37L357.592 2139.08C361.505 2151.05 375.155 2157.81 388.075 2154.18L413.445 2147.06C423.278 2144.3 433.753 2147.65 440.092 2155.15C448.953 2165.63 459.116 2175.25 470.461 2183.77C478.649 2189.92 482.041 2200 478.509 2209.2L470.404 2230.3C465.875 2242.07 472.519 2255.02 485.236 2259.21L512.575 2268.22C525.291 2272.42 539.272 2266.26 543.801 2254.49L550.089 2238.13C553.767 2228.55 563.911 2222.21 574.837 2223.14C589.618 2224.41 604.336 2224.07 618.729 2222.25C629.299 2220.92 639.526 2226.38 644.105 2235.31L654.828 2256.21C660.621 2267.51 675.198 2272.31 687.394 2266.95L713.609 2255.42C725.805 2250.05 730.994 2236.55 725.201 2225.26L715.153 2205.67C710.528 2196.66 712.713 2185.78 720.819 2179.2C731.261 2170.73 740.783 2161.18 749.161 2150.62C755.437 2142.71 766.763 2139.81 776.742 2143.09L796.725 2149.68C809.442 2153.88 823.422 2147.72 827.951 2135.95L837.683 2110.63C842.193 2098.84 835.555 2085.89 822.832 2081.7ZM693.086 2075.7C673.407 2126.9 612.638 2153.64 557.35 2135.41C502.062 2117.19 473.199 2060.92 492.871 2009.72C512.543 1958.52 573.319 1931.79 628.6 1950.01C683.894 1968.23 712.764 2024.51 693.086 2075.7Z" fill="#315782"/>
<path d="M1128.03 2172.95L1116.82 2167.86C1111.23 2165.32 1107.9 2159.72 1108.93 2154.03C1110.27 2146.48 1110.72 2138.9 1110.29 2131.4C1109.96 2125.54 1114.01 2120.24 1119.99 2118.34L1132.9 2114.25C1140.41 2111.87 1144.42 2104.3 1141.85 2097.35L1136.33 2082.4C1133.77 2075.45 1125.59 2071.73 1118.09 2074.11L1104.42 2078.44C1098.46 2080.33 1091.75 2078.58 1088.01 2073.89C1082.91 2067.49 1077 2061.58 1070.32 2056.31C1065.41 2052.44 1064.13 2045.88 1066.97 2040.52L1071.82 2031.35C1075.32 2024.76 1072.38 2016.78 1065.25 2013.54L1049.93 2006.59C1042.8 2003.35 1034.19 2006.07 1030.69 2012.67L1024.44 2024.48C1021.71 2029.64 1015.74 2032.46 1009.57 2031.8C1002.56 2031.04 995.53 2030.91 988.574 2031.35C982.451 2031.75 976.671 2028.74 974.155 2023.56L966.336 2007.44C963.084 2000.73 954.578 1997.74 947.337 2000.75L931.768 2007.23C924.527 2010.24 921.294 2018.11 924.546 2024.82L930.625 2037.36C933.318 2042.92 931.629 2049.51 926.426 2053.24C921.529 2056.74 916.911 2060.64 912.636 2064.9C908.399 2069.13 901.577 2070.13 895.981 2067.59L884.776 2062.51C877.649 2059.27 869.042 2061.99 865.542 2068.59L858.028 2082.78C854.534 2089.38 857.475 2097.36 864.602 2100.59L875.731 2105.64C881.359 2108.2 884.713 2113.84 883.697 2119.56C882.928 2123.88 882.464 2128.21 882.28 2132.54C882.026 2138.71 877.084 2143.85 870.522 2144.96L860.594 2146.64C852.788 2147.95 847.611 2154.88 849.034 2162.12L852.095 2177.66C853.518 2184.89 861.001 2189.69 868.814 2188.37L884.147 2185.78C890.093 2184.77 895.969 2187.39 899.132 2192.16C903.553 2198.83 908.793 2205.07 914.802 2210.76C919.141 2214.86 920.398 2220.96 917.667 2226.11L911.41 2237.93C907.917 2244.53 910.858 2252.5 917.985 2255.74L933.306 2262.7C940.433 2265.93 949.046 2263.21 952.539 2256.61L957.392 2247.45C960.232 2242.08 966.615 2239 972.936 2240.22C981.479 2241.88 990.099 2242.59 998.636 2242.42C1004.91 2242.3 1010.49 2246.12 1012.52 2251.62L1017.27 2264.5C1019.84 2271.45 1028.01 2275.16 1035.52 2272.79L1051.67 2267.68C1059.18 2265.3 1063.18 2257.73 1060.62 2250.78L1056.16 2238.71C1054.11 2233.15 1056.17 2226.94 1061.38 2223.6C1068.1 2219.3 1074.35 2214.3 1080 2208.66C1084.24 2204.43 1091.06 2203.44 1096.65 2205.97L1107.85 2211.06C1114.98 2214.29 1123.59 2211.57 1127.09 2204.97L1134.6 2190.78C1138.09 2184.16 1135.15 2176.19 1128.03 2172.95ZM1052.67 2161.42C1037.48 2190.1 1000.05 2201.96 969.067 2187.89C938.089 2173.82 925.289 2139.17 940.477 2110.48C955.665 2081.79 993.097 2069.94 1024.08 2084C1055.05 2098.07 1067.85 2132.73 1052.67 2161.42Z" fill="#315782"/>
<path d="M1193.04 1200.01C1281.14 1166.86 1323.54 1073.85 1287.75 992.267C1251.95 910.684 1151.51 871.419 1063.41 904.567C975.307 937.714 932.905 1030.72 968.701 1112.31C1004.5 1193.89 1104.94 1233.15 1193.04 1200.01Z" fill="#BEC0E0"/>
<path d="M1206.86 1213.14C1302.82 1172.95 1345.42 1068.33 1302.02 979.476C1258.61 890.618 1145.64 851.167 1049.68 891.358C953.726 931.549 911.122 1036.16 954.524 1125.02C997.927 1213.88 1110.9 1253.33 1206.86 1213.14Z" stroke="#BEC0E0" stroke-width="0.5" stroke-miterlimit="10"/>
<path d="M1085.71 1063.72L1054.39 1137.63C1053.41 1139.94 1056.09 1142.11 1058.43 1140.9L1082.23 1128.66C1083.8 1127.84 1085.79 1128.58 1086.33 1130.17L1094.47 1154.12C1095.28 1156.49 1098.86 1156.61 1099.85 1154.3L1128.12 1088C1128.62 1086.83 1128.16 1085.5 1127.02 1084.82L1089.92 1062.47C1088.4 1061.56 1086.36 1062.17 1085.71 1063.72Z" stroke="black" stroke-miterlimit="10"/>
<path d="M1170.92 1067.02L1202.24 1140.93C1203.22 1143.23 1200.54 1145.4 1198.2 1144.2L1174.4 1131.95C1172.83 1131.14 1170.84 1131.87 1170.3 1133.47L1162.16 1157.41C1161.35 1159.78 1157.77 1159.9 1156.78 1157.59L1128.51 1091.29C1128.01 1090.12 1128.47 1088.79 1129.61 1088.11L1166.71 1065.77C1168.23 1064.86 1170.26 1065.47 1170.92 1067.02Z" stroke="black" stroke-miterlimit="10"/>
<path d="M1128.31 1102C1175.03 1102 1212.91 1066.93 1212.91 1023.67C1212.91 980.404 1175.03 945.331 1128.31 945.331C1081.59 945.331 1043.72 980.404 1043.72 1023.67C1043.72 1066.93 1081.59 1102 1128.31 1102Z" fill="#BEC0E0" stroke="black" stroke-miterlimit="10"/>
<path d="M1168.25 1023.67C1168.25 1044.09 1150.37 1060.65 1128.31 1060.65C1106.25 1060.65 1088.37 1044.09 1088.37 1023.67C1088.37 1003.24 1106.25 986.682 1128.31 986.682C1150.37 986.682 1168.25 1003.25 1168.25 1023.67Z" fill="black" stroke="#BEC0E0" stroke-miterlimit="10"/>
<path d="M1120.89 1037.38C1119.33 1038.72 1116.82 1038.32 1115.83 1036.58L1109.55 1025.58C1108.73 1024.14 1109.32 1022.36 1110.87 1021.6C1112.43 1020.84 1114.34 1021.39 1115.16 1022.83L1119.55 1030.51L1142.12 1011.16C1143.4 1010.05 1145.42 1010.13 1146.61 1011.32C1147.81 1012.52 1147.73 1014.37 1146.44 1015.47L1120.89 1037.38Z" fill="#BEC0E0"/>
<path d="M690.135 1514.17C778.237 1481.03 820.639 1388.02 784.843 1306.43C749.047 1224.85 648.608 1185.59 560.506 1218.73C472.404 1251.88 430.001 1344.89 465.798 1426.47C501.594 1508.06 602.033 1547.32 690.135 1514.17Z" fill="#BEC0E0"/>
<path d="M684.283 1534.4C784.453 1504.28 839.292 1404.67 806.769 1311.92C774.246 1219.16 666.677 1168.38 566.507 1198.49C466.336 1228.61 411.497 1328.22 444.02 1420.98C476.543 1513.74 584.112 1564.52 684.283 1534.4Z" stroke="#BEC0E0" stroke-width="0.5" stroke-miterlimit="10"/>
<path d="M529.433 1378.95C532.882 1417.3 565.982 1447.84 607.448 1450.84C611.056 1451.1 614.162 1448.47 614.162 1445.11V1378.42C614.162 1375.26 611.399 1372.71 607.988 1372.71H535.607C531.98 1372.71 529.128 1375.6 529.433 1378.95Z" stroke="black" stroke-miterlimit="10"/>
<path d="M625.405 1378.42V1445.11C625.405 1448.47 628.511 1451.1 632.119 1450.84C673.585 1447.84 706.685 1417.29 710.135 1378.95C710.439 1375.6 707.587 1372.71 703.96 1372.71H631.579C628.168 1372.71 625.405 1375.26 625.405 1378.42Z" stroke="black" stroke-miterlimit="10"/>
<path d="M720.596 1343.68C717.147 1305.34 684.047 1274.79 642.581 1271.8C638.973 1271.54 635.867 1274.17 635.867 1277.52V1344.21C635.867 1347.37 638.63 1349.93 642.041 1349.93H714.422C718.049 1349.92 720.895 1347.03 720.596 1343.68Z" fill="black"/>
<path d="M614.162 1357.28V1290.59C614.162 1287.24 611.056 1284.61 607.448 1284.87C565.982 1287.87 532.882 1318.41 529.433 1356.75C529.128 1360.11 531.98 1362.99 535.613 1362.99H607.994C611.399 1363 614.162 1360.44 614.162 1357.28Z" stroke="black" stroke-miterlimit="10"/>
<path d="M1816.25 1158.1C1904.35 1124.96 1946.76 1031.95 1910.96 950.366C1875.16 868.783 1774.73 829.518 1686.62 862.665C1598.52 895.813 1556.12 988.82 1591.92 1070.4C1627.71 1151.99 1728.15 1191.25 1816.25 1158.1Z" fill="#BEC0E0"/>
<path d="M1823.23 1173.96C1920.83 1137.31 1967.86 1034.33 1928.28 943.953C1888.7 853.574 1777.5 810.019 1679.9 846.67C1582.29 883.321 1535.26 986.299 1574.84 1076.68C1614.42 1167.06 1725.62 1210.61 1823.23 1173.96Z" stroke="#BEC0E0" stroke-width="0.5" stroke-miterlimit="10"/>
<path d="M1635.54 1016.34H1714.22C1714.79 1016.34 1715.24 1016.73 1715.25 1017.26C1715.3 1022.93 1713.72 1053 1674.81 1053C1636.53 1053 1634.41 1023.39 1634.38 1017.39C1634.36 1016.79 1634.89 1016.34 1635.54 1016.34Z" fill="black"/>
<path d="M1637.14 1014.01L1674 948.59C1674.23 948.173 1674.84 948.173 1675.07 948.59L1711.95 1014.05C1712.52 1015.07 1711.77 1016.34 1710.58 1016.34H1638.53C1637.32 1016.34 1636.55 1015.06 1637.14 1014.01Z" stroke="black" stroke-miterlimit="10"/>
<path d="M1800.14 1099.68H1702.38C1700.16 1099.68 1698.74 1097.48 1699.8 1095.67L1708.9 1080.15C1710.23 1077.89 1712.79 1076.48 1715.57 1076.48H1785.92C1788.6 1076.48 1791.09 1077.79 1792.45 1079.92L1802.56 1095.72C1803.69 1097.46 1802.34 1099.68 1800.14 1099.68Z" fill="black"/>
<path d="M1758.16 928.462H1744.27V1076.48H1758.16V928.462Z" fill="black"/>
<path d="M1767.49 936.15C1767.49 944.479 1760.2 951.231 1751.21 951.231C1742.21 951.231 1734.92 944.479 1734.92 936.15C1734.92 927.821 1742.21 921.068 1751.21 921.068C1760.21 921.068 1767.49 927.821 1767.49 936.15Z" fill="black"/>
<path d="M1675.21 948.59C1675.21 948.59 1723.06 949.461 1739.34 934.379" stroke="black" stroke-miterlimit="10"/>
<path d="M1867.3 1016.34H1789.29C1788.5 1016.34 1787.85 1016.9 1787.86 1017.63C1787.89 1024.13 1790.18 1053 1828.3 1053C1866.08 1053 1868.64 1024.17 1868.73 1017.64C1868.74 1016.91 1868.09 1016.34 1867.3 1016.34Z" fill="black"/>
<path d="M1865.56 1014.05L1829.86 950.255C1829.23 949.125 1827.57 949.125 1826.93 950.255L1791.23 1014.05C1790.65 1015.08 1791.42 1016.34 1792.64 1016.34H1864.16C1865.37 1016.34 1866.14 1015.08 1865.56 1014.05Z" stroke="black" stroke-miterlimit="10"/>
<path d="M1828.29 949.408C1828.29 949.408 1779.64 949.461 1763.35 934.379" stroke="black" stroke-miterlimit="10"/>
<path d="M364.859 2269.53H2820.78" stroke="#315782" stroke-miterlimit="10" stroke-linecap="round"/>
</g>
<defs>
<clipPath id="clip0_1_186">
<rect width="3176" height="2941" fill="white"/>
</clipPath>
</defs>
</svg>
