<svg width="3247" height="2143" viewBox="0 0 3247 2143" fill="none" xmlns="http://www.w3.org/2000/svg">
<path d="M1623.5 1832.53C2318.89 1832.53 2882.62 1810.8 2882.62 1784C2882.62 1757.19 2318.89 1735.47 1623.5 1735.47C928.11 1735.47 364.385 1757.19 364.385 1784C364.385 1810.8 928.11 1832.53 1623.5 1832.53Z" fill="black"/>
<path d="M2492.37 1176.91H1089.04C1073.91 1176.91 1062.21 1168.74 1063.04 1158.75L1110.31 590.924C1111.14 580.938 1124.2 572.769 1139.33 572.769H2542.66C2557.79 572.769 2569.49 580.938 2568.66 590.924L2521.39 1158.75C2520.56 1168.74 2507.5 1176.91 2492.37 1176.91Z" fill="#263238"/>
<path d="M1902.05 669.336H1766.4C1721.17 669.336 1686.19 644.949 1688.67 615.14L1690.04 598.575C1692.45 569.691 1730.27 546.062 1774.1 546.062H1909.66C1954.95 546.062 1989.96 570.476 1987.48 600.319L1986.11 616.829C1983.71 645.708 1945.88 669.336 1902.05 669.336Z" fill="#263238"/>
<path d="M2025.54 1766.1H1982.08L1862.43 558.71H1905.89L2025.54 1766.1Z" fill="#263238"/>
<path d="M1699.31 1766.1H1742.78L1862.43 558.71H1818.96L1699.31 1766.1Z" fill="#263238"/>
<path d="M2484.9 1176.91H1081.57C1066.44 1176.91 1054.74 1168.74 1055.57 1158.75L1102.84 590.924C1103.67 580.938 1116.73 572.769 1131.85 572.769H2535.19C2550.32 572.769 2562.01 580.938 2561.18 590.924L2513.92 1158.75C2513.09 1168.74 2500.03 1176.91 2484.9 1176.91Z" fill="#407BFF"/>
<path opacity="0.4" d="M1103.84 1159.51C1091.73 1159.51 1082.41 1153.01 1083.08 1145.01L1128.05 604.669C1128.71 596.676 1139.11 590.17 1151.22 590.17H2512.92C2525.03 590.17 2534.34 596.676 2533.68 604.669L2488.71 1145.01C2488.04 1153.01 2477.65 1159.51 2465.54 1159.51H1103.84Z" fill="#263238"/>
<path opacity="0.1" d="M2473.97 873.101H2064.09C2053.79 873.101 2045.89 867.585 2046.45 860.783L2066.92 614.827C2067 613.867 2065.89 613.087 2064.43 613.087C2062.97 613.087 2061.73 613.867 2061.65 614.827L2041.18 860.783C2040.62 867.585 2031.8 873.101 2021.49 873.101H1595.54C1585.24 873.101 1577.34 867.585 1577.91 860.783L1598.37 614.827C1598.45 613.867 1597.34 613.087 1595.88 613.087C1594.42 613.087 1593.18 613.867 1593.1 614.827L1572.63 860.783C1572.07 867.585 1563.26 873.101 1552.94 873.101H1143.06C1141.61 873.101 1140.36 873.881 1140.28 874.841C1140.2 875.802 1141.31 876.582 1142.78 876.582H1552.66C1562.96 876.582 1570.86 882.098 1570.29 888.9L1549.83 1134.86C1549.75 1135.82 1550.86 1136.6 1552.32 1136.6C1553.77 1136.6 1555.02 1135.82 1555.1 1134.86L1575.57 888.9C1576.13 882.098 1584.95 876.582 1595.26 876.582H2021.21C2031.51 876.582 2039.41 882.098 2038.84 888.9L2018.37 1134.86C2018.3 1135.82 2019.41 1136.6 2020.87 1136.6C2022.32 1136.6 2023.57 1135.82 2023.65 1134.86L2044.12 888.9C2044.68 882.098 2053.5 876.582 2063.81 876.582H2473.69C2475.14 876.582 2476.39 875.802 2476.47 874.841C2476.55 873.881 2475.43 873.101 2473.97 873.101Z" fill="white"/>
<path opacity="0.4" d="M1805.68 657.665H1641.05L1631.84 768.175L1796.25 771.077L1805.68 657.665Z" fill="#263238"/>
<path d="M1787.83 766.328C1732.75 764.558 1677.67 762.784 1622.58 761.014C1631.73 723.451 1637.46 685.799 1639.77 648.249C1695.19 650.019 1750.59 651.789 1805.99 653.564C1803.36 691.113 1797.3 728.774 1787.83 766.328Z" fill="white"/>
<path opacity="0.4" d="M2004.16 731.491L1839.31 739.789L1842.93 849.978L2007.87 844.573L2004.16 731.491Z" fill="#263238"/>
<path d="M1998.89 840.279C1943.54 841.295 1888.18 842.31 1832.82 843.326C1837.62 805.571 1838.99 767.897 1836.94 730.497C1892.63 729.464 1948.32 728.427 2003.98 727.398C2005.7 764.819 2004.01 802.519 1998.89 840.279Z" fill="#407BFF"/>
<path opacity="0.4" d="M1522.69 932.475L1218.76 924.816L1191.49 1103.26L1494.7 1115.61L1522.69 932.475Z" fill="#263238"/>
<path d="M1479.62 1107.53C1378.11 1102.1 1276.59 1096.66 1175.06 1091.23C1195.45 1030.86 1209.54 970.179 1217.3 909.507C1319.43 914.95 1421.54 920.393 1523.64 925.841C1515.28 986.509 1500.59 1047.19 1479.62 1107.53Z" fill="white"/>
<g opacity="0.3">
<path d="M1209.88 682.636C1200.46 682.636 1193.17 677.549 1193.68 671.325C1194.2 665.106 1202.33 660.015 1211.76 660.015C1221.18 660.015 1228.47 665.102 1227.96 671.325C1227.44 677.549 1219.3 682.636 1209.88 682.636Z" fill="#263238"/>
<path opacity="0.8" d="M1478.44 682.636H1267.56C1258.13 682.636 1250.85 677.549 1251.36 671.325C1251.88 665.106 1260.01 660.015 1269.44 660.015H1480.33C1489.75 660.015 1497.04 665.102 1496.52 671.325C1496 677.549 1487.87 682.636 1478.44 682.636Z" fill="#263238"/>
<path d="M1205.77 731.951C1196.35 731.951 1189.06 726.864 1189.58 720.645C1190.1 714.426 1198.23 709.334 1207.65 709.334C1217.07 709.334 1224.36 714.421 1223.85 720.645C1223.33 726.864 1215.2 731.951 1205.77 731.951Z" fill="#263238"/>
<path opacity="0.8" d="M1511.69 731.951H1263.45C1254.03 731.951 1246.74 726.864 1247.26 720.645C1247.78 714.426 1255.91 709.334 1265.34 709.334H1513.57C1522.99 709.334 1530.28 714.421 1529.77 720.645C1529.24 726.864 1521.11 731.951 1511.69 731.951Z" fill="#263238"/>
<path d="M1201.67 781.27C1192.25 781.27 1184.96 776.182 1185.47 769.959C1185.99 763.74 1194.12 758.648 1203.55 758.648C1212.98 758.648 1220.26 763.736 1219.75 769.959C1219.23 776.182 1211.09 781.27 1201.67 781.27Z" fill="#263238"/>
<path opacity="0.8" d="M1380.17 781.27H1259.35C1249.93 781.27 1242.64 776.182 1243.15 769.959C1243.67 763.74 1251.8 758.648 1261.23 758.648H1382.05C1391.47 758.648 1398.76 763.736 1398.24 769.959C1397.72 776.182 1389.59 781.27 1380.17 781.27Z" fill="#263238"/>
<path opacity="0.8" d="M1492.05 830.589H1371.23C1361.8 830.589 1354.52 825.502 1355.03 819.278C1355.55 813.06 1363.68 807.968 1373.11 807.968H1493.93C1503.35 807.968 1510.64 813.055 1510.13 819.278C1509.61 825.502 1501.48 830.589 1492.05 830.589Z" fill="#263238"/>
<path d="M1197.57 830.589C1188.14 830.589 1180.86 825.502 1181.37 819.278C1181.89 813.06 1190.02 807.968 1199.44 807.968C1208.86 807.968 1216.15 813.055 1215.64 819.278C1215.12 825.502 1206.99 830.589 1197.57 830.589Z" fill="#263238"/>
<path opacity="0.8" d="M1311.04 830.589H1255.24C1245.82 830.589 1238.54 825.502 1239.05 819.278C1239.57 813.06 1247.7 807.968 1257.12 807.968H1312.92C1322.34 807.968 1329.63 813.055 1329.11 819.278C1328.59 825.502 1320.46 830.589 1311.04 830.589Z" fill="#263238"/>
</g>
<path d="M1721.85 977.341H1640.07L1628.83 1112.38H1710.61L1721.85 977.341Z" fill="#407BFF"/>
<path d="M1845.89 1005.18H1764.11L1755.19 1112.38H1836.96L1845.89 1005.18Z" fill="#407BFF"/>
<path d="M1978.23 933.264H1896.45L1881.55 1112.38H1963.32L1978.23 933.264Z" fill="#407BFF"/>
<path d="M1658.28 1053.54C1650.18 1053.54 1642.01 1053.4 1633.75 1053.12C1619.47 1052.64 1600.95 1051.45 1584.28 1046.5C1581.63 1045.71 1580.44 1043.65 1581.64 1041.9C1582.83 1040.14 1585.95 1039.36 1588.61 1040.15C1603.67 1044.62 1620.93 1045.71 1634.29 1046.17C1732.41 1049.5 1818.33 1032.63 1904.81 993.093C1925.43 983.668 1956.21 966.228 1975.12 948.107C1976.77 946.521 1980.06 946.127 1982.46 947.215C1984.85 948.304 1985.46 950.473 1983.81 952.054C1964.11 970.934 1933.19 988.588 1910.81 998.814C1829.59 1035.95 1748.74 1053.54 1658.28 1053.54Z" fill="white"/>
<path d="M1995.98 974.774C1995.31 974.774 1994.63 974.688 1993.97 974.508C1991.27 973.775 1990 971.739 1991.11 969.965C1998.58 958.033 2000.15 944.617 1995.65 932.479C1975.1 941.6 1953.15 949.293 1930.32 955.371C1927.61 956.087 1924.55 955.23 1923.46 953.447C1922.37 951.664 1923.67 949.636 1926.37 948.916C1950.71 942.436 1974.02 934.065 1995.64 924.04C1997 923.41 1998.73 923.239 2000.31 923.582C2001.89 923.925 2003.13 924.735 2003.67 925.776C2011.24 940.593 2010.22 957.668 2000.85 972.626C2000.02 973.964 1998.05 974.774 1995.98 974.774Z" fill="white"/>
<path d="M2426.61 841.638H2122.4C2117.24 841.638 2112.49 840.305 2109.02 837.888C2105.54 835.466 2103.78 832.252 2104.07 828.84L2118.19 659.11C2118.77 652.158 2127.82 646.505 2138.35 646.505H2442.56C2447.72 646.505 2452.47 647.838 2455.94 650.255C2459.41 652.677 2461.17 655.891 2460.89 659.303L2446.76 829.028C2446.19 835.98 2437.14 841.638 2426.61 841.638ZM2138.36 649.985C2130.58 649.985 2123.9 654.164 2123.47 659.303L2109.34 829.028C2109.14 831.476 2110.39 833.773 2112.85 835.496C2115.31 837.21 2118.7 838.158 2122.4 838.158H2426.61C2434.39 838.158 2441.07 833.979 2441.5 828.84L2455.62 659.11C2455.82 656.663 2454.58 654.365 2452.11 652.647C2449.65 650.932 2446.26 649.985 2442.56 649.985H2138.36Z" fill="#407BFF"/>
<path d="M2455.4 695.203H2117.98C2116.52 695.203 2115.34 694.423 2115.34 693.463C2115.34 692.503 2116.52 691.723 2117.98 691.723H2455.4C2456.86 691.723 2458.04 692.503 2458.04 693.463C2458.04 694.423 2456.86 695.203 2455.4 695.203Z" fill="#407BFF"/>
<path d="M2185.46 841.637C2185.41 841.637 2185.37 841.637 2185.32 841.633C2183.86 841.582 2182.75 840.759 2182.83 839.799L2195.02 693.368C2195.1 692.407 2196.32 691.657 2197.8 691.726C2199.25 691.777 2200.36 692.6 2200.28 693.56L2188.09 839.996C2188.02 840.917 2186.85 841.637 2185.46 841.637Z" fill="#407BFF"/>
<path d="M2416.76 712.599H2233.57C2232.11 712.599 2230.93 711.819 2230.93 710.859C2230.93 709.899 2232.11 709.119 2233.57 709.119H2416.76C2418.21 709.119 2419.39 709.899 2419.39 710.859C2419.39 711.819 2418.21 712.599 2416.76 712.599Z" fill="#407BFF"/>
<path d="M2389.16 733.952H2231.79C2230.33 733.952 2229.15 733.172 2229.15 732.212C2229.15 731.252 2230.33 730.472 2231.79 730.472H2389.16C2390.61 730.472 2391.79 731.252 2391.79 732.212C2391.79 733.172 2390.61 733.952 2389.16 733.952Z" fill="#407BFF"/>
<path d="M2321.55 755.986H2229.95C2228.5 755.986 2227.32 755.206 2227.32 754.246C2227.32 753.286 2228.5 752.506 2229.95 752.506H2321.55C2323.01 752.506 2324.19 753.286 2324.19 754.246C2324.19 755.206 2323.01 755.986 2321.55 755.986Z" fill="#407BFF"/>
<path d="M2338.19 798.984H2226.38C2224.92 798.984 2223.74 798.204 2223.74 797.244C2223.74 796.284 2224.92 795.504 2226.38 795.504H2338.19C2339.65 795.504 2340.83 796.284 2340.83 797.244C2340.83 798.208 2339.65 798.984 2338.19 798.984Z" fill="#407BFF"/>
<path d="M2316.14 821.018H2224.54C2223.08 821.018 2221.9 820.238 2221.9 819.278C2221.9 818.318 2223.08 817.538 2224.54 817.538H2316.14C2317.59 817.538 2318.77 818.318 2318.77 819.278C2318.77 820.238 2317.59 821.018 2316.14 821.018Z" fill="#407BFF"/>
<path d="M2369.76 821.018H2340.4C2338.95 821.018 2337.77 820.238 2337.77 819.278C2337.77 818.318 2338.95 817.538 2340.4 817.538H2369.76C2371.21 817.538 2372.39 818.318 2372.39 819.278C2372.39 820.238 2371.21 821.018 2369.76 821.018Z" fill="#407BFF"/>
<path d="M2399.71 777.335H2228.18C2226.72 777.335 2225.54 776.555 2225.54 775.595C2225.54 774.635 2226.72 773.854 2228.18 773.854H2399.71C2401.16 773.854 2402.35 774.635 2402.35 775.595C2402.35 776.555 2401.16 777.335 2399.71 777.335Z" fill="#407BFF"/>
<path d="M2239.81 1088.56C2200.06 1088.56 2167.5 1080.81 2147.27 1066.39C2125.68 1051 2116.73 1026.79 2122.69 999.98C2126.35 983.556 2134.48 969.776 2146.86 959.019C2159.29 948.226 2177.27 939.329 2200.3 932.57C2251.11 917.654 2309.92 918.177 2357.62 933.971C2379 941.047 2392.39 950.001 2397.44 960.579C2398.31 962.409 2396.77 964.363 2393.99 964.942C2391.21 965.52 2388.25 964.5 2387.38 962.666C2383.22 953.952 2371.62 946.388 2352.89 940.19C2307.98 925.322 2252.53 924.855 2204.58 938.93C2183.19 945.209 2166.6 953.382 2155.25 963.232C2143.96 973.038 2136.51 985.746 2133.12 1000.99C2127.61 1025.71 2135.58 1047.83 2155 1061.66C2181.98 1080.9 2226.66 1082.28 2250.89 1081.4C2295.93 1079.75 2334.68 1069.37 2360 1052.16C2389.61 1032.03 2397.92 1001.93 2379.31 982.133C2375.71 978.297 2367.95 971.752 2356.56 971.002C2353.67 970.814 2351.55 969.108 2351.84 967.196C2352.13 965.285 2354.73 963.9 2357.61 964.08C2369.39 964.856 2380.28 969.965 2388.27 978.468C2409.35 1000.9 2400.45 1034.66 2367.57 1057.01C2340.39 1075.48 2299.17 1086.6 2251.48 1088.35C2247.53 1088.49 2243.63 1088.56 2239.81 1088.56Z" fill="white"/>
<path d="M891.75 725.77L873.021 747.311L854.669 769.307C842.583 784.004 831.037 798.82 820.497 813.71C815.25 821.176 810.256 828.608 805.698 836.079L804.853 837.429C804.782 837.536 804.691 837.643 804.581 837.75C804.288 837.969 804.191 838.157 804.022 838.342C803.671 838.719 803.444 839.083 803.139 839.572C802.652 840.536 802.84 842.186 803.918 844.376C805.983 848.825 812.081 854.628 819.562 860.025C826.894 865.459 836.382 871.014 844.921 875.887L829.699 897.287C821.965 895.83 815.529 894.36 808.711 892.392C801.97 890.515 795.418 888.244 788.885 885.681C775.981 880.422 763.019 873.92 752.284 863.278C747.063 857.95 742.589 851.358 740.836 843.729C740.037 839.932 739.751 835.954 740.491 832.08C740.823 830.134 741.251 828.201 741.985 826.367L743.043 823.581L743.842 821.888C748.018 813.123 752.336 804.452 757.408 796.09C767.279 779.268 778.397 763.011 790.528 747.187C796.587 739.271 802.873 731.449 809.49 723.747C816.146 715.981 822.627 708.484 830.245 700.658L891.75 725.77Z" fill="#FFC3BD"/>
<path d="M828.628 873.469L862.754 867.614L864.709 903.972C864.709 903.972 838.018 906.591 821.673 895.812L828.628 873.469Z" fill="#FFC3BD"/>
<path d="M911.102 861.485L903.406 893.407L864.702 903.972L862.747 867.614L911.102 861.485Z" fill="#FFC3BD"/>
<path d="M1052.24 554.424C1053.01 556.914 1055.63 558.663 1058.09 558.333C1060.56 558.003 1061.93 555.718 1061.17 553.228C1060.4 550.738 1057.78 548.989 1055.31 549.319C1052.85 549.654 1051.48 551.938 1052.24 554.424Z" fill="#263238"/>
<path d="M1055.28 558.71C1055.28 558.71 1068.28 571.919 1079.85 577.577C1074.45 582.583 1062.52 582.227 1062.52 582.227L1055.28 558.71Z" fill="#ED847E"/>
<path d="M1034.18 542.457C1033.64 542.457 1033.09 542.324 1032.65 542.063C1031.73 541.502 1031.68 540.559 1032.53 539.954C1041.01 533.894 1051.31 534.97 1051.75 535.021C1052.98 535.158 1053.81 535.93 1053.6 536.74C1053.39 537.55 1052.21 538.09 1051 537.961C1050.66 537.927 1042.61 537.147 1035.84 541.977C1035.4 542.299 1034.79 542.457 1034.18 542.457Z" fill="#263238"/>
<path d="M944.825 589.432C951.67 612.465 958.495 654.673 934.078 670.043C934.078 670.043 943.617 693.41 1008.47 693.41C1079.78 693.41 1042.55 670.047 1042.55 670.047C1003.63 663.914 1004.63 644.854 1011.41 626.96L944.825 589.432Z" fill="#FFC3BD"/>
<path d="M920.012 674.316C914.797 667.917 909.056 660.592 920.934 658.299C934 655.775 1017.93 651.094 1042.59 655.83C1035.01 664.724 1047.83 675.653 1047.83 675.653L920.012 674.316Z" fill="#263238"/>
<path d="M708.742 1748.18C713.528 1748.86 718.314 1749.05 720.62 1747.75C721.587 1747.21 722.561 1746.17 721.717 1744.29C721.276 1743.3 720.295 1742.56 718.808 1742.1C712.366 1740.06 697.566 1744.05 696.93 1744.22C696.52 1744.33 696.248 1744.59 696.235 1744.89C696.222 1745.18 696.469 1745.45 696.871 1745.58C699.131 1746.3 703.937 1747.49 708.742 1748.18ZM716.503 1743.15C716.99 1743.21 717.438 1743.31 717.827 1743.44C718.723 1743.72 719.288 1744.14 719.548 1744.71C720.152 1746.05 719.399 1746.48 719.152 1746.61C716.587 1748.05 707.06 1746.72 700.352 1744.95C704.904 1743.9 712.268 1742.54 716.503 1743.15Z" fill="#407BFF"/>
<path d="M697.124 1745.63C697.306 1745.66 697.495 1745.65 697.683 1745.62C703.073 1744.58 714.613 1739.17 714.756 1735.6C714.782 1734.95 714.437 1733.78 711.866 1733.18C710.197 1732.8 708.515 1732.89 706.859 1733.45C700.482 1735.6 696.456 1744.32 696.287 1744.69C696.17 1744.95 696.274 1745.23 696.566 1745.43C696.715 1745.53 696.91 1745.6 697.124 1745.63ZM710.625 1734.5C710.788 1734.52 710.957 1734.56 711.119 1734.59C712.515 1734.92 712.496 1735.37 712.489 1735.56C712.411 1737.67 704.794 1741.92 699.209 1743.63C700.605 1741.12 703.794 1736.15 707.878 1734.78C708.814 1734.46 709.716 1734.37 710.625 1734.5Z" fill="#407BFF"/>
<path d="M1060.97 1753.46C1067.09 1753.46 1073.01 1752.91 1074.99 1751.09C1075.69 1750.46 1076.23 1749.37 1074.89 1747.84C1074.15 1746.97 1072.94 1746.38 1071.32 1746.09C1063.37 1744.67 1046.7 1750.94 1046 1751.2C1045.59 1751.36 1045.37 1751.66 1045.44 1751.97C1045.52 1752.28 1045.88 1752.52 1046.34 1752.58C1049.38 1752.98 1055.26 1753.46 1060.97 1753.46ZM1068.54 1747.35C1069.33 1747.35 1070.07 1747.41 1070.72 1747.53C1071.76 1747.72 1072.48 1748.05 1072.93 1748.57C1073.73 1749.49 1073.44 1749.95 1073.15 1750.22C1070.93 1752.25 1058.87 1752.3 1050.01 1751.47C1054.42 1749.97 1062.96 1747.35 1068.54 1747.35Z" fill="#407BFF"/>
<path d="M1046.56 1752.59C1046.72 1752.59 1046.87 1752.57 1047.02 1752.53C1052.78 1750.82 1064.18 1744.01 1063.31 1740.45C1063.11 1739.62 1062.21 1738.58 1059.11 1738.37C1056.79 1738.22 1054.69 1738.65 1052.84 1739.65C1046.77 1742.94 1045.49 1751.42 1045.43 1751.78C1045.39 1752.04 1045.57 1752.3 1045.9 1752.46C1046.09 1752.55 1046.33 1752.59 1046.56 1752.59ZM1058.2 1739.83C1058.42 1739.83 1058.65 1739.84 1058.88 1739.85C1060.91 1739.99 1061.04 1740.51 1061.08 1740.69C1061.61 1742.82 1053.85 1748.18 1047.98 1750.51C1048.59 1748.03 1050.29 1742.96 1054.27 1740.8C1055.48 1740.15 1056.76 1739.83 1058.2 1739.83Z" fill="#407BFF"/>
<path d="M994.095 1751.85H1041.81L1046.55 1678.93H998.849L994.095 1751.85Z" fill="#FFC3BD"/>
<path d="M643.945 1737.27L690.572 1743.93L737.381 1676.02L690.754 1669.35L643.945 1737.27Z" fill="#FFC3BD"/>
<path d="M695.053 1740.84L642.672 1733.36C640.763 1733.09 638.828 1733.73 638.016 1734.9L619.833 1760.93C617.95 1763.63 620.443 1766.8 624.866 1767.38C643.218 1769.78 652.335 1770.34 675.376 1773.64C689.546 1775.66 721.542 1780.81 741.115 1783.6C760.259 1786.34 767.428 1773.99 759.798 1771.69C725.575 1761.37 711.275 1752.28 702.014 1743.81C700.332 1742.29 697.839 1741.24 695.053 1740.84Z" fill="#263238"/>
<path d="M1041.49 1748.2H989.387C987.439 1748.2 985.75 1749.1 985.322 1750.35L975.899 1778.34C974.925 1781.24 978.263 1783.99 982.763 1783.94C1001.56 1783.73 1028.71 1783 1052.33 1783C1079.95 1783 1103.8 1784 1136.2 1784C1155.78 1784 1161.22 1770.93 1153.02 1769.74C1115.7 1764.36 1085.23 1763.78 1052.97 1750.66C1049.48 1749.23 1045.61 1748.2 1041.49 1748.2Z" fill="#263238"/>
<path d="M848.662 677.163C803.951 683.93 767.084 759.265 767.084 759.265L856.877 804.435C856.877 804.435 889.834 783.927 904.497 746.244C919.862 706.757 894.38 670.245 848.662 677.163Z" fill="#407BFF"/>
<path opacity="0.2" d="M848.662 677.163C803.951 683.93 767.084 759.265 767.084 759.265L856.877 804.435C856.877 804.435 889.834 783.927 904.497 746.244C919.862 706.757 894.38 670.245 848.662 677.163Z" fill="black"/>
<path opacity="0.2" d="M886.983 732.562C862.695 748.421 854.773 777.308 852.89 802.424L856.851 804.439C856.851 804.439 889.84 783.909 904.517 746.235C905.426 743.878 906.205 741.52 906.855 739.206L886.983 732.562Z" fill="black"/>
<path d="M1115.93 678.783C1115.93 678.783 1166.71 716.637 1118.75 950.931C1041.87 950.931 900.997 950.931 863.585 950.931C861.825 925.078 886.438 798.966 848.662 677.158C848.662 677.158 892.399 671.363 934.084 670.039C966.69 669.002 1013.89 668.316 1042.55 670.043C1080.34 672.319 1115.93 678.783 1115.93 678.783Z" fill="#407BFF"/>
<path opacity="0.2" d="M1115.93 678.783C1115.93 678.783 1166.71 716.637 1118.75 950.931C1041.87 950.931 900.997 950.931 863.585 950.931C861.825 925.078 886.438 798.966 848.662 677.158C848.662 677.158 892.399 671.363 934.084 670.039C966.69 669.002 1013.89 668.316 1042.55 670.043C1080.34 672.319 1115.93 678.783 1115.93 678.783Z" fill="black"/>
<path opacity="0.2" d="M1138.24 750.393L1137.26 749.836L1079.27 759.008C1075.96 784.895 1116.29 815.84 1137.07 829.984C1139.92 796.939 1139.86 770.88 1138.24 750.393Z" fill="black"/>
<path opacity="0.2" d="M1046.55 1678.95L1044.11 1716.53H996.374L998.816 1678.95H1046.55Z" fill="black"/>
<path opacity="0.2" d="M690.734 1669.37L737.381 1676.04L713.223 1711.04L666.583 1704.37L690.734 1669.37Z" fill="black"/>
<path d="M924.843 566.022C937.097 596.204 941.948 614.282 970.171 626.832C1012.62 645.712 1065.48 624.046 1067.13 592.051C1068.62 563.253 1048.33 518.73 999.251 512.648C950.897 506.661 912.589 535.84 924.843 566.022Z" fill="#FFC3BD"/>
<path d="M945.845 615.242C965.288 622.588 1036.18 598.042 1021.62 560.84C1021.62 560.84 1048.63 539.405 1045.58 515.751C1042.53 492.097 1017.93 483.083 991.757 488.158C968.69 492.632 969.359 500.969 969.359 500.969C969.359 500.969 860.338 509.438 883.606 538.685C839.233 570.616 921.576 606.074 945.845 615.242Z" fill="#263238"/>
<path d="M886.665 541.121C886.665 541.121 873.677 526.287 854.734 534.593C863.67 534.679 878.281 535.686 886.665 541.121Z" fill="#263238"/>
<path d="M1042.11 531.339C1042.11 531.339 1065.87 495.941 1028.82 484.545C1041.31 496.014 1048.11 514.53 1042.11 531.339Z" fill="#263238"/>
<path d="M1002.66 567.286C1005.77 575.207 1013.66 582.021 1021.92 586.072C1034.33 592.166 1043.61 586.166 1042.72 576.895C1041.93 568.55 1034.51 555.319 1020.82 552.846C1007.32 550.412 999.102 558.23 1002.66 567.286Z" fill="#FFC3BD"/>
<path d="M1028.23 950.935C1028.23 950.935 974.093 1191.56 944.37 1281.71C911.823 1380.43 737.29 1707.03 737.29 1707.03L651.887 1694.83C651.887 1694.83 773.929 1428.67 801.249 1290.66C822.231 1184.65 863.585 950.935 863.585 950.935H1028.23Z" fill="#263238"/>
<path d="M757.739 1688.22C758.103 1688.27 741.823 1708.6 741.823 1708.6L645.737 1694.87L653.835 1675.81L757.739 1688.22Z" fill="#407BFF"/>
<path opacity="0.3" d="M994.017 1036.67C931.415 1044.77 938.039 1198.85 945.572 1278.1C963.625 1222.08 990.056 1114.29 1008.11 1037.78C1003.95 1036.41 999.277 1035.98 994.017 1036.67Z" fill="black"/>
<path d="M1118.75 950.935C1118.75 950.935 1125.33 1186.35 1120.14 1282.37C1114.74 1382.24 1061.89 1709.26 1061.89 1709.26H981.068C981.068 1709.26 978.1 1388.08 974.509 1290C970.587 1183.06 951.027 950.939 951.027 950.939H1118.75V950.935Z" fill="#263238"/>
<path opacity="0.4" d="M1567.41 784.964H1402.78L1393.58 895.474L1557.98 898.376L1567.41 784.964Z" fill="#263238"/>
<path d="M1480.87 856.064C1425.91 851.589 1370.95 847.11 1315.98 842.636C1329.31 805.78 1339.23 768.668 1345.71 731.491C1401 735.983 1456.29 740.47 1511.56 744.962C1504.76 782.135 1494.52 819.239 1480.87 856.064Z" fill="#407BFF"/>
<path d="M1077.43 1688.01C1077.8 1688.01 1072.87 1710.16 1072.87 1710.16H974.561L971.905 1690.39L1077.43 1688.01Z" fill="#407BFF"/>
<path d="M1139.46 707.507C1146.79 715.046 1155.16 723.515 1163.5 731.337C1172.02 739.228 1180.52 747.118 1189.47 754.7C1207.22 769.881 1226.04 784.466 1246.31 796.57C1251.33 799.634 1256.47 802.472 1261.65 805.09L1265.55 807.028C1265.2 806.891 1263.96 806.616 1263.26 806.509C1261.57 806.295 1260.75 806.488 1261.2 806.642C1262.19 806.981 1266.93 806.441 1271.89 805.022C1276.92 803.612 1282.64 801.7 1288.31 799.394C1311.15 790.051 1334.74 776.996 1356.91 764.309L1384.77 779.164C1367.49 797.547 1348.46 814.172 1322.32 829.452C1315.68 833.219 1308.57 836.961 1300 840.291C1291.39 843.57 1281.6 846.926 1267.24 848.323C1260.06 848.941 1251.37 848.82 1242.41 846.935C1238.03 846.077 1233.41 844.552 1229.79 843.086L1224.16 840.733C1216.72 837.557 1209.65 834.21 1202.94 830.716C1176.08 816.676 1153.67 800.843 1132.99 784.376C1122.81 776.07 1112.95 767.665 1103.8 758.935C1094.55 750.114 1085.86 741.679 1077.25 731.856L1139.46 707.507Z" fill="#FFC3BD"/>
<path d="M1045.75 726.408C1030.49 768.621 1146.22 809.96 1146.22 809.96L1221.38 751.833C1221.38 751.833 1187.16 717.605 1144.59 690.637C1092 657.327 1057.36 694.276 1045.75 726.408Z" fill="#407BFF"/>
<path opacity="0.2" d="M1045.75 726.408C1030.49 768.621 1146.22 809.96 1146.22 809.96L1221.38 751.833C1221.38 751.833 1187.16 717.605 1144.59 690.637C1092 657.327 1057.36 694.276 1045.75 726.408Z" fill="black"/>
<path d="M1349.35 773.091L1367.09 735.49L1413.78 750.847C1413.78 750.847 1406.98 778.282 1372.99 783.039L1349.35 773.091Z" fill="#FFC3BD"/>
<path d="M1385.81 725.066L1427.92 732.713L1413.78 750.842L1367.08 735.49L1385.81 725.066Z" fill="#FFC3BD"/>
</svg>
