<svg width="679" height="768" viewBox="0 0 679 768" fill="none" xmlns="http://www.w3.org/2000/svg">
<g clip-path="url(#clip0_1_260)">
<path d="M679 0H0V768H679V0Z" fill="url(#paint0_linear_1_260)"/>
<path d="M169.216 667.165C169.239 667.165 535.42 667.165 535.42 667.165C540.659 660.928 545.772 654.533 550.746 647.991C592.539 593.031 522.057 509.989 536.179 439.592C547.139 384.954 614.594 319.929 578.274 263.2C557.901 231.394 524.269 241.527 495.374 248.046C457.634 256.56 429.348 250.944 406.531 212.652C386.928 179.752 374.323 141.639 338.279 128.216C306.571 116.407 269.81 125.107 242.27 145.347C226.081 157.245 212.739 174.941 207.472 195.951C199.107 229.323 208.883 266.235 197.211 298.664C186.604 328.137 161.884 346.414 137.59 359.863C100.686 380.292 58.2308 398.741 55.2296 452.169C52.811 495.246 75.07 534.402 97.7119 566.776C108.945 582.837 121.641 597.409 133.186 613.142C138.4 620.249 163.261 667.165 169.216 667.165Z" fill="url(#paint1_linear_1_260)"/>
<path d="M234.605 266.611H141.269V278.09H234.605V266.611Z" fill="#D8E4FF" stroke="#9DACD7" stroke-width="1.0833" stroke-miterlimit="10"/>
<path d="M565.973 670.378C565.973 675.092 458.927 678.912 326.88 678.912C194.834 678.912 87.7881 675.09 87.7881 670.378C87.7881 665.666 194.834 661.844 326.88 661.844C458.927 661.842 565.973 665.664 565.973 670.378Z" fill="url(#paint2_linear_1_260)"/>
<path d="M377.506 530.895H360.712V674.336H377.506V530.895Z" fill="#FFAA00"/>
<path d="M559.442 530.895H542.647V674.336H559.442V530.895Z" fill="#FFAA00"/>
<path d="M377.506 530.895H360.712V561.944H377.506V530.895Z" fill="#D68F00"/>
<path d="M559.442 530.895H542.647V561.944H559.442V530.895Z" fill="#D68F00"/>
<path d="M574.836 528.521H345.317V547.516H574.836V528.521Z" fill="#FFCB5D"/>
<path d="M574.836 528.521H345.317V547.516H574.836V528.521Z" fill="black" fill-opacity="0.2"/>
<path d="M234.605 270.559H141.269V282.037H234.605V270.559Z" fill="url(#paint3_linear_1_260)"/>
<path d="M155.637 222.176H145.669V266.611H155.637V222.176Z" fill="#D8E4FF" stroke="#9DACD7" stroke-width="1.1943" stroke-miterlimit="10"/>
<path d="M168.362 207.583H158.395V266.611H168.362V207.583Z" fill="#D8E4FF" stroke="#9DACD7" stroke-width="1.3765" stroke-miterlimit="10"/>
<path d="M181.088 207.583H171.12V266.611H181.088V207.583Z" fill="#D8E4FF" stroke="#9DACD7" stroke-width="1.3765" stroke-miterlimit="10"/>
<path d="M339.72 244.394H284.509V261.53H339.72V244.394Z" fill="url(#paint4_linear_1_260)"/>
<path d="M591.595 346.701H536.384V363.837H591.595V346.701Z" fill="url(#paint5_linear_1_260)"/>
<path d="M328.251 570.423H273.04V587.558H328.251V570.423Z" fill="url(#paint6_linear_1_260)"/>
<path d="M274.158 215.401H218.947V232.537H274.158V215.401Z" fill="url(#paint7_linear_1_260)"/>
<path d="M297.005 333.57H222.909C220.898 333.57 219.267 335.415 219.267 337.69V384.432C219.267 386.706 220.898 388.551 222.909 388.551H281.425L288.872 408.568V388.551H297.007C299.018 388.551 300.647 386.706 300.647 384.432V337.69C300.646 335.413 299.016 333.57 297.005 333.57Z" fill="white" stroke="#2C44AB" stroke-width="1.1113" stroke-miterlimit="10"/>
<path d="M252.134 342.307H226.359V378.228H252.134V342.307Z" fill="#D8E4FF" stroke="#9DACD7" stroke-width="1.1113" stroke-miterlimit="10"/>
<path d="M229.039 362.129L234.606 353.242L239.247 362.166L244.204 357.704L249.455 362.166V374.494H229.039V362.129Z" fill="#9DACD7"/>
<path d="M243.329 355.269C245.11 355.269 246.553 353.637 246.553 351.623C246.553 349.609 245.11 347.976 243.329 347.976C241.549 347.976 240.105 349.609 240.105 351.623C240.105 353.637 241.549 355.269 243.329 355.269Z" fill="#FCEE21"/>
<path d="M293.829 343.084H259.956V347.976H293.829V343.084Z" fill="#9DACD7"/>
<path d="M293.829 352.822H259.956V357.714H293.829V352.822Z" fill="#91A7E7"/>
<path d="M293.829 362.561H259.956V367.453H293.829V362.561Z" fill="#9DACD7"/>
<path d="M293.829 372.3H259.956V377.192H293.829V372.3Z" fill="#91A7E7"/>
<path d="M73.0264 393.022L94.5996 391.132C100.766 391.132 103.979 392.792 107.847 396.975L151.877 443.417H222.62C224.18 443.545 225.691 443.915 227.125 444.492C236.011 448.073 240.37 459.464 237.232 469.524L231.398 488.228H100.472L73.0264 393.022Z" fill="#C41825"/>
<path d="M239.693 674.335C237.957 674.335 236.332 673.107 235.728 671.148L210.088 587.944C207.046 578.074 198.795 571.443 189.552 571.443H154.054C144.813 571.443 136.56 578.075 133.518 587.944L107.879 671.148C107.115 673.624 104.72 674.937 102.533 674.069C100.344 673.204 99.1866 670.498 99.9498 668.022L125.589 584.818C129.805 571.136 141.244 561.944 154.054 561.944H189.552C202.362 561.944 213.8 571.136 218.017 584.818L243.657 668.022C244.421 670.498 243.264 673.204 241.075 674.069C240.618 674.249 240.152 674.335 239.693 674.335Z" fill="#662D91"/>
<path d="M241.69 562.588H187.187V540.741H241.69C247.023 540.741 251.347 545.632 251.347 551.664C251.347 557.699 247.023 562.588 241.69 562.588Z" fill="#C41825"/>
<path d="M148.921 507.759C148.921 507.759 156.507 538.744 175.023 542.105C193.54 545.467 295.375 484.141 310.553 479.877C325.732 475.615 418.788 518.884 418.788 518.884L426.411 507.239C426.411 507.239 331.654 425.269 307.599 429.463C283.545 433.656 145.798 493.621 145.798 493.621L148.921 507.759Z" fill="#1C2B6C"/>
<path d="M418.788 518.885L429.493 528.593L434.345 522.973L431.389 519.206L438.681 520.49L466.668 481.544C466.668 481.544 462.91 479.705 456.598 486.416C450.286 493.127 434.408 508.444 426.409 507.244L418.788 518.885Z" fill="#000A3B"/>
<path d="M252.135 445.431C252.135 445.431 266.914 428.473 269.998 427.993C273.081 427.512 284.51 433.974 284.51 433.974L251.369 453.114L252.135 445.431Z" fill="#F59F84"/>
<path d="M193.822 454.862C193.822 454.862 239.89 448.464 252.135 445.299L251.551 451.696L195.221 479.793L193.822 454.862Z" fill="#F59F84"/>
<path d="M239.226 461.456L312.43 423.237L315.031 431.058L241.522 466.339L239.226 461.456Z" fill="#CCCCCC"/>
<path d="M312.43 423.237L320.074 420.968L323.496 428.441L315.03 431.058L312.43 423.237Z" fill="#BABABA"/>
<path d="M312.43 423.237C312.552 420.434 315.03 318.437 315.03 318.437L327.567 336.538L320.073 420.968L312.43 423.237Z" fill="#BABABA"/>
<path d="M315.03 318.437L310.097 317.938L308.668 425.627L312.43 423.237L315.03 318.437Z" fill="#CCCCCC"/>
<path d="M147.186 528.02C147.186 528.02 167.114 555.774 185.774 557.884C204.435 559.995 302.865 491.929 317.794 486.652C332.722 481.376 427.888 518.311 427.888 518.311L434.886 506.175C434.886 506.175 335.988 430.722 312.196 436.525C288.404 442.33 154.053 511.451 154.053 511.451L147.186 528.02Z" fill="url(#paint8_linear_1_260)"/>
<path d="M427.889 518.312L439.084 527.283L443.632 521.346L440.483 517.784L447.83 518.575L473.72 477.814C473.72 477.814 469.871 476.232 463.923 483.355C457.975 490.479 442.931 506.835 434.884 506.175L427.889 518.312Z" fill="#000A3B"/>
<path opacity="0.23" d="M440.47 525.461L439.085 527.281L427.89 518.306C427.89 518.306 332.724 481.376 317.792 486.648C302.873 491.935 204.432 560.001 185.776 557.88C167.121 555.774 147.191 528.026 147.191 528.026L154.049 511.453C154.049 511.453 168.982 503.759 189.792 493.313C219.055 495.544 264.721 490.684 317.79 455.528C317.79 455.528 390.872 489.514 428.925 516.503C433.291 519.604 437.195 522.612 440.47 525.461Z" fill="#324DC2"/>
<path d="M167.708 341.017L166.924 351.623L166.154 362.166L138.247 350.167L148.534 328.1L155.798 332.993L167.708 341.017Z" fill="#FEBDA9"/>
<path d="M167.708 341.017L166.924 351.623C155.323 346.13 155.267 336.822 155.798 332.991L167.708 341.017Z" fill="#A24366"/>
<path d="M199.931 289.799C199.931 289.799 207.116 360.925 183.216 352.557C159.317 344.188 145.669 328.107 145.669 328.107C145.669 328.107 157.173 244.381 199.931 289.799Z" fill="#FEBDA9"/>
<path d="M175.934 358.045L137.817 339.862L136.893 353.89C136.893 353.89 104.406 425.945 141.125 496.136C141.125 496.136 138.918 524.009 147.184 528.02C155.45 532.03 160.427 510.467 160.427 510.467C160.427 510.467 186.002 504.124 203.848 486.155C203.848 486.155 208.657 434.345 170.391 371.591L175.934 358.045Z" fill="url(#paint9_linear_1_260)"/>
<path d="M142.777 335.986L146.664 335.191C146.664 335.191 170.588 318.205 181.562 298.305C181.562 298.305 174.872 292.937 179.39 286.903C179.39 286.903 182.976 284.423 189.973 288.187C196.971 291.952 206.411 293.351 216.619 271.545C216.619 271.545 210.615 274.231 204.956 272.388C199.297 270.545 210.142 273.081 216.619 267.215C216.619 267.215 197.904 273.883 189.973 267.88C182.043 261.876 149.069 250.128 145.097 290.299C141.125 330.47 142.777 335.986 142.777 335.986Z" fill="#42210B"/>
<path d="M171.12 318.44C171.12 318.44 165.729 298.863 157.792 306.223C149.854 313.584 153.048 331.549 168.945 328.106L171.12 318.44Z" fill="#FEBDA9"/>
<path d="M200.703 314.124L205.394 328.392C206.033 330.337 205.083 332.489 203.324 333.079L194.65 335.988L200.703 314.124Z" fill="#FEBDA9"/>
<path d="M162.368 388.863C162.368 388.863 149.475 367.846 136.895 381.628C124.314 395.411 129.355 491.013 186.721 497.275L197.992 463.038L162.368 388.863Z" fill="#FF5C3D"/>
<path opacity="0.35" d="M186.721 497.275L190.507 485.774C157.513 473.14 153.447 402.394 153.009 379.175C148.4 376.297 142.617 375.36 136.895 381.628C124.314 395.411 129.355 491.013 186.721 497.275Z" fill="#FF5C3D"/>
<path d="M197.845 462.777C197.845 462.777 180.426 490.35 186.79 497.312C196.028 507.419 258.563 454.785 258.563 454.785L256.917 450.504L197.845 462.777Z" fill="#FEBDA9"/>
<path d="M258.373 454.862C258.373 454.862 266.479 456.313 273.243 444.968L277.676 438.901L289.804 436.791L290.737 434.68L288.638 433.361C288.638 433.361 277.675 426.501 274.876 428.085C272.077 429.667 256.843 450.56 256.843 450.56L258.373 454.862Z" fill="#FEBDA9"/>
<path d="M183.501 333.57C183.501 333.57 190.148 339.703 195.047 341.287C195.047 341.287 184.725 351.18 183.501 333.57Z" fill="#A24366"/>
<path d="M195.047 341.287C190.148 339.703 183.501 333.57 183.501 333.57C183.568 334.519 183.664 335.373 183.779 336.167C185.846 337.866 190.171 341.244 192.537 343.084C194.001 342.285 195.047 341.287 195.047 341.287Z" fill="white"/>
<path d="M199.186 309.364L200.119 304.351C200.119 304.351 192.071 302.767 186.008 312.925L186.824 315.035C186.824 315.035 192.306 308.309 199.186 309.364Z" fill="#1B1F47"/>
<path d="M196.014 318.468C195.753 319.895 195.032 320.933 194.401 320.786C193.769 320.638 193.469 319.362 193.73 317.935C193.991 316.508 194.713 315.47 195.343 315.617C195.973 315.765 196.275 317.041 196.014 318.468Z" fill="#401F47"/>
<path d="M161.283 293.798C161.283 293.798 161.617 293.245 162.247 292.387C161.87 292.828 161.544 293.298 161.283 293.798Z" fill="#633110"/>
<path d="M216.619 271.546C216.619 271.546 210.616 274.231 204.957 272.39C200.117 270.814 207.35 272.436 213.596 269.268C198.964 272.66 186.943 270.055 186.943 270.055C195.107 277.706 208.868 274.54 208.868 274.54C199.771 279.289 176.913 273.221 176.913 273.221C194.173 288.258 208.634 279.025 208.634 279.025C208.634 279.025 206.535 292.216 189.275 284.037C175.025 277.285 165.234 288.327 162.249 292.387C167.646 286.082 184.143 285.619 184.143 285.619L184.099 286.188C185.672 286.375 187.626 286.925 189.974 288.187C196.972 291.951 206.411 293.351 216.619 271.546Z" fill="#633110"/>
<path d="M157.138 265.035C151.182 268.946 146.452 276.6 145.096 290.298C141.126 330.469 142.777 335.985 142.777 335.985L143.535 335.83C145.445 326.898 145.202 312.856 147.288 292.213C148.619 279.044 152.955 270.442 157.138 265.035Z" fill="#633110"/>
<path d="M141.224 355.269C145.977 355.659 150.621 357.208 154.982 359.415C157.162 360.528 159.243 361.902 161.196 363.467C163.159 365.021 164.898 366.927 166.415 368.989C164.513 367.365 162.608 365.843 160.597 364.499C158.575 363.186 156.536 361.914 154.399 360.852C152.282 359.748 150.113 358.765 147.919 357.837C145.715 356.937 143.496 356.054 141.224 355.269Z" fill="#FF5C3D"/>
<path d="M165.133 313.676C164.962 313.193 164.838 312.653 164.534 312.207C164.017 311.249 163.248 310.595 162.53 310.169C161.81 309.719 161.101 309.518 160.517 309.377C159.334 309.131 158.602 309.231 158.602 309.231C158.602 309.231 159.314 309.446 160.354 309.966C161.363 310.509 162.785 311.359 163.615 312.877C163.651 312.937 163.666 313.005 163.699 313.064C163.492 312.886 163.256 312.731 162.957 312.656C162.178 312.473 161.378 312.7 160.669 313.158C159.226 314.118 158.662 315.768 158.492 316.826C158.314 317.924 158.385 318.599 158.385 318.599C158.385 318.599 158.594 317.957 159.023 317.038C159.452 316.127 160.16 314.971 161.239 314.266C161.764 313.917 162.353 313.7 162.812 313.72C163.262 313.731 163.657 314.038 163.941 314.416C164.12 314.65 164.251 314.875 164.366 315.083C164.497 315.928 164.495 316.751 164.438 317.419C164.427 318.064 164.292 318.576 164.266 318.946C164.224 319.316 164.2 319.52 164.2 319.52C164.2 319.52 164.281 319.336 164.429 319.006C164.554 318.665 164.823 318.193 164.975 317.537C165.053 317.205 165.137 316.843 165.228 316.453C165.278 316.052 165.29 315.61 165.315 315.144C165.305 314.682 165.221 314.184 165.133 313.676Z" fill="#A24366"/>
<path opacity="0.35" d="M141.126 496.137C110.471 417.499 136.894 353.891 136.894 353.891C136.894 353.891 104.407 425.945 141.126 496.137Z" fill="#FF5C3D"/>
<path d="M312.43 423.237L315.03 346.041L321.926 400.087L320.074 420.968L323.496 428.441L315.03 431.058L312.43 423.237Z" fill="#A1A1A1"/>
<path d="M119.108 443.586H211.942C227.401 443.586 238.795 459.932 235.187 476.936L217.072 562.307H133.885C126.74 562.307 120.403 557.112 118.18 549.429L73.7179 395.763C73.1801 393.904 75.2334 392.502 76.438 393.904L119.108 443.586Z" fill="#FA1E2E"/>
</g>
<defs>
<linearGradient id="paint0_linear_1_260" x1="339.5" y1="-35.328" x2="339.5" y2="793.69" gradientUnits="userSpaceOnUse">
<stop offset="0.1816"/>
<stop offset="0.4635" stop-color="#000005"/>
<stop offset="0.6741"/>
<stop offset="0.861"/>
<stop offset="0.9997"/>
</linearGradient>
<linearGradient id="paint1_linear_1_260" x1="321.98" y1="122.879" x2="321.98" y2="667.165" gradientUnits="userSpaceOnUse">
<stop/>
<stop offset="1" stop-opacity="0"/>
</linearGradient>
<linearGradient id="paint2_linear_1_260" x1="326.88" y1="661.844" x2="326.88" y2="678.912" gradientUnits="userSpaceOnUse">
<stop/>
<stop offset="1" stop-opacity="0"/>
</linearGradient>
<linearGradient id="paint3_linear_1_260" x1="187.937" y1="270.559" x2="187.937" y2="282.037" gradientUnits="userSpaceOnUse">
<stop/>
<stop offset="1" stop-opacity="0"/>
</linearGradient>
<linearGradient id="paint4_linear_1_260" x1="312.114" y1="244.394" x2="312.114" y2="261.53" gradientUnits="userSpaceOnUse">
<stop/>
<stop offset="1" stop-opacity="0"/>
</linearGradient>
<linearGradient id="paint5_linear_1_260" x1="563.989" y1="346.701" x2="563.989" y2="363.837" gradientUnits="userSpaceOnUse">
<stop/>
<stop offset="1" stop-opacity="0"/>
</linearGradient>
<linearGradient id="paint6_linear_1_260" x1="300.645" y1="570.423" x2="300.645" y2="587.558" gradientUnits="userSpaceOnUse">
<stop/>
<stop offset="1" stop-opacity="0"/>
</linearGradient>
<linearGradient id="paint7_linear_1_260" x1="246.553" y1="215.401" x2="246.553" y2="232.537" gradientUnits="userSpaceOnUse">
<stop/>
<stop offset="1" stop-opacity="0"/>
</linearGradient>
<linearGradient id="paint8_linear_1_260" x1="147.186" y1="497.071" x2="434.886" y2="497.071" gradientUnits="userSpaceOnUse">
<stop stop-color="#2C44AB"/>
<stop offset="0.998" stop-color="#1C2B6C"/>
</linearGradient>
<linearGradient id="paint9_linear_1_260" x1="123.632" y1="434.19" x2="204.043" y2="434.19" gradientUnits="userSpaceOnUse">
<stop stop-color="#FF5C3D"/>
<stop offset="1" stop-color="#CF2A0A"/>
</linearGradient>
<clipPath id="clip0_1_260">
<rect width="679" height="768" fill="white"/>
</clipPath>
</defs>
</svg>
