<svg width="2302" height="1785" viewBox="0 0 2302 1785" fill="none" xmlns="http://www.w3.org/2000/svg">
<path d="M2302 1785H0.0107422V0.000293077H2302V1785Z" fill="black"/>
<path d="M177.426 1170.24H261.284" stroke="#709EDA" stroke-width="13.9285" stroke-miterlimit="10"/>
<path d="M273.783 1170.24H315.718" stroke="#709EDA" stroke-width="13.9285" stroke-miterlimit="10"/>
<path d="M1931.79 955.113H2029.47" stroke="#709EDA" stroke-width="15.0333" stroke-miterlimit="10"/>
<path d="M2044.04 955.113H2092.89" stroke="#709EDA" stroke-width="15.0333" stroke-miterlimit="10"/>
<path d="M1485.3 1624.72H1387.62" stroke="#709EDA" stroke-width="15.0333" stroke-miterlimit="10"/>
<path d="M1373.06 1624.72H1324.21" stroke="#709EDA" stroke-width="15.0333" stroke-miterlimit="10"/>
<path d="M1996.59 387.701H1912.72" stroke="#709EDA" stroke-width="13.9285" stroke-miterlimit="10"/>
<path d="M1900.22 387.701H1858.3" stroke="#709EDA" stroke-width="13.9285" stroke-miterlimit="10"/>
<path d="M871.405 1523.96H787.541" stroke="#709EDA" stroke-width="13.9285" stroke-miterlimit="10"/>
<path d="M775.048 1523.96H733.119" stroke="#709EDA" stroke-width="13.9285" stroke-miterlimit="10"/>
<path d="M1128.64 147.726L1140.33 156.789" stroke="#709EDA" stroke-width="13.9285" stroke-miterlimit="10"/>
<path d="M1148.58 163.184L1160.26 172.246" stroke="#709EDA" stroke-width="13.9285" stroke-miterlimit="10"/>
<path d="M1160.26 147.726L1148.58 156.789" stroke="#709EDA" stroke-width="13.9285" stroke-miterlimit="10"/>
<path d="M1140.33 163.184L1128.64 172.246" stroke="#709EDA" stroke-width="13.9285" stroke-miterlimit="10"/>
<path d="M181.646 569.818L193.336 578.88" stroke="#709EDA" stroke-width="13.9285" stroke-miterlimit="10"/>
<path d="M201.584 585.276L213.275 594.338" stroke="#709EDA" stroke-width="13.9285" stroke-miterlimit="10"/>
<path d="M213.275 569.818L201.584 578.88" stroke="#709EDA" stroke-width="13.9285" stroke-miterlimit="10"/>
<path d="M193.336 585.276L181.646 594.338" stroke="#709EDA" stroke-width="13.9285" stroke-miterlimit="10"/>
<path d="M1398.91 586.891L1410.6 595.962" stroke="#709EDA" stroke-width="13.9285" stroke-miterlimit="10"/>
<path d="M1418.85 602.357L1430.54 611.42" stroke="#709EDA" stroke-width="13.9285" stroke-miterlimit="10"/>
<path d="M1430.54 586.891L1418.85 595.962" stroke="#709EDA" stroke-width="13.9285" stroke-miterlimit="10"/>
<path d="M1410.6 602.357L1398.91 611.42" stroke="#709EDA" stroke-width="13.9285" stroke-miterlimit="10"/>
<path d="M2044.12 1170.24L2055.81 1179.3" stroke="#709EDA" stroke-width="13.9285" stroke-miterlimit="10"/>
<path d="M2064.05 1185.7L2075.74 1194.76" stroke="#709EDA" stroke-width="13.9285" stroke-miterlimit="10"/>
<path d="M2075.74 1170.24L2064.05 1179.3" stroke="#709EDA" stroke-width="13.9285" stroke-miterlimit="10"/>
<path d="M2055.81 1185.7L2044.12 1194.76" stroke="#709EDA" stroke-width="13.9285" stroke-miterlimit="10"/>
<path d="M1097.01 1416.04L1108.71 1425.1" stroke="#709EDA" stroke-width="13.9285" stroke-miterlimit="10"/>
<path d="M1116.95 1431.5L1128.64 1440.56" stroke="#709EDA" stroke-width="13.9285" stroke-miterlimit="10"/>
<path d="M1128.64 1416.04L1116.95 1425.1" stroke="#709EDA" stroke-width="13.9285" stroke-miterlimit="10"/>
<path d="M1108.71 1431.5L1097.01 1440.56" stroke="#709EDA" stroke-width="13.9285" stroke-miterlimit="10"/>
<path d="M1892.79 216.709C1892.79 222.927 1886.3 227.959 1878.28 227.959C1870.26 227.959 1863.77 222.927 1863.77 216.709C1863.77 210.491 1870.26 205.459 1878.28 205.459C1886.3 205.459 1892.79 210.491 1892.79 216.709Z" stroke="#709EDA" stroke-width="13.9285" stroke-miterlimit="10"/>
<path d="M492.462 252.404C492.462 258.614 485.97 263.654 477.955 263.654C469.941 263.654 463.441 258.614 463.441 252.404C463.441 246.185 469.941 241.145 477.955 241.145C485.97 241.145 492.462 246.185 492.462 252.404Z" stroke="#709EDA" stroke-width="13.9285" stroke-miterlimit="10"/>
<path d="M555.301 1014.24C555.301 1020.46 548.809 1025.49 540.793 1025.49C532.779 1025.49 526.285 1020.46 526.285 1014.24C526.285 1008.02 532.779 1002.99 540.793 1002.99C548.809 1002.99 555.301 1008.02 555.301 1014.24Z" stroke="#709EDA" stroke-width="13.9285" stroke-miterlimit="10"/>
<path d="M1170.67 1191.32C875.599 1191.32 636.375 1085.57 636.375 955.104C636.375 824.67 875.599 718.907 1170.67 718.907C1465.75 718.907 1704.95 824.67 1704.95 955.104C1704.95 1085.57 1465.75 1191.32 1170.67 1191.32Z" fill="#A2A9D9"/>
<path d="M705.189 840.885V924.231C705.189 1037.9 913.601 1130.02 1170.66 1130.02C1427.75 1130.02 1636.12 1037.9 1636.12 924.231V840.885H705.189Z" fill="#781D43"/>
<path d="M1170.66 1046.67C913.601 1046.67 705.189 954.549 705.189 840.885C705.189 727.246 913.601 635.107 1170.66 635.107C1427.75 635.107 1636.12 727.246 1636.12 840.885C1636.12 954.549 1427.75 1046.67 1170.66 1046.67Z" fill="#CC337D"/>
<path d="M1170.66 1002.99C968.165 1002.99 803.996 930.425 803.996 840.885C803.996 751.371 968.165 678.787 1170.66 678.787C1373.17 678.787 1537.32 751.371 1537.32 840.885C1537.32 930.425 1373.17 1002.99 1170.66 1002.99Z" fill="black"/>
<path d="M1170.66 963.637C1017.33 963.637 893.012 908.69 893.012 840.885C893.012 773.106 1017.33 718.142 1170.66 718.142C1324.02 718.142 1448.31 773.106 1448.31 840.885C1448.31 908.69 1324.02 963.637 1170.66 963.637Z" fill="#CC337D"/>
<path d="M1170.66 921.429C1070.05 921.429 988.482 885.373 988.482 840.885C988.482 796.414 1070.05 760.349 1170.66 760.349C1271.28 760.349 1352.84 796.414 1352.84 840.885C1352.84 885.373 1271.28 921.429 1170.66 921.429Z" fill="black"/>
<path d="M1170.66 881.612C1119.8 881.612 1078.55 863.377 1078.55 840.885C1078.55 818.401 1119.8 800.167 1170.66 800.167C1221.53 800.167 1262.77 818.401 1262.77 840.885C1262.77 863.377 1221.53 881.612 1170.66 881.612Z" fill="#CC337D"/>
<path d="M1170.66 854.66C1153.46 854.66 1139.51 848.492 1139.51 840.885C1139.51 833.287 1153.46 827.119 1170.66 827.119C1187.86 827.119 1201.8 833.287 1201.8 840.885C1201.8 848.492 1187.86 854.66 1170.66 854.66Z" fill="#781D43"/>
<path d="M1170.66 518.817V362.054L1264.19 323.97V473.396L1170.66 518.817Z" fill="#4D7BC7"/>
<path d="M1170.66 518.817V362.054L1077.13 323.97V473.396L1170.66 518.817Z" fill="#5AB2E7"/>
<path d="M1170.66 354.001V844.31" stroke="#346AAD" stroke-width="41.7855" stroke-miterlimit="10"/>
<path d="M1353.71 1320.97L1495.67 1274.65C1500.51 1276.85 1506.22 1280.62 1506.77 1281.18C1513.41 1287.95 1504.85 1297.2 1515.97 1303.02C1529.69 1310.19 1563.41 1308.62 1591.3 1299.52C1592.08 1299.27 1592.84 1299.01 1593.6 1298.75C1619.8 1289.68 1630.32 1277.03 1616.99 1270.06C1608.47 1265.61 1593.8 1265.89 1581.84 1264.18C1575.66 1263.3 1569.29 1261.98 1564.3 1260.22C1563.21 1259.83 1557.86 1257.43 1554.73 1255.38L1696.86 1209.01L1964.55 1349.07L1621.41 1461.03L1510.66 1403.08C1511.09 1402.92 1511.55 1402.76 1512.03 1402.59C1517.5 1400.7 1525.39 1398.65 1526.65 1398.43C1543.17 1395.62 1565.5 1399.04 1579.77 1394.39C1597.26 1388.35 1593.69 1374.66 1572.17 1363.39C1550.42 1352 1518.53 1347.42 1500.97 1353.15C1490.07 1356.92 1490.49 1362.85 1486.27 1367.7C1484.05 1370.26 1480.79 1372.9 1476.45 1374.98C1475.93 1375.23 1473.93 1376.01 1471.41 1376.88C1469.32 1377.6 1466.87 1378.38 1464.59 1378.98L1353.71 1320.97Z" fill="#A2A9D9"/>
<path d="M1621.56 1218.03C1621.53 1215.55 1619.87 1213.3 1616.4 1211.48C1615.84 1211.19 1615.25 1210.93 1614.64 1210.68C1614.45 1210.6 1614.26 1210.54 1614.06 1210.46C1613.63 1210.3 1613.17 1210.14 1612.72 1210C1612.6 1209.96 1612.5 1209.91 1612.38 1209.88C1612.28 1209.86 1612.17 1209.83 1612.08 1209.8C1611.34 1209.59 1610.59 1209.38 1609.81 1209.2C1609.8 1209.2 1609.79 1209.19 1609.78 1209.19H1609.75C1608.96 1209.01 1608.15 1208.85 1607.32 1208.7C1607.23 1208.69 1607.14 1208.67 1607.04 1208.65C1606.93 1208.64 1606.8 1208.62 1606.69 1208.6C1605.72 1208.43 1604.72 1208.28 1603.69 1208.16C1603.67 1208.15 1603.65 1208.15 1603.61 1208.15C1603.54 1208.13 1603.44 1208.12 1603.36 1208.11C1602.31 1207.98 1601.25 1207.86 1600.17 1207.75C1600.05 1207.74 1599.94 1207.73 1599.83 1207.72C1598.71 1207.6 1597.57 1207.5 1596.43 1207.4C1596.36 1207.39 1596.29 1207.39 1596.22 1207.38C1595.31 1207.3 1594.38 1207.22 1593.47 1207.14C1592.38 1207.04 1591.3 1206.94 1590.22 1206.83C1590.03 1206.81 1589.83 1206.79 1589.64 1206.78C1588.58 1206.67 1587.54 1206.55 1586.52 1206.42C1585.99 1206.36 1585.46 1206.29 1584.93 1206.21C1583.85 1206.06 1582.78 1205.88 1581.7 1205.71C1581.51 1205.67 1581.31 1205.64 1581.12 1205.61C1580.34 1205.47 1579.55 1205.33 1578.78 1205.18C1578.76 1205.17 1578.74 1205.16 1578.72 1205.16C1577.94 1205.01 1577.17 1204.84 1576.4 1204.67C1576.15 1204.61 1575.91 1204.55 1575.66 1204.5C1575.13 1204.38 1574.61 1204.24 1574.08 1204.12C1573.84 1204.05 1573.57 1203.98 1573.33 1203.91C1572.79 1203.77 1572.26 1203.62 1571.75 1203.47C1571.55 1203.41 1571.35 1203.36 1571.15 1203.29C1570.49 1203.09 1569.85 1202.88 1569.23 1202.66C1568.26 1202.32 1563.47 1200.18 1560.66 1198.34L1561.29 1253.72C1564.1 1255.56 1568.9 1257.7 1569.86 1258.05C1570.47 1258.27 1571.12 1258.48 1571.78 1258.69C1571.83 1258.69 1571.88 1258.71 1571.93 1258.73C1572.07 1258.77 1572.23 1258.81 1572.37 1258.85C1572.89 1259.01 1573.42 1259.16 1573.97 1259.3C1574.2 1259.37 1574.45 1259.43 1574.7 1259.49C1575.24 1259.63 1575.78 1259.76 1576.32 1259.89C1576.47 1259.93 1576.62 1259.96 1576.78 1260C1576.85 1260.01 1576.93 1260.03 1577 1260.05C1577.77 1260.23 1578.56 1260.39 1579.35 1260.55L1579.36 1260.55C1580.15 1260.7 1580.95 1260.85 1581.76 1260.99C1581.83 1261.01 1581.91 1261.02 1581.98 1261.03C1582.09 1261.05 1582.2 1261.07 1582.31 1261.08C1583.4 1261.27 1584.48 1261.45 1585.56 1261.6C1586 1261.66 1586.44 1261.72 1586.89 1261.78C1586.98 1261.79 1587.06 1261.8 1587.15 1261.81C1588.17 1261.93 1589.2 1262.05 1590.25 1262.16C1590.46 1262.18 1590.67 1262.2 1590.87 1262.22C1591.93 1262.33 1592.99 1262.42 1594.05 1262.52C1594.05 1262.52 1594.07 1262.52 1594.08 1262.52C1594.79 1262.58 1595.5 1262.65 1596.19 1262.71C1596.47 1262.73 1596.75 1262.76 1597.04 1262.78C1598.19 1262.88 1599.35 1262.99 1600.49 1263.1C1600.57 1263.11 1600.66 1263.13 1600.76 1263.14C1601.84 1263.25 1602.93 1263.36 1603.98 1263.5C1604.1 1263.51 1604.21 1263.52 1604.33 1263.54C1605.34 1263.67 1606.34 1263.82 1607.32 1263.99C1607.53 1264.02 1607.74 1264.05 1607.95 1264.09C1608.79 1264.24 1609.6 1264.4 1610.39 1264.58C1611.2 1264.76 1611.96 1264.96 1612.71 1265.18C1612.92 1265.25 1613.13 1265.32 1613.34 1265.37C1613.8 1265.53 1614.26 1265.69 1614.69 1265.85C1614.89 1265.92 1615.08 1265.99 1615.27 1266.06C1615.87 1266.32 1616.46 1266.58 1617.01 1266.86C1620.5 1268.68 1622.16 1270.94 1622.19 1273.42L1621.56 1218.03Z" fill="#373D6A"/>
<path d="M1518.07 1340C1518.32 1339.95 1518.56 1339.91 1518.81 1339.88C1519.13 1339.82 1519.47 1339.76 1519.8 1339.71C1520.08 1339.67 1520.35 1339.63 1520.63 1339.59C1520.86 1339.56 1521.1 1339.53 1521.32 1339.5L1521.86 1385.91L1620.96 1437.77L1620.34 1382.39L1538.24 1339.43C1539.44 1339.54 1540.64 1339.67 1541.86 1339.83C1542.14 1339.86 1542.42 1339.9 1542.69 1339.94C1543.15 1340 1543.6 1340.06 1544.06 1340.13C1544.38 1340.17 1544.71 1340.23 1545.03 1340.28C1545.47 1340.35 1545.9 1340.42 1546.34 1340.49C1546.64 1340.54 1546.94 1340.59 1547.25 1340.65C1547.95 1340.77 1548.66 1340.9 1549.36 1341.04C1549.56 1341.08 1549.76 1341.11 1549.96 1341.16C1550.84 1341.33 1551.72 1341.53 1552.6 1341.72C1552.77 1341.76 1552.93 1341.8 1553.11 1341.84C1554.31 1342.12 1555.53 1342.42 1556.72 1342.73C1556.79 1342.75 1556.85 1342.76 1556.91 1342.78C1558.11 1343.1 1559.3 1343.45 1560.49 1343.8C1560.59 1343.83 1560.68 1343.86 1560.78 1343.89C1562.14 1344.3 1563.49 1344.75 1564.83 1345.21C1564.89 1345.24 1564.96 1345.25 1565.02 1345.28C1566.37 1345.75 1567.7 1346.26 1569.02 1346.78C1569.05 1346.79 1569.09 1346.81 1569.15 1346.83C1570.47 1347.37 1571.77 1347.92 1573.05 1348.51C1573.08 1348.52 1573.1 1348.53 1573.12 1348.54C1574.41 1349.13 1575.68 1349.75 1576.91 1350.39C1587.84 1356.12 1593.6 1362.54 1593.66 1368.02C1593.46 1349.55 1593.24 1331.09 1593.03 1312.63C1592.97 1307.15 1587.22 1300.73 1576.28 1295C1575.05 1294.36 1573.78 1293.74 1572.49 1293.15C1572.47 1293.14 1572.45 1293.13 1572.41 1293.12C1571.14 1292.54 1569.84 1291.98 1568.52 1291.44C1568.47 1291.43 1568.42 1291.41 1568.38 1291.39C1567.07 1290.87 1565.74 1290.37 1564.39 1289.9C1564.33 1289.87 1564.26 1289.85 1564.2 1289.83C1562.86 1289.36 1561.52 1288.92 1560.15 1288.51C1560.13 1288.5 1560.11 1288.49 1560.08 1288.48C1560.01 1288.46 1559.93 1288.44 1559.87 1288.42C1558.66 1288.06 1557.46 1287.72 1556.26 1287.39C1556.2 1287.38 1556.16 1287.36 1556.11 1287.35C1554.9 1287.03 1553.67 1286.73 1552.46 1286.45C1552.36 1286.43 1552.26 1286.4 1552.18 1286.38C1552.11 1286.37 1552.05 1286.35 1551.99 1286.34C1551.1 1286.14 1550.21 1285.95 1549.32 1285.77C1549.14 1285.73 1548.96 1285.7 1548.78 1285.66C1548.05 1285.52 1547.32 1285.38 1546.6 1285.26C1546.47 1285.23 1546.33 1285.21 1546.2 1285.18C1546.04 1285.16 1545.89 1285.13 1545.74 1285.11C1545.28 1285.03 1544.83 1284.96 1544.37 1284.89C1544.07 1284.84 1543.75 1284.79 1543.44 1284.75C1542.98 1284.68 1542.53 1284.61 1542.06 1284.55C1541.84 1284.53 1541.62 1284.48 1541.4 1284.46C1541.35 1284.45 1541.29 1284.44 1541.23 1284.44C1540 1284.28 1538.78 1284.15 1537.57 1284.04C1537.47 1284.03 1537.37 1284.02 1537.29 1284.01C1537.21 1284 1537.15 1284 1537.07 1284C1536.02 1283.9 1534.96 1283.83 1533.92 1283.77C1533.84 1283.77 1533.75 1283.75 1533.66 1283.75C1533.54 1283.74 1533.43 1283.74 1533.31 1283.74C1531.38 1283.65 1529.48 1283.62 1527.64 1283.65C1527.53 1283.65 1527.42 1283.65 1527.31 1283.65C1527.22 1283.65 1527.13 1283.66 1527.02 1283.66C1526.13 1283.69 1525.24 1283.72 1524.37 1283.78C1524.36 1283.78 1524.34 1283.78 1524.34 1283.78C1524.26 1283.79 1524.22 1283.79 1524.17 1283.79C1523.26 1283.85 1522.37 1283.93 1521.5 1284.02C1521.4 1284.04 1521.3 1284.04 1521.22 1284.05C1521.15 1284.06 1521.08 1284.06 1521.01 1284.08C1520.65 1284.12 1520.3 1284.16 1519.95 1284.22C1519.7 1284.25 1519.44 1284.28 1519.2 1284.32C1518.83 1284.38 1518.47 1284.44 1518.11 1284.5C1517.92 1284.54 1517.72 1284.56 1517.53 1284.59C1517.5 1284.6 1517.47 1284.61 1517.45 1284.61C1516.68 1284.75 1515.93 1284.92 1515.19 1285.1C1515.03 1285.14 1514.87 1285.18 1514.69 1285.22C1513.97 1285.42 1513.24 1285.62 1512.56 1285.84C1512 1286.03 1511.5 1286.23 1511 1286.43C1510.86 1286.5 1510.72 1286.55 1510.58 1286.62C1510.41 1286.69 1510.22 1286.76 1510.06 1286.84C1509.91 1286.91 1509.79 1286.98 1509.65 1287.05C1509.47 1287.14 1509.3 1287.22 1509.13 1287.31C1508.85 1287.45 1508.61 1287.6 1508.36 1287.75C1508.2 1287.83 1508.05 1287.92 1507.92 1288C1507.87 1288.04 1507.81 1288.07 1507.77 1288.09C1507.48 1288.29 1507.19 1288.48 1506.93 1288.67C1506.9 1288.7 1506.87 1288.73 1506.84 1288.75C1506.63 1288.91 1506.41 1289.07 1506.23 1289.23C1506.16 1289.28 1506.12 1289.33 1506.06 1289.38C1505.97 1289.47 1505.87 1289.55 1505.78 1289.63C1505.6 1289.8 1505.41 1289.98 1505.25 1290.16C1505.18 1290.23 1505.09 1290.32 1505.01 1290.4C1504.97 1290.44 1504.93 1290.48 1504.89 1290.53C1504.81 1290.62 1504.74 1290.71 1504.66 1290.8C1504.51 1290.97 1504.37 1291.14 1504.23 1291.32C1504.13 1291.44 1504.04 1291.58 1503.94 1291.71C1503.82 1291.88 1503.7 1292.05 1503.58 1292.22C1503.55 1292.28 1503.49 1292.34 1503.46 1292.39C1503.42 1292.46 1503.37 1292.53 1503.34 1292.59C1503.15 1292.88 1502.96 1293.19 1502.79 1293.48C1502.76 1293.55 1502.71 1293.61 1502.68 1293.67C1502.45 1294.08 1502.22 1294.47 1502.01 1294.87C1501.83 1295.18 1501.67 1295.48 1501.5 1295.79C1501.43 1295.9 1501.37 1296.02 1501.3 1296.13C1501.09 1296.5 1500.87 1296.86 1500.63 1297.22C1500.51 1297.41 1500.37 1297.59 1500.24 1297.78C1500.17 1297.87 1500.12 1297.96 1500.05 1298.05C1499.85 1298.32 1499.63 1298.6 1499.4 1298.87C1499.25 1299.03 1499.1 1299.19 1498.94 1299.36C1498.72 1299.61 1498.48 1299.85 1498.23 1300.1C1498.12 1300.2 1498.02 1300.3 1497.92 1300.41C1497.58 1300.72 1497.24 1301.04 1496.87 1301.35C1496.84 1301.37 1496.82 1301.4 1496.79 1301.42C1496.41 1301.75 1496 1302.07 1495.57 1302.39C1495.44 1302.47 1495.31 1302.57 1495.19 1302.66C1494.88 1302.89 1494.56 1303.11 1494.23 1303.32C1494.06 1303.43 1493.9 1303.54 1493.73 1303.64C1493.4 1303.85 1493.05 1304.06 1492.71 1304.26C1492.54 1304.35 1492.38 1304.45 1492.22 1304.54C1491.7 1304.83 1491.17 1305.11 1490.61 1305.38C1490.56 1305.39 1490.49 1305.42 1490.43 1305.45C1490.41 1305.46 1490.39 1305.47 1490.35 1305.49C1490.29 1305.51 1490.21 1305.55 1490.12 1305.58C1490.09 1305.6 1490.05 1305.61 1490.01 1305.63C1489.92 1305.66 1489.83 1305.7 1489.73 1305.74C1489.67 1305.76 1489.61 1305.78 1489.55 1305.82C1489.45 1305.85 1489.35 1305.88 1489.26 1305.92C1489.17 1305.96 1489.09 1305.99 1489 1306.03C1488.91 1306.06 1488.8 1306.09 1488.7 1306.14C1488.59 1306.18 1488.49 1306.22 1488.37 1306.26C1488.27 1306.3 1488.15 1306.35 1488.04 1306.38C1487.92 1306.43 1487.8 1306.47 1487.67 1306.51C1487.51 1306.58 1487.34 1306.64 1487.16 1306.7C1487.08 1306.73 1487 1306.76 1486.91 1306.79C1486.65 1306.88 1486.38 1306.98 1486.1 1307.08C1484.22 1307.72 1482.03 1308.42 1480 1308.95L1380.77 1257.04L1381.39 1312.42L1480.63 1364.34C1482.66 1363.81 1484.85 1363.11 1486.73 1362.46C1487.27 1362.27 1487.78 1362.09 1488.26 1361.92C1488.27 1361.92 1488.28 1361.91 1488.29 1361.91C1488.52 1361.82 1488.72 1361.75 1488.93 1361.67C1488.95 1361.66 1488.97 1361.65 1488.99 1361.65C1489.14 1361.59 1489.29 1361.54 1489.43 1361.48C1489.5 1361.46 1489.56 1361.44 1489.61 1361.41C1489.74 1361.37 1489.84 1361.33 1489.95 1361.28C1490.02 1361.26 1490.1 1361.23 1490.17 1361.2C1490.25 1361.17 1490.34 1361.13 1490.42 1361.1C1490.48 1361.07 1490.56 1361.05 1490.62 1361.02C1490.69 1360.99 1490.74 1360.97 1490.8 1360.95C1490.86 1360.92 1490.93 1360.9 1490.98 1360.87C1491.03 1360.86 1491.06 1360.84 1491.09 1360.82C1491.13 1360.8 1491.18 1360.79 1491.21 1360.77C1491.22 1360.77 1491.23 1360.76 1491.23 1360.76C1491.8 1360.49 1492.33 1360.21 1492.85 1359.92C1493.01 1359.84 1493.16 1359.74 1493.33 1359.65C1493.67 1359.45 1494.03 1359.24 1494.37 1359.03C1494.44 1358.98 1494.54 1358.93 1494.62 1358.87C1494.7 1358.82 1494.77 1358.77 1494.86 1358.71C1495.18 1358.49 1495.5 1358.27 1495.81 1358.05C1495.94 1357.96 1496.07 1357.86 1496.2 1357.77C1496.62 1357.46 1497.03 1357.14 1497.42 1356.82C1497.42 1356.81 1497.43 1356.8 1497.43 1356.8C1497.46 1356.77 1497.48 1356.75 1497.51 1356.72C1497.87 1356.42 1498.21 1356.11 1498.55 1355.8C1498.65 1355.69 1498.75 1355.59 1498.87 1355.48C1499.11 1355.23 1499.34 1355 1499.57 1354.75C1499.62 1354.7 1499.7 1354.63 1499.75 1354.56C1499.85 1354.46 1499.93 1354.35 1500.03 1354.25C1500.26 1353.98 1500.48 1353.71 1500.68 1353.43C1500.76 1353.33 1500.82 1353.23 1500.89 1353.13C1501.01 1352.97 1501.13 1352.8 1501.24 1352.63C1501.25 1352.63 1501.25 1352.62 1501.26 1352.61C1501.49 1352.25 1501.71 1351.89 1501.93 1351.52C1502 1351.41 1502.05 1351.29 1502.12 1351.18C1502.29 1350.88 1502.46 1350.57 1502.63 1350.27C1502.85 1349.86 1503.07 1349.46 1503.31 1349.05C1503.34 1349 1503.37 1348.94 1503.41 1348.88C1503.59 1348.58 1503.78 1348.27 1503.97 1347.96C1504.05 1347.85 1504.12 1347.73 1504.2 1347.61C1504.32 1347.43 1504.45 1347.27 1504.57 1347.09C1504.67 1346.96 1504.76 1346.83 1504.86 1346.7C1505 1346.53 1505.14 1346.36 1505.3 1346.19C1505.4 1346.05 1505.51 1345.91 1505.63 1345.78C1505.72 1345.7 1505.79 1345.62 1505.88 1345.53C1506.04 1345.36 1506.23 1345.19 1506.4 1345.02C1506.5 1344.93 1506.59 1344.85 1506.68 1344.77C1506.93 1344.56 1507.18 1344.35 1507.46 1344.14C1507.49 1344.11 1507.52 1344.08 1507.56 1344.06C1507.87 1343.83 1508.2 1343.61 1508.55 1343.39C1508.68 1343.3 1508.83 1343.22 1508.97 1343.13C1509.22 1342.99 1509.48 1342.84 1509.76 1342.7C1509.92 1342.61 1510.09 1342.52 1510.28 1342.44C1510.57 1342.29 1510.88 1342.14 1511.21 1342C1511.35 1341.94 1511.49 1341.88 1511.63 1341.82C1512.12 1341.62 1512.63 1341.42 1513.18 1341.22C1513.87 1341.01 1514.58 1340.8 1515.32 1340.61C1515.49 1340.57 1515.66 1340.53 1515.82 1340.48C1516.55 1340.31 1517.3 1340.15 1518.07 1340Z" fill="#3F3F85"/>
<path d="M1927.44 1282.19L1928.07 1337.57L1620.96 1437.77L1620.33 1382.39L1927.44 1282.19Z" fill="#5455AF"/>
<path d="M1380.77 1257.04L1507.81 1215.58C1512.14 1217.56 1517.25 1220.93 1517.74 1221.43C1523.69 1227.49 1516.03 1235.76 1525.99 1240.98C1538.25 1247.39 1568.43 1245.99 1593.39 1237.84C1594.08 1237.62 1594.78 1237.39 1595.45 1237.15C1618.91 1229.04 1628.32 1217.71 1616.4 1211.48C1608.77 1207.49 1595.64 1207.74 1584.93 1206.21C1579.39 1205.42 1573.71 1204.24 1569.23 1202.66C1568.26 1202.32 1563.47 1200.18 1560.66 1198.34L1687.87 1156.84L1927.44 1282.19L1620.34 1382.39L1521.23 1330.53C1521.62 1330.39 1522.03 1330.23 1522.45 1330.09C1527.35 1328.39 1534.41 1326.57 1535.54 1326.37C1550.32 1323.85 1570.31 1326.91 1583.08 1322.75C1598.73 1317.34 1595.54 1305.08 1576.28 1295C1556.81 1284.81 1528.28 1280.71 1512.56 1285.84C1502.8 1289.21 1503.18 1294.51 1499.4 1298.87C1497.41 1301.15 1494.5 1303.52 1490.61 1305.38C1490.15 1305.6 1488.36 1306.3 1486.1 1307.08C1484.22 1307.72 1482.03 1308.42 1480 1308.95L1380.77 1257.04Z" fill="#606CBD"/>
<path d="M832.403 1402.48C823.889 1398.02 809.199 1398.31 797.257 1396.6C791.061 1395.71 784.695 1394.4 779.71 1392.63C778.628 1392.24 773.265 1389.85 770.137 1387.79L912.265 1341.42L801.522 1283.47C801.97 1283.31 802.452 1283.13 802.95 1282.96C808.416 1281.07 816.267 1279.03 817.513 1278.82C834.022 1276.01 856.362 1279.42 871.213 1274.57C888.12 1268.73 884.556 1255.03 863.028 1243.78C841.273 1232.39 809.393 1227.8 791.302 1233.71C780.936 1237.3 781.352 1243.23 777.13 1248.08C774.908 1250.65 771.648 1253.29 767.306 1255.36C766.785 1255.61 764.79 1256.39 762.265 1257.26C760.173 1257.99 757.727 1258.77 755.446 1259.37L644.57 1201.35L301.42 1313.32L569.114 1453.38L711.087 1407.06C715.902 1409.27 721.618 1413.03 722.175 1413.6C728.812 1420.37 720.251 1429.61 731.379 1435.43C745.09 1442.6 778.806 1441.04 806.702 1431.93C807.486 1431.68 808.259 1431.42 809.016 1431.16C835.223 1422.1 845.718 1409.45 832.403 1402.48Z" fill="#A2A9D9"/>
<path d="M862.813 1203.06C862.815 1203.19 862.802 1203.33 862.796 1203.46C862.794 1203.6 862.788 1203.75 862.774 1203.89C862.763 1204.01 862.741 1204.13 862.724 1204.24C862.705 1204.39 862.685 1204.52 862.658 1204.66C862.63 1204.8 862.597 1204.92 862.558 1205.06C862.533 1205.16 862.508 1205.26 862.478 1205.36C862.437 1205.51 862.385 1205.64 862.331 1205.77C862.298 1205.87 862.265 1205.97 862.223 1206.06C862.198 1206.12 862.171 1206.17 862.144 1206.23C861.971 1206.61 861.778 1206.98 861.542 1207.33C861.537 1207.34 861.534 1207.36 861.528 1207.36C861.299 1207.7 861.03 1208.05 860.739 1208.37C860.693 1208.43 860.648 1208.48 860.598 1208.53C860.305 1208.85 859.981 1209.17 859.63 1209.47C859.531 1209.55 859.431 1209.64 859.331 1209.72C859.218 1209.81 859.104 1209.9 858.99 1209.98C858.861 1210.08 858.722 1210.18 858.584 1210.28C858.46 1210.36 858.335 1210.45 858.202 1210.54C858.086 1210.61 857.965 1210.69 857.842 1210.76C857.621 1210.91 857.388 1211.04 857.156 1211.18C857.031 1211.24 856.907 1211.31 856.78 1211.38C856.525 1211.51 856.26 1211.65 855.989 1211.77C855.869 1211.83 855.755 1211.89 855.634 1211.95C855.398 1212.06 855.152 1212.16 854.906 1212.26C854.771 1212.32 854.638 1212.38 854.5 1212.43C854.103 1212.59 853.699 1212.74 853.279 1212.88C851.687 1213.41 849.996 1213.82 848.233 1214.15C846.827 1214.42 845.377 1214.63 843.886 1214.79C842.466 1214.95 841.015 1215.07 839.537 1215.17C837.481 1215.29 835.375 1215.37 833.243 1215.42C828.582 1215.52 823.807 1215.49 819.162 1215.59C817.07 1215.63 815.002 1215.7 812.987 1215.83L813.616 1271.21C815.631 1271.09 817.695 1271.01 819.787 1270.97C824.435 1270.87 829.214 1270.9 833.873 1270.8C836.003 1270.75 838.109 1270.68 840.166 1270.55C841.64 1270.46 843.097 1270.33 844.513 1270.17C846.002 1270.01 847.453 1269.8 848.859 1269.54C850.625 1269.2 852.313 1268.79 853.907 1268.27C854.327 1268.13 854.737 1267.98 855.132 1267.82C855.246 1267.77 855.354 1267.72 855.468 1267.67C855.739 1267.56 856.01 1267.45 856.273 1267.33C856.298 1267.32 856.325 1267.3 856.353 1267.29C856.433 1267.25 856.506 1267.22 856.585 1267.18C856.868 1267.04 857.145 1266.91 857.41 1266.76C857.537 1266.7 857.66 1266.63 857.781 1266.56C858.017 1266.43 858.247 1266.29 858.468 1266.16C858.534 1266.11 858.611 1266.07 858.679 1266.03C858.731 1266 858.777 1265.96 858.833 1265.92C858.961 1265.84 859.088 1265.75 859.213 1265.66C859.348 1265.57 859.486 1265.47 859.616 1265.37C859.735 1265.28 859.849 1265.19 859.959 1265.11C860.029 1265.05 860.104 1264.99 860.17 1264.94C860.2 1264.91 860.225 1264.88 860.255 1264.85C860.61 1264.55 860.934 1264.24 861.227 1263.92C861.246 1263.9 861.268 1263.88 861.287 1263.86C861.318 1263.83 861.337 1263.79 861.368 1263.76C861.659 1263.43 861.927 1263.09 862.155 1262.74H862.16C862.163 1262.73 862.165 1262.73 862.169 1262.72C862.406 1262.36 862.605 1261.98 862.777 1261.61C862.79 1261.57 862.81 1261.55 862.821 1261.52C862.83 1261.5 862.838 1261.48 862.846 1261.45C862.894 1261.34 862.932 1261.24 862.973 1261.13C863.017 1261 863.062 1260.88 863.101 1260.76C863.134 1260.65 863.162 1260.54 863.192 1260.43C863.217 1260.33 863.247 1260.24 863.267 1260.15C863.276 1260.12 863.278 1260.08 863.283 1260.05C863.313 1259.91 863.336 1259.75 863.356 1259.6C863.372 1259.5 863.388 1259.39 863.4 1259.28C863.417 1259.12 863.422 1258.95 863.427 1258.79C863.43 1258.71 863.44 1258.63 863.44 1258.55C863.44 1258.52 863.44 1258.48 863.44 1258.44L862.813 1203.06Z" fill="#781D43"/>
<path d="M805.22 1216.69C805.198 1216.69 805.173 1216.7 805.148 1216.7C803.82 1216.95 796.981 1218.73 792.184 1220.39C791.742 1220.55 791.31 1220.7 790.908 1220.85L791.537 1276.24C791.941 1276.09 792.367 1275.94 792.813 1275.78C797.609 1274.12 804.45 1272.34 805.773 1272.08C805.801 1272.08 805.826 1272.07 805.849 1272.07C806.969 1271.88 808.126 1271.72 809.305 1271.59C810.708 1271.43 812.149 1271.31 813.617 1271.21L812.988 1215.83C811.519 1215.92 810.079 1216.05 808.674 1216.2C807.495 1216.33 806.344 1216.49 805.22 1216.69Z" fill="#781D43"/>
<path d="M890.644 1328.1L890.019 1272.7L762.82 1314.21L763.34 1360.3C748.569 1361.67 735.298 1360.59 728.136 1356.85C723.37 1354.36 722.639 1351.16 722.523 1347.85C722.512 1346.93 722.502 1346.02 722.491 1345.1C722.46 1342.38 722.213 1339.67 719.894 1337.3C719.399 1336.81 714.287 1333.43 709.974 1331.45L582.914 1372.91L583.542 1428.3L710.6 1386.84C714.912 1388.82 720.027 1392.19 720.522 1392.69C722.6 1394.81 723.01 1397.2 723.098 1399.64C723.11 1400.55 723.118 1401.46 723.13 1402.38C723.171 1406 723.591 1409.53 728.762 1412.23C741.033 1418.65 771.205 1417.25 796.169 1409.1C796.872 1408.88 797.564 1408.64 798.245 1408.41C814.851 1402.67 824.411 1395.31 824.341 1389.3C824.195 1376.15 824.045 1363.02 823.895 1349.87L890.644 1328.1Z" fill="#9E2E6C"/>
<path d="M853.28 1212.88L853.908 1268.27C840.617 1272.61 820.624 1269.56 805.849 1272.07C804.732 1272.27 797.709 1274.08 792.813 1275.78C792.367 1275.94 791.941 1276.09 791.537 1276.24L790.908 1220.85C791.31 1220.7 791.742 1220.55 792.184 1220.39C797.077 1218.7 804.105 1216.88 805.22 1216.69C819.993 1214.17 839.986 1217.23 853.28 1212.88Z" fill="#781D43"/>
<path d="M582.914 1372.91L343.341 1247.56L343.969 1302.95L583.543 1428.3L582.914 1372.91Z" fill="#781D43"/>
<path d="M818.543 1327.36C810.926 1323.37 797.781 1323.62 787.092 1322.09C781.545 1321.3 775.85 1320.12 771.389 1318.55C770.42 1318.19 765.62 1316.06 762.821 1314.21L890.02 1272.7L790.908 1220.85C791.31 1220.7 791.742 1220.55 792.184 1220.39C797.077 1218.7 804.105 1216.88 805.219 1216.69C819.993 1214.17 839.986 1217.23 853.28 1212.88C868.41 1207.65 865.222 1195.4 845.956 1185.33C826.487 1175.13 797.952 1171.03 781.762 1176.32C772.487 1179.53 772.855 1184.83 769.08 1189.18C767.091 1191.48 764.17 1193.83 760.288 1195.69C759.82 1195.91 758.035 1196.61 755.777 1197.39C753.906 1198.04 751.714 1198.74 749.674 1199.28L650.444 1147.35L343.341 1247.56L582.914 1372.91L709.975 1331.45C714.287 1333.43 719.399 1336.81 719.894 1337.3C725.833 1343.36 718.175 1351.64 728.136 1356.85C740.403 1363.27 770.577 1361.86 795.544 1353.72C796.247 1353.49 796.94 1353.26 797.617 1353.02C821.071 1344.91 830.46 1333.59 818.543 1327.36Z" fill="#CC337D"/>
<path d="M161.756 730.924L476.622 628.19L722.256 756.714L591.837 799.267C594.714 801.151 599.617 803.348 600.629 803.701C605.202 805.325 611.04 806.528 616.714 807.336C627.685 808.91 641.155 808.649 648.968 812.738C661.186 819.133 651.563 830.746 627.517 839.059C626.823 839.295 626.111 839.539 625.391 839.774C599.795 848.122 568.85 849.56 556.279 842.98C546.067 837.637 553.922 829.155 547.822 822.945C547.321 822.424 542.077 818.974 537.64 816.946L407.387 859.448L305.756 806.276C306.172 806.125 306.606 805.965 307.059 805.813C312.081 804.071 319.293 802.212 320.434 802.01C335.594 799.427 356.094 802.565 369.183 798.291C385.228 792.754 381.957 780.182 362.212 769.858C342.248 759.407 312.995 755.2 296.871 760.459C286.869 763.909 287.264 769.353 283.384 773.813C281.35 776.16 278.361 778.584 274.379 780.485C273.897 780.713 272.087 781.428 269.783 782.219C267.857 782.883 265.59 783.607 263.483 784.162L161.756 730.924Z" fill="#72BDEB"/>
<path d="M317.512 751.161C317.728 751.119 317.946 751.085 318.166 751.051C318.499 750.992 318.828 750.933 319.172 750.883C319.412 750.841 319.657 750.816 319.903 750.782C320.137 750.748 320.375 750.715 320.611 750.689L321.113 794.857L415.451 844.217L414.854 791.508L336.701 750.622C337.849 750.723 339.005 750.849 340.166 750.992C340.419 751.026 340.673 751.06 340.926 751.102C341.371 751.161 341.814 751.219 342.262 751.287C342.559 751.329 342.858 751.371 343.156 751.421C343.589 751.489 344.02 751.556 344.453 751.632C344.725 751.682 344.995 751.724 345.27 751.775C345.952 751.893 346.633 752.019 347.32 752.153C347.5 752.196 347.682 752.229 347.864 752.263C348.71 752.431 349.552 752.616 350.394 752.801C350.544 752.835 350.693 752.877 350.841 752.911C352.008 753.18 353.168 753.458 354.321 753.769C354.362 753.778 354.406 753.786 354.446 753.803C355.61 754.114 356.766 754.442 357.913 754.787C357.996 754.812 358.079 754.838 358.162 754.863C359.464 755.258 360.751 755.679 362.026 756.125C362.083 756.142 362.143 756.167 362.201 756.184C363.487 756.638 364.756 757.11 366.004 757.615C366.045 757.631 366.087 757.648 366.128 757.665C367.39 758.17 368.629 758.7 369.842 759.255C369.864 759.264 369.888 759.272 369.91 759.289C371.145 759.853 372.347 760.442 373.516 761.048C383.927 766.5 389.405 772.618 389.465 777.826C389.266 760.257 389.066 742.687 388.866 725.117C388.808 719.9 383.332 713.791 372.919 708.339C371.75 707.725 370.546 707.136 369.314 706.572C369.292 706.563 369.267 706.555 369.242 706.547C368.032 705.991 366.795 705.461 365.531 704.948C365.49 704.931 365.443 704.914 365.403 704.897C364.157 704.401 362.893 703.93 361.609 703.475C361.546 703.45 361.481 703.433 361.418 703.408C360.151 702.97 358.87 702.55 357.574 702.154C357.551 702.146 357.523 702.137 357.496 702.129C357.426 702.104 357.354 702.087 357.284 702.07C356.155 701.725 355.022 701.405 353.876 701.094C353.825 701.085 353.771 701.069 353.716 701.052C352.574 700.749 351.424 700.471 350.273 700.202C350.174 700.185 350.075 700.151 349.974 700.135C349.909 700.118 349.844 700.101 349.777 700.084C348.944 699.899 348.107 699.722 347.271 699.554C347.083 699.512 346.897 699.478 346.71 699.445C346.036 699.31 345.363 699.184 344.69 699.066C344.556 699.041 344.42 699.015 344.283 698.99C344.131 698.965 343.982 698.94 343.831 698.914C343.417 698.847 343.003 698.78 342.591 698.713C342.276 698.67 341.959 698.62 341.643 698.57C341.223 698.511 340.804 698.452 340.383 698.393C340.163 698.368 339.939 698.325 339.721 698.3C339.664 698.292 339.609 698.292 339.553 698.283C338.397 698.132 337.244 698.014 336.102 697.905C336.003 697.896 335.9 697.879 335.803 697.871C335.726 697.871 335.655 697.863 335.582 697.854C334.582 697.77 333.587 697.703 332.602 697.644C332.521 697.644 332.436 697.635 332.355 697.627C332.243 697.627 332.134 697.627 332.022 697.619C331.096 697.577 330.172 697.535 329.268 697.526H329.232C329.218 697.518 329.201 697.526 329.185 697.526C328.329 697.509 327.485 697.518 326.648 697.534C326.536 697.534 326.422 697.526 326.311 697.534C326.21 697.534 326.116 697.543 326.019 697.543C325.177 697.568 324.345 697.602 323.53 697.652C323.53 697.652 323.484 697.652 323.456 697.652C323.394 697.661 323.334 697.661 323.271 697.669C322.421 697.728 321.592 697.795 320.777 697.888C320.687 697.896 320.589 697.905 320.499 697.913C320.436 697.922 320.375 697.93 320.308 697.938C319.982 697.972 319.663 698.023 319.342 698.065C319.08 698.098 318.817 698.132 318.561 698.174C318.245 698.216 317.938 698.275 317.63 698.325C317.417 698.359 317.199 698.393 316.99 698.435C316.962 698.435 316.938 698.443 316.907 698.452C316.18 698.586 315.472 698.746 314.778 698.914C314.618 698.948 314.457 698.99 314.299 699.032C313.602 699.217 312.921 699.403 312.266 699.613C311.743 699.798 311.258 699.983 310.795 700.177C310.656 700.236 310.524 700.294 310.391 700.353C310.225 700.421 310.05 700.496 309.892 700.564C309.754 700.631 309.634 700.698 309.5 700.766C309.334 700.85 309.165 700.926 309.006 701.01C308.75 701.153 308.505 701.287 308.271 701.43C308.132 701.515 307.987 701.59 307.857 701.674C307.814 701.7 307.758 701.725 307.715 701.759C307.434 701.935 307.169 702.12 306.918 702.306C306.884 702.339 306.853 702.364 306.819 702.39C306.622 702.541 306.428 702.684 306.249 702.836C306.188 702.886 306.143 702.937 306.085 702.987C305.998 703.063 305.91 703.139 305.829 703.223C305.649 703.383 305.479 703.551 305.317 703.719C305.24 703.795 305.167 703.871 305.093 703.946C305.055 703.988 305.014 704.031 304.978 704.073C304.902 704.157 304.837 704.241 304.76 704.334C304.619 704.493 304.482 704.662 304.352 704.822C304.259 704.948 304.17 705.066 304.08 705.192C303.959 705.36 303.837 705.528 303.725 705.697C303.687 705.747 303.649 705.798 303.616 705.848C303.578 705.907 303.545 705.966 303.51 706.025C303.321 706.319 303.139 706.614 302.967 706.908C302.935 706.959 302.908 707.009 302.877 707.06C302.646 707.464 302.423 707.868 302.199 708.272C302.055 708.532 301.91 708.793 301.759 709.054C301.692 709.172 301.624 709.29 301.555 709.407C301.354 709.761 301.146 710.106 300.923 710.442C300.809 710.619 300.688 710.787 300.566 710.956C300.498 711.048 300.438 711.141 300.37 711.233C300.176 711.503 299.969 711.755 299.746 712.016C299.604 712.176 299.446 712.344 299.296 712.504C299.083 712.731 298.86 712.967 298.629 713.194C298.528 713.295 298.43 713.396 298.323 713.497C298.007 713.8 297.677 714.094 297.325 714.397C297.305 714.414 297.282 714.431 297.264 714.448C296.896 714.759 296.505 715.062 296.102 715.365C295.985 715.458 295.863 715.542 295.742 715.626C295.445 715.845 295.14 716.055 294.824 716.257C294.674 716.366 294.519 716.459 294.361 716.56C294.042 716.762 293.712 716.955 293.374 717.157C293.221 717.241 293.075 717.326 292.922 717.418C292.426 717.687 291.919 717.957 291.387 718.209C291.363 718.217 291.319 718.234 291.292 718.251C291.243 718.276 291.193 718.293 291.129 718.318C291.101 718.335 291.063 718.352 291.03 718.361C290.959 718.394 290.888 718.419 290.798 718.453C290.753 718.478 290.692 718.504 290.637 718.52C290.553 718.554 290.468 718.588 290.368 718.63C290.311 718.655 290.239 718.68 290.18 718.706C290.073 718.739 289.972 718.781 289.858 718.823C289.777 718.857 289.685 718.891 289.599 718.924C289.487 718.966 289.384 719 289.267 719.051C289.139 719.093 289 719.143 288.863 719.194C288.779 719.227 288.703 719.252 288.618 719.286C288.466 719.345 288.304 719.396 288.147 719.454C288.059 719.488 287.978 719.513 287.891 719.547C287.642 719.631 287.384 719.724 287.122 719.816C285.334 720.431 283.23 721.104 281.273 721.617L186.846 672.207L187.441 724.916L281.87 774.326C283.829 773.821 285.934 773.148 287.719 772.525C287.983 772.433 288.245 772.348 288.493 772.256C288.539 772.239 288.58 772.222 288.627 772.214C288.828 772.138 289.024 772.062 289.215 771.995C289.292 771.97 289.36 771.945 289.433 771.919C289.581 771.86 289.73 771.81 289.867 771.759C289.961 771.726 290.046 771.692 290.136 771.658C290.248 771.616 290.36 771.574 290.463 771.532C290.537 771.507 290.6 771.482 290.668 771.456C290.774 771.414 290.886 771.372 290.981 771.33C291.038 771.313 291.085 771.297 291.137 771.271C291.229 771.238 291.324 771.196 291.409 771.162C291.452 771.145 291.488 771.128 291.528 771.112C291.602 771.086 291.678 771.053 291.741 771.027C291.771 771.011 291.796 771.002 291.824 770.994C291.87 770.968 291.921 770.952 291.954 770.935C291.965 770.926 291.973 770.926 291.981 770.918C292.513 770.666 293.019 770.405 293.51 770.127C293.674 770.043 293.827 769.95 293.982 769.858C294.314 769.664 294.639 769.479 294.949 769.277C295.031 769.227 295.12 769.176 295.2 769.126C295.282 769.075 295.349 769.016 295.429 768.966C295.737 768.764 296.034 768.562 296.323 768.352C296.451 768.259 296.582 768.166 296.707 768.074C297.107 767.771 297.493 767.468 297.854 767.165C297.86 767.165 297.865 767.157 297.868 767.157C297.893 767.14 297.911 767.115 297.936 767.098C298.283 766.803 298.609 766.5 298.923 766.206C299.027 766.105 299.125 766.004 299.226 765.911C299.46 765.676 299.684 765.44 299.898 765.213C299.95 765.154 300.012 765.095 300.062 765.036C300.16 764.935 300.253 764.826 300.342 764.725C300.564 764.472 300.77 764.212 300.967 763.951C301.054 763.833 301.135 763.707 301.223 763.58C301.316 763.446 301.414 763.32 301.507 763.185C301.509 763.177 301.512 763.168 301.514 763.16C301.743 762.815 301.956 762.461 302.161 762.108C302.218 762.015 302.272 761.914 302.329 761.813C302.506 761.502 302.681 761.191 302.856 760.871C303.054 760.509 303.256 760.147 303.463 759.786C303.501 759.718 303.545 759.651 303.584 759.592C303.75 759.306 303.921 759.02 304.101 758.742C304.172 758.633 304.248 758.515 304.325 758.397C304.437 758.237 304.554 758.069 304.673 757.909C304.763 757.783 304.853 757.657 304.951 757.53C305.079 757.37 305.221 757.202 305.36 757.042C305.469 756.916 305.573 756.79 305.687 756.664C305.764 756.58 305.84 756.504 305.919 756.428C306.077 756.26 306.243 756.1 306.417 755.94C306.507 755.856 306.595 755.772 306.687 755.696C306.916 755.494 307.158 755.301 307.414 755.099C307.45 755.073 307.481 755.048 307.519 755.023C307.807 754.804 308.124 754.594 308.456 754.383C308.584 754.299 308.726 754.223 308.865 754.139C309.1 754.005 309.345 753.862 309.604 753.727C309.765 753.643 309.931 753.559 310.097 753.475C310.38 753.34 310.677 753.197 310.986 753.062C311.119 753.003 311.253 752.944 311.392 752.886C311.857 752.692 312.34 752.507 312.865 752.33C313.515 752.111 314.199 751.926 314.893 751.75C315.054 751.708 315.216 751.665 315.375 751.623C316.071 751.455 316.779 751.295 317.512 751.161Z" fill="#3594C8"/>
<path d="M707.733 748.847L707.136 696.138L586.073 735.636L586.566 779.501C586.525 779.509 586.487 779.509 586.449 779.518C586.188 779.543 585.926 779.568 585.665 779.585C584.7 779.669 583.737 779.745 582.787 779.804C582.691 779.812 582.595 779.821 582.502 779.821C581.806 779.863 581.11 779.905 580.42 779.93C580.162 779.947 579.906 779.955 579.644 779.964C579.123 779.98 578.605 780.006 578.091 780.014C577.897 780.023 577.711 780.023 577.521 780.023C576.303 780.048 575.104 780.056 573.929 780.039C573.771 780.039 573.618 780.031 573.46 780.031C572.479 780.014 571.514 779.98 570.571 779.938C570.498 779.93 570.424 779.93 570.351 779.922C569.465 779.88 568.603 779.821 567.756 779.745C567.541 779.728 567.33 779.711 567.121 779.686C566.396 779.619 565.684 779.543 564.99 779.459C564.907 779.45 564.82 779.442 564.739 779.425C563.987 779.333 563.256 779.223 562.543 779.097C562.357 779.072 562.177 779.038 561.995 779.004C561.326 778.887 560.673 778.752 560.037 778.609C559.947 778.592 559.853 778.575 559.762 778.558C559.629 778.525 559.501 778.491 559.37 778.457C559.021 778.373 558.677 778.289 558.342 778.197C558.168 778.155 558.001 778.104 557.828 778.054C557.544 777.978 557.26 777.894 556.982 777.801C556.824 777.751 556.67 777.7 556.513 777.65C556.241 777.557 555.974 777.465 555.716 777.372C555.565 777.313 555.418 777.263 555.271 777.204C555.004 777.103 554.742 776.993 554.486 776.884C554.366 776.833 554.241 776.783 554.124 776.732C553.758 776.564 553.401 776.396 553.066 776.219C548.523 773.838 547.831 770.792 547.721 767.628C547.714 766.77 547.703 765.92 547.694 765.061C547.662 762.461 547.433 759.878 545.215 757.614C544.751 757.143 539.883 753.929 535.766 752.052L414.855 791.508L415.452 844.217L536.362 804.761C540.483 806.646 545.35 809.852 545.814 810.332C547.804 812.36 548.19 814.648 548.273 816.979C548.28 817.829 548.289 818.679 548.3 819.529C548.341 822.987 548.733 826.353 553.663 828.928C554.001 829.105 554.355 829.273 554.721 829.441C554.84 829.492 554.966 829.542 555.091 829.601C555.341 829.711 555.601 829.812 555.866 829.913C556.012 829.971 556.165 830.03 556.315 830.081C556.573 830.182 556.841 830.274 557.114 830.367C557.265 830.417 557.418 830.468 557.577 830.51C557.664 830.544 557.745 830.569 557.833 830.594C558.029 830.653 558.236 830.712 558.432 830.771C558.601 830.813 558.767 830.863 558.94 830.914C559.267 830.998 559.604 831.082 559.943 831.166C560.084 831.2 560.22 831.234 560.368 831.267C560.39 831.276 560.411 831.284 560.435 831.284C560.493 831.301 560.558 831.309 560.615 831.326C561.259 831.461 561.923 831.595 562.605 831.722C562.703 831.738 562.79 831.755 562.891 831.772C562.967 831.789 563.049 831.797 563.128 831.806C563.85 831.932 564.584 832.041 565.344 832.142C565.358 832.142 565.371 832.142 565.371 832.142C565.437 832.151 565.497 832.159 565.551 832.168C566.259 832.252 566.99 832.336 567.734 832.403C567.841 832.412 567.938 832.428 568.048 832.437C568.14 832.445 568.244 832.445 568.342 832.454C569.193 832.529 570.056 832.588 570.944 832.639H571.002C571.059 832.647 571.122 832.647 571.179 832.647C572.125 832.698 573.092 832.723 574.076 832.74C574.174 832.748 574.272 832.748 574.37 832.757C574.42 832.757 574.468 832.757 574.518 832.757C575.693 832.765 576.889 832.765 578.107 832.74C578.207 832.74 578.301 832.74 578.398 832.74C578.497 832.731 578.598 832.731 578.698 832.723C579.205 832.715 579.723 832.698 580.241 832.672C580.497 832.664 580.755 832.656 581.015 832.647C581.75 832.614 582.495 832.572 583.241 832.529C583.283 832.521 583.321 832.521 583.364 832.521H583.372C584.331 832.462 585.299 832.378 586.274 832.294C586.531 832.277 586.781 832.252 587.037 832.227C587.894 832.151 588.755 832.067 589.621 831.966C589.724 831.957 589.832 831.949 589.938 831.932C589.973 831.932 590.011 831.924 590.046 831.924C590.848 831.831 591.655 831.739 592.461 831.629C592.598 831.612 592.733 831.587 592.87 831.57C593.548 831.478 594.221 831.385 594.903 831.284C595.205 831.242 595.51 831.192 595.813 831.141C596.332 831.065 596.846 830.981 597.361 830.897C597.702 830.847 598.043 830.779 598.381 830.72C598.866 830.636 599.351 830.552 599.836 830.468C599.964 830.443 600.092 830.426 600.22 830.401C600.332 830.375 600.441 830.35 600.552 830.333C601.864 830.081 603.177 829.82 604.483 829.534C604.657 829.5 604.829 829.458 605 829.424C606.331 829.13 607.66 828.819 608.982 828.49C609.119 828.457 609.252 828.415 609.385 828.381C610.743 828.036 612.094 827.674 613.439 827.296C613.518 827.27 613.596 827.245 613.675 827.22C615.071 826.816 616.453 826.395 617.817 825.949C618.488 825.731 619.146 825.512 619.791 825.293C620.709 824.973 621.598 824.645 622.469 824.325C622.767 824.207 623.057 824.098 623.351 823.98C623.917 823.761 624.478 823.543 625.024 823.324C625.351 823.189 625.664 823.055 625.98 822.92C626.485 822.71 626.975 822.499 627.46 822.289C627.766 822.154 628.07 822.02 628.365 821.877C628.548 821.801 628.739 821.717 628.915 821.633C629.221 821.49 629.507 821.346 629.804 821.203C630.062 821.077 630.327 820.951 630.583 820.825C631.117 820.556 631.636 820.295 632.143 820.025C632.306 819.933 632.48 819.849 632.639 819.765C633.297 819.403 633.928 819.049 634.532 818.688C634.691 818.595 634.835 818.502 634.988 818.41C635.345 818.191 635.708 817.972 636.045 817.753C636.113 817.711 636.171 817.669 636.236 817.619C636.678 817.333 637.092 817.047 637.504 816.752C637.686 816.626 637.88 816.491 638.054 816.365C638.623 815.944 639.165 815.524 639.664 815.103L639.673 815.094C640.108 814.733 640.512 814.362 640.894 813.992C641.016 813.874 641.123 813.757 641.24 813.639C641.442 813.437 641.651 813.235 641.834 813.033C641.883 812.974 641.921 812.924 641.97 812.865C642.063 812.764 642.145 812.663 642.232 812.562C642.45 812.301 642.652 812.04 642.839 811.788C642.919 811.678 643.001 811.569 643.07 811.468C643.115 811.4 643.164 811.342 643.202 811.283C643.382 811.005 643.543 810.736 643.687 810.466C643.714 810.424 643.731 810.382 643.758 810.332C643.856 810.147 643.954 809.953 644.036 809.768C644.087 809.65 644.128 809.532 644.172 809.415C644.194 809.356 644.222 809.288 644.244 809.23C644.338 808.96 644.423 808.691 644.48 808.43C644.494 808.371 644.496 808.321 644.507 808.262C644.521 808.203 644.527 808.152 644.537 808.094C644.586 807.791 644.621 807.488 644.621 807.193C644.621 807.16 644.621 807.134 644.621 807.101C644.483 794.597 644.341 782.084 644.199 769.58L707.733 748.847Z" fill="#5AB2E7"/>
<path d="M186.846 672.206L479.123 576.836L707.135 696.138L586.072 735.636C588.742 737.394 593.295 739.431 594.231 739.759C598.477 741.265 603.896 742.384 609.164 743.133C619.349 744.589 631.852 744.353 639.105 748.148C650.444 754.08 641.514 764.859 619.193 772.576C618.547 772.803 617.888 773.021 617.221 773.24C593.457 780.99 564.735 782.328 553.065 776.219C543.587 771.263 550.876 763.387 545.214 757.614C544.75 757.143 539.882 753.929 535.765 752.052L414.854 791.508L320.514 742.148C320.9 742.005 321.304 741.862 321.723 741.719C326.386 740.104 333.08 738.37 334.14 738.185C348.212 735.795 367.239 738.698 379.392 734.735C394.283 729.594 391.248 717.931 372.919 708.339C354.389 698.637 327.234 694.732 312.266 699.613C302.984 702.819 303.349 707.867 299.746 712.016C297.86 714.195 295.083 716.442 291.387 718.209C290.94 718.419 289.258 719.076 287.122 719.816C285.334 720.43 283.23 721.104 281.273 721.617L186.846 672.206Z" fill="#89BFEA"/>
<path d="M2140.26 655.403L1999.61 609.518C1994.83 611.697 1989.18 615.433 1988.62 615.989C1982.05 622.695 1990.52 631.859 1979.5 637.623C1965.92 644.733 1932.52 643.176 1904.88 634.156C1904.1 633.904 1903.34 633.651 1902.59 633.39C1876.62 624.412 1866.23 611.874 1879.41 604.974C1887.85 600.556 1902.41 600.834 1914.23 599.143C1920.38 598.268 1926.68 596.963 1931.61 595.213C1932.69 594.835 1938 592.462 1941.09 590.425L1800.29 544.473L1690.45 601.953C1688.17 601.364 1685.73 600.582 1683.64 599.858C1681.17 599 1679.21 598.234 1678.7 597.99C1674.39 595.928 1671.17 593.32 1668.96 590.787C1664.77 585.966 1665.2 580.092 1654.93 576.541C1636.99 570.685 1605.43 575.229 1583.85 586.504C1562.54 597.662 1559.01 611.235 1575.76 617.024C1590.47 621.829 1612.6 618.437 1628.95 621.231C1630.19 621.441 1637.96 623.453 1643.38 625.329C1643.87 625.506 1644.35 625.674 1644.81 625.842L1535.07 683.247L1875.05 794.167L2140.26 655.403Z" fill="#72BDEB"/>
<path d="M1871.61 550.128C1871.64 547.578 1873.34 545.264 1876.91 543.396C1877.49 543.093 1878.09 542.833 1878.71 542.58C1878.91 542.496 1879.12 542.42 1879.31 542.345C1879.76 542.176 1880.21 542.016 1880.69 541.873C1880.8 541.831 1880.91 541.789 1881.03 541.747C1881.14 541.722 1881.24 541.697 1881.35 541.663C1882.1 541.444 1882.87 541.234 1883.68 541.057C1883.69 541.049 1883.7 541.049 1883.71 541.04H1883.72C1884.53 540.855 1885.37 540.695 1886.21 540.544C1886.32 540.527 1886.41 540.502 1886.52 540.485C1886.64 540.468 1886.77 540.451 1886.9 540.434C1887.89 540.266 1888.89 540.115 1889.94 539.98C1889.97 539.98 1890 539.972 1890.03 539.963C1890.14 539.955 1890.25 539.946 1890.36 539.93C1891.39 539.803 1892.43 539.686 1893.49 539.576C1893.63 539.559 1893.76 539.543 1893.9 539.534C1895.04 539.416 1896.18 539.315 1897.33 539.214C1897.39 539.206 1897.46 539.197 1897.52 539.189C1897.78 539.172 1898.04 539.147 1898.3 539.122C1899.07 539.054 1899.84 538.987 1900.61 538.92C1901.69 538.827 1902.76 538.726 1903.82 538.617C1904.03 538.6 1904.25 538.583 1904.47 538.558C1905.52 538.449 1906.57 538.331 1907.6 538.205C1908.16 538.129 1908.7 538.062 1909.24 537.986C1910.35 537.826 1911.46 537.649 1912.57 537.464C1912.78 537.422 1912.99 537.388 1913.19 537.355C1914 537.22 1914.79 537.069 1915.58 536.917C1915.6 536.909 1915.62 536.909 1915.64 536.9C1916.45 536.74 1917.24 536.572 1918.03 536.395C1918.27 536.336 1918.51 536.278 1918.76 536.227C1919.3 536.101 1919.84 535.966 1920.38 535.832C1920.64 535.764 1920.91 535.697 1921.17 535.621C1921.7 535.478 1922.22 535.335 1922.73 535.184C1922.95 535.116 1923.18 535.058 1923.38 534.99C1924.07 534.78 1924.73 534.561 1925.37 534.342C1926.38 533.989 1931.29 531.776 1934.17 529.891L1933.53 586.799C1930.65 588.692 1925.73 590.897 1924.73 591.25C1924.09 591.477 1923.41 591.696 1922.72 591.906C1922.68 591.923 1922.63 591.94 1922.58 591.957C1922.44 591.999 1922.27 592.041 1922.13 592.083C1921.6 592.243 1921.06 592.394 1920.51 592.537C1920.26 592.613 1920 592.672 1919.74 592.739C1919.2 592.882 1918.67 593.009 1918.12 593.135C1917.96 593.177 1917.79 593.219 1917.63 593.261C1917.54 593.278 1917.46 593.295 1917.37 593.312C1916.6 593.488 1915.81 593.657 1915.02 593.808C1914.98 593.816 1914.95 593.825 1914.91 593.833C1914.14 593.985 1913.34 594.128 1912.56 594.262C1912.48 594.279 1912.39 594.296 1912.29 594.313C1912.16 594.338 1912.04 594.355 1911.91 594.372C1910.8 594.565 1909.7 594.742 1908.59 594.894C1908.15 594.961 1907.69 595.02 1907.22 595.087C1907.14 595.095 1907.03 595.104 1906.94 595.121C1905.92 595.247 1904.88 595.365 1903.84 595.466C1903.6 595.491 1903.37 595.516 1903.13 595.533C1902.11 595.642 1901.07 595.735 1900.03 595.828C1900 595.828 1899.97 595.836 1899.94 595.836C1899.2 595.903 1898.48 595.962 1897.74 596.029C1897.37 596.063 1897 596.097 1896.63 596.13C1895.5 596.231 1894.38 596.332 1893.25 596.442C1893.12 596.459 1892.99 596.475 1892.84 596.484C1891.79 596.593 1890.74 596.711 1889.72 596.846C1889.58 596.863 1889.43 596.879 1889.29 596.896C1888.24 597.031 1887.23 597.182 1886.24 597.351C1886.02 597.384 1885.8 597.418 1885.59 597.46C1884.73 597.611 1883.88 597.771 1883.08 597.956C1883.07 597.956 1883.06 597.956 1883.06 597.965C1882.24 598.15 1881.46 598.36 1880.71 598.579C1880.48 598.646 1880.27 598.714 1880.04 598.781C1879.57 598.933 1879.12 599.092 1878.66 599.261C1878.47 599.336 1878.26 599.412 1878.06 599.488C1877.45 599.74 1876.84 600.01 1876.27 600.304C1872.7 602.172 1870.99 604.495 1870.97 607.044L1871.61 550.128Z" fill="#114985"/>
<path d="M1584.95 603.763C1584.91 603.653 1584.88 603.544 1584.86 603.434C1584.83 603.342 1584.79 603.241 1584.77 603.148C1584.77 603.115 1584.77 603.081 1584.76 603.047C1584.73 602.896 1584.71 602.744 1584.69 602.593C1584.66 602.483 1584.65 602.366 1584.64 602.256C1584.62 602.096 1584.62 601.937 1584.61 601.777C1584.61 601.692 1584.6 601.6 1584.6 601.507C1584.6 601.465 1584.6 601.432 1584.6 601.39L1585.24 544.473C1585.24 544.608 1585.25 544.734 1585.26 544.869C1585.26 545.029 1585.27 545.189 1585.28 545.34C1585.29 545.458 1585.32 545.567 1585.33 545.685C1585.36 545.828 1585.37 545.98 1585.4 546.131C1585.44 546.266 1585.47 546.392 1585.5 546.527C1585.53 546.636 1585.55 546.745 1585.59 546.855C1585.63 546.989 1585.68 547.124 1585.73 547.259C1585.77 547.36 1585.8 547.469 1585.85 547.57C1585.88 547.621 1585.9 547.671 1585.92 547.73C1586.11 548.117 1586.3 548.504 1586.55 548.883C1586.55 548.883 1586.56 548.891 1586.56 548.9C1586.8 549.253 1587.07 549.606 1587.38 549.943C1587.42 549.993 1587.46 550.052 1587.52 550.111C1587.82 550.439 1588.16 550.759 1588.52 551.07C1588.61 551.155 1588.71 551.239 1588.82 551.323C1588.93 551.415 1589.05 551.508 1589.17 551.601C1589.31 551.702 1589.45 551.803 1589.59 551.904C1589.72 551.988 1589.85 552.08 1589.97 552.164C1590.1 552.248 1590.23 552.324 1590.36 552.408C1590.58 552.543 1590.82 552.686 1591.06 552.821C1591.19 552.888 1591.31 552.964 1591.44 553.031C1591.71 553.174 1592 553.317 1592.28 553.452C1592.39 553.502 1592.5 553.561 1592.61 553.612C1592.87 553.729 1593.14 553.839 1593.42 553.957C1593.54 554.007 1593.66 554.066 1593.78 554.117C1594.19 554.276 1594.6 554.428 1595.04 554.579C1595.87 554.857 1596.74 555.093 1597.63 555.311C1597.93 555.387 1598.24 555.446 1598.54 555.513C1599.14 555.648 1599.75 555.791 1600.38 555.9C1600.54 555.934 1600.71 555.959 1600.88 555.985C1601.57 556.111 1602.29 556.22 1603.02 556.321C1603.31 556.363 1603.59 556.397 1603.88 556.431C1604.57 556.515 1605.24 556.59 1605.93 556.658C1606.16 556.683 1606.38 556.708 1606.62 556.725C1607.51 556.801 1608.42 556.876 1609.33 556.927C1609.91 556.969 1610.49 556.986 1611.07 557.02C1611.56 557.045 1612.04 557.07 1612.53 557.087C1613.13 557.112 1613.73 557.12 1614.32 557.137C1614.81 557.154 1615.28 557.171 1615.78 557.179C1616.92 557.205 1618.07 557.221 1619.23 557.238H1619.33C1620.68 557.247 1622.05 557.264 1623.41 557.272C1624.27 557.28 1625.14 557.28 1626.01 557.289C1626.44 557.297 1626.87 557.306 1627.29 557.314C1628.03 557.322 1628.77 557.331 1629.5 557.348C1629.69 557.348 1629.88 557.348 1630.07 557.356C1630.39 557.356 1630.71 557.373 1631.02 557.381C1631.59 557.398 1632.15 557.415 1632.71 557.432C1633.23 557.449 1633.74 557.474 1634.26 557.499C1634.8 557.524 1635.33 557.55 1635.87 557.575C1636.05 557.592 1636.23 557.592 1636.42 557.609C1637.01 557.642 1637.61 557.693 1638.2 557.735C1638.32 557.752 1638.45 557.752 1638.55 557.768C1639.33 557.827 1640.1 557.903 1640.84 557.987C1640.93 557.996 1641.03 558.012 1641.12 558.029C1642.23 558.156 1643.35 558.307 1644.43 558.492C1644.45 558.492 1644.48 558.501 1644.51 558.509C1644.54 558.509 1644.59 558.526 1644.63 558.526C1644.68 558.534 1644.72 558.551 1644.77 558.559C1644.85 558.576 1644.92 558.593 1645.01 558.61C1645.07 558.627 1645.13 558.635 1645.2 558.652C1645.29 558.677 1645.4 558.702 1645.51 558.728C1645.59 558.745 1645.65 558.761 1645.74 558.787C1645.86 558.812 1645.99 558.845 1646.13 558.879C1646.21 558.904 1646.28 558.921 1646.37 558.938C1646.52 558.98 1646.67 559.014 1646.83 559.056C1646.92 559.081 1647.01 559.106 1647.11 559.132C1647.27 559.174 1647.44 559.216 1647.62 559.258C1647.71 559.283 1647.81 559.308 1647.92 559.342C1648.1 559.384 1648.29 559.443 1648.47 559.493C1648.59 559.519 1648.69 559.544 1648.8 559.578C1648.98 559.628 1649.18 559.679 1649.37 559.729C1649.49 559.763 1649.62 559.796 1649.74 559.83C1649.93 559.88 1650.11 559.931 1650.3 559.982C1650.44 560.024 1650.59 560.066 1650.73 560.108C1650.91 560.158 1651.09 560.209 1651.27 560.259C1651.42 560.31 1651.59 560.352 1651.75 560.394C1651.92 560.453 1652.11 560.503 1652.29 560.554C1652.46 560.604 1652.61 560.646 1652.78 560.697C1652.95 560.756 1653.15 560.806 1653.32 560.865C1653.5 560.907 1653.65 560.958 1653.81 561.008C1654 561.059 1654.18 561.117 1654.37 561.176C1654.53 561.227 1654.69 561.277 1654.85 561.328C1655.04 561.378 1655.21 561.437 1655.4 561.496C1655.56 561.547 1655.72 561.597 1655.87 561.648C1656.07 561.706 1656.25 561.774 1656.45 561.833C1656.59 561.883 1656.73 561.925 1656.87 561.967C1657.19 562.077 1657.51 562.186 1657.82 562.296C1658.27 562.455 1658.72 562.607 1659.13 562.767L1658.49 619.674C1658.08 619.523 1657.63 619.363 1657.18 619.203C1656.86 619.102 1656.55 618.993 1656.22 618.884C1656.11 618.85 1656 618.816 1655.91 618.774C1655.68 618.707 1655.45 618.631 1655.22 618.564C1655.09 618.522 1654.96 618.48 1654.83 618.437C1654.63 618.37 1654.42 618.303 1654.2 618.236C1654.06 618.194 1653.91 618.143 1653.77 618.101C1653.56 618.042 1653.37 617.983 1653.17 617.916C1653.02 617.874 1652.87 617.832 1652.72 617.781C1652.52 617.722 1652.33 617.663 1652.13 617.613C1651.97 617.562 1651.82 617.52 1651.65 617.47C1651.47 617.419 1651.28 617.36 1651.1 617.31C1650.95 617.268 1650.8 617.226 1650.63 617.175C1650.45 617.125 1650.26 617.074 1650.09 617.024C1649.94 616.982 1649.8 616.94 1649.65 616.898C1649.47 616.847 1649.29 616.797 1649.11 616.746C1648.95 616.704 1648.8 616.662 1648.64 616.62C1648.48 616.578 1648.33 616.536 1648.19 616.502C1648.03 616.46 1647.88 616.418 1647.72 616.376C1647.58 616.334 1647.44 616.3 1647.3 616.258C1647.16 616.224 1647.03 616.191 1646.89 616.157C1646.76 616.115 1646.62 616.081 1646.49 616.048C1646.37 616.014 1646.25 615.989 1646.13 615.955C1646 615.922 1645.87 615.888 1645.75 615.863C1645.64 615.829 1645.53 615.804 1645.43 615.779C1645.33 615.753 1645.22 615.728 1645.12 615.703C1645.01 615.678 1644.92 615.652 1644.83 615.635C1644.74 615.61 1644.65 615.593 1644.57 615.577C1644.49 615.551 1644.43 615.534 1644.35 615.526C1644.27 615.501 1644.2 615.492 1644.13 615.476C1644.08 615.459 1644.02 615.45 1643.98 615.442C1643.9 615.425 1643.83 615.408 1643.77 615.4C1642.7 615.215 1641.59 615.072 1640.46 614.937C1639.63 614.836 1638.78 614.752 1637.93 614.676C1637.78 614.668 1637.63 614.659 1637.49 614.651C1636.74 614.592 1635.98 614.533 1635.21 614.491C1634.69 614.457 1634.16 614.441 1633.63 614.415C1633.1 614.39 1632.58 614.365 1632.05 614.348C1631.51 614.323 1630.96 614.314 1630.4 614.298C1629.88 614.281 1629.36 614.264 1628.84 614.256C1628.13 614.247 1627.41 614.23 1626.69 614.222C1626.25 614.213 1625.8 614.213 1625.35 614.205C1624.49 614.197 1623.63 614.188 1622.78 614.188C1621.65 614.18 1620.53 614.163 1619.4 614.155C1619.12 614.155 1618.84 614.154 1618.55 614.146C1617.42 614.138 1616.28 614.121 1615.15 614.096C1615.09 614.096 1615.04 614.096 1614.98 614.096C1614.51 614.079 1614.04 614.062 1613.57 614.054C1613.01 614.037 1612.45 614.02 1611.89 614.003C1611.38 613.978 1610.88 613.953 1610.37 613.927C1609.82 613.902 1609.25 613.877 1608.7 613.843C1608.64 613.843 1608.57 613.835 1608.52 613.835C1607.65 613.776 1606.8 613.708 1605.96 613.641C1605.74 613.616 1605.53 613.599 1605.32 613.574C1604.89 613.532 1604.47 613.498 1604.05 613.448C1603.77 613.422 1603.51 613.38 1603.24 613.347C1602.95 613.305 1602.66 613.271 1602.37 613.237C1601.65 613.136 1600.94 613.027 1600.24 612.901C1600.06 612.867 1599.89 612.85 1599.73 612.817C1599.67 612.808 1599.63 612.8 1599.59 612.791C1599 612.682 1598.44 612.547 1597.87 612.421C1597.58 612.354 1597.27 612.303 1596.99 612.228C1596.1 612.009 1595.23 611.765 1594.4 611.495C1593.96 611.344 1593.55 611.184 1593.14 611.024C1593 610.974 1592.87 610.907 1592.73 610.848C1592.47 610.747 1592.22 610.637 1591.98 610.528C1591.95 610.511 1591.91 610.503 1591.88 610.486C1591.79 610.444 1591.71 610.402 1591.61 610.351C1591.34 610.216 1591.07 610.082 1590.8 609.947C1590.67 609.871 1590.54 609.804 1590.41 609.728C1590.17 609.594 1589.94 609.459 1589.72 609.316C1589.65 609.274 1589.57 609.232 1589.49 609.19C1589.44 609.148 1589.39 609.114 1589.33 609.072C1589.2 608.988 1589.08 608.904 1588.95 608.82C1588.81 608.719 1588.67 608.609 1588.53 608.508C1588.41 608.416 1588.29 608.332 1588.18 608.239C1588.12 608.18 1588.03 608.13 1587.96 608.062C1587.93 608.037 1587.9 608.003 1587.87 607.978C1587.51 607.667 1587.17 607.347 1586.87 607.019C1586.86 607.002 1586.82 606.985 1586.81 606.96C1586.78 606.926 1586.76 606.893 1586.73 606.859C1586.43 606.514 1586.16 606.169 1585.92 605.816L1585.91 605.807C1585.91 605.799 1585.91 605.79 1585.9 605.782C1585.66 605.42 1585.47 605.041 1585.28 604.654C1585.27 604.621 1585.25 604.587 1585.23 604.553C1585.22 604.528 1585.22 604.503 1585.21 604.478C1585.16 604.377 1585.13 604.276 1585.09 604.175C1585.03 604.04 1584.99 603.906 1584.95 603.763Z" fill="#114985"/>
<path d="M1557.29 616.048L1556.63 672.964L1872.23 775.933L1872.87 719.017L1557.29 616.048Z" fill="#275CA4"/>
<path d="M1872.87 719.017L1872.23 775.933L2118.41 647.123L2119.05 590.215L1872.87 719.017Z" fill="#114985"/>
<path d="M2119.05 590.215L1988.48 547.612C1984.04 549.64 1978.8 553.107 1978.29 553.62C1972.18 559.847 1980.06 568.354 1969.83 573.706C1957.22 580.303 1926.2 578.855 1900.55 570.491C1899.83 570.256 1899.13 570.012 1898.42 569.776C1874.32 561.437 1864.67 549.8 1876.91 543.396C1884.75 539.298 1898.25 539.559 1909.24 537.986C1914.94 537.17 1920.79 535.966 1925.37 534.342C1926.38 533.989 1931.29 531.776 1934.17 529.891L1803.47 487.237L1701.51 540.594C1699.39 540.039 1697.12 539.315 1695.19 538.651C1692.89 537.851 1691.08 537.144 1690.6 536.917C1686.6 535.007 1683.6 532.575 1681.56 530.227C1677.68 525.751 1678.07 520.298 1668.53 517.008C1651.89 511.564 1622.58 515.788 1602.56 526.256C1582.77 536.614 1579.5 549.202 1595.04 554.579C1608.7 559.039 1629.23 555.9 1644.43 558.492C1645.58 558.686 1652.78 560.554 1657.82 562.295C1658.27 562.455 1658.72 562.607 1659.13 562.767L1557.29 616.048L1872.87 719.017L2119.05 590.215Z" fill="#346AAD"/>
</svg>
