<svg width="4947" height="4947" viewBox="0 0 4947 4947" fill="none" xmlns="http://www.w3.org/2000/svg">
<rect width="4947" height="4947" fill="#1E1E1E"/>
<g clip-path="url(#clip0_0_1)">
<path d="M0 4946.67H4946.67V0.000132084H0V4946.67Z" fill="black"/>
<mask id="mask0_0_1" style="mask-type:luminance" maskUnits="userSpaceOnUse" x="727" y="704" width="3551" height="3636">
<path d="M2333.6 4340C2245.28 4340 2157.64 4333.41 2071.31 4319.92C2001.36 4308.99 1865.57 4286.36 1705.96 4223.01H2985.63C2773.92 4299.56 2552.07 4340 2333.6 4340ZM3229.87 4116.24L3233.21 3884.97H3582.49C3472.91 3974.51 3354.33 4051.91 3229.87 4116.24ZM4176.47 3033.39C4114.23 2973.55 4036.43 2930.52 3949.97 2911.35C4028.65 2695.63 4069.93 2426.16 4035.39 2092.53C4032.69 2066.55 4011.53 2046.32 3985.45 2044.88C3896.29 2039.99 3688.49 2021.57 3496.97 1953.29C3303.81 1771.32 3046.11 1660.2 2763.11 1660.2C2727.24 1660.2 2691.83 1661.99 2656.85 1665.47L2687.52 1594.85C2728.03 1588.64 2767.83 1575.92 2805.27 1556.53L2880.87 1600.95C2882 1601.61 2883.27 1601.93 2884.52 1601.93C2886.2 1601.93 2887.87 1601.35 2889.2 1600.2L2969.17 1531.8C2971.51 1529.8 2972.32 1526.53 2971.2 1523.68L2939.04 1442.11C2963.97 1408.12 2982.71 1370.76 2995.12 1331.72L3080.04 1309.65C3083.01 1308.88 3085.17 1306.29 3085.41 1303.23L3093.59 1198.32C3093.83 1195.25 3092.09 1192.37 3089.27 1191.15L3008.8 1156.19C3002.59 1115.69 2989.87 1075.89 2970.48 1038.44L3014.89 962.84C3016.45 960.187 3016.15 956.84 3014.15 954.507L2945.75 874.534C2944.35 872.907 2942.33 872.013 2940.27 872.013C2939.37 872.013 2938.48 872.174 2937.63 872.52L2856.05 904.68C2822.07 879.733 2784.72 861 2745.67 848.587L2723.6 763.68C2722.83 760.693 2720.25 758.547 2717.19 758.307L2612.27 750.134C2612.08 750.107 2611.89 750.107 2611.71 750.107C2608.85 750.107 2606.24 751.8 2605.09 754.44L2570.13 834.907C2529.64 841.134 2489.84 853.853 2452.4 873.227L2376.8 828.813C2375.65 828.147 2374.4 827.827 2373.15 827.827C2371.47 827.827 2369.8 828.413 2368.45 829.56L2288.49 897.96C2286.15 899.96 2285.33 903.227 2286.47 906.093L2318.63 987.654C2293.68 1021.65 2274.96 1058.99 2262.55 1098.04L2177.63 1120.11C2174.65 1120.88 2172.49 1123.47 2172.25 1126.53L2164.08 1231.45C2163.84 1234.51 2165.57 1237.39 2168.4 1238.61L2248.87 1273.57C2255.08 1314.07 2267.8 1353.87 2287.17 1391.32L2242.77 1466.92C2241.21 1469.57 2241.51 1472.92 2243.51 1475.25L2311.92 1555.23C2313.31 1556.85 2315.33 1557.75 2317.39 1557.75C2318.28 1557.75 2319.17 1557.59 2320.04 1557.24L2401.6 1525.08C2435.6 1550.03 2472.95 1568.76 2511.99 1581.17L2534.07 1666.08C2534.83 1669.07 2537.41 1671.21 2540.48 1671.45L2585.79 1674.99C2160.65 1746.65 1818.79 2071.72 1712.57 2493.88C1703.16 2531.29 1670.51 2554.83 1635.67 2554.83C1624.09 2554.83 1612.27 2552.23 1600.97 2546.67C1511.25 2502.55 1410.77 2477.81 1304.62 2477.81C1249.29 2477.81 1192.4 2484.55 1134.73 2498.73C968.819 2539.57 827.019 2643.25 734.559 2783.97C700.556 2365.35 792.648 1926.08 1026.41 1560.17C1373.05 1017.57 1987.95 704.36 2579.71 704.36C2594.21 704.36 2608.64 704.547 2623.12 704.92C2753.43 708.32 3252.79 729.24 3691.65 1096.41C3756.11 1150.35 3898.28 1278.49 4026.41 1481.8C4303.91 1922.09 4347.47 2522.11 4176.47 3033.39ZM3279.95 1654.25C3297.41 1667.07 3316.6 1676.68 3336.65 1683.07L3347.99 1726.68C3348.39 1728.21 3349.71 1729.32 3351.29 1729.44L3405.19 1733.64C3405.28 1733.64 3405.37 1733.65 3405.47 1733.65C3406.93 1733.65 3408.28 1732.79 3408.87 1731.43L3426.83 1690.09C3447.63 1686.89 3468.07 1680.36 3487.31 1670.4L3526.15 1693.21C3526.72 1693.56 3527.37 1693.73 3528.01 1693.73C3528.88 1693.73 3529.73 1693.43 3530.43 1692.84L3571.49 1657.69C3572.71 1656.67 3573.12 1655 3572.53 1653.53L3556.01 1611.63C3568.83 1594.16 3578.45 1574.99 3584.83 1554.92L3628.45 1543.59C3629.97 1543.19 3631.08 1541.87 3631.21 1540.29L3635.41 1486.4C3635.53 1484.83 3634.64 1483.35 3633.19 1482.71L3591.85 1464.76C3588.67 1443.95 3582.13 1423.51 3572.17 1404.27L3594.99 1365.44C3595.79 1364.08 3595.63 1362.36 3594.61 1361.16L3559.47 1320.08C3558.75 1319.24 3557.71 1318.79 3556.65 1318.79C3556.2 1318.79 3555.73 1318.87 3555.29 1319.04L3513.4 1335.56C3495.93 1322.75 3476.75 1313.12 3456.69 1306.75L3445.36 1263.13C3444.96 1261.6 3443.64 1260.49 3442.05 1260.37L3388.16 1256.17C3388.07 1256.16 3387.97 1256.16 3387.87 1256.16C3386.41 1256.16 3385.07 1257.03 3384.48 1258.39L3366.52 1299.72C3345.72 1302.92 3325.28 1309.45 3306.04 1319.4L3267.2 1296.59C3266.63 1296.25 3265.97 1296.08 3265.33 1296.08C3264.47 1296.08 3263.61 1296.39 3262.92 1296.97L3221.84 1332.11C3220.64 1333.13 3220.23 1334.81 3220.81 1336.28L3237.33 1378.19C3224.52 1395.64 3214.89 1414.83 3208.52 1434.89L3164.89 1446.23C3163.37 1446.63 3162.27 1447.95 3162.13 1449.52L3157.93 1503.41C3157.81 1504.99 3158.71 1506.47 3160.16 1507.09L3201.49 1525.05C3204.68 1545.85 3211.21 1566.31 3221.17 1585.53L3198.36 1624.37C3197.56 1625.73 3197.72 1627.45 3198.73 1628.65L3233.88 1669.73C3234.6 1670.57 3235.63 1671.03 3236.69 1671.03C3237.15 1671.03 3237.61 1670.95 3238.05 1670.77L3279.95 1654.25Z" fill="white"/>
</mask>
<g mask="url(#mask0_0_1)">
<path d="M2333.6 4340C2245.28 4340 2157.64 4333.41 2071.31 4319.92C2001.36 4308.99 1865.57 4286.36 1705.96 4223.01H2985.63C2773.92 4299.56 2552.07 4340 2333.6 4340ZM3229.87 4116.24L3233.21 3884.97H3582.49C3472.91 3974.51 3354.33 4051.91 3229.87 4116.24ZM4176.47 3033.39C4114.23 2973.55 4036.43 2930.52 3949.97 2911.35C4028.65 2695.63 4069.93 2426.16 4035.39 2092.53C4032.69 2066.55 4011.53 2046.32 3985.45 2044.88C3896.29 2039.99 3688.49 2021.57 3496.97 1953.29C3303.81 1771.32 3046.11 1660.2 2763.11 1660.2C2727.24 1660.2 2691.83 1661.99 2656.85 1665.47L2687.52 1594.85C2728.03 1588.64 2767.83 1575.92 2805.27 1556.53L2880.87 1600.95C2882 1601.61 2883.27 1601.93 2884.52 1601.93C2886.2 1601.93 2887.87 1601.35 2889.2 1600.2L2969.17 1531.8C2971.51 1529.8 2972.32 1526.53 2971.2 1523.68L2939.04 1442.11C2963.97 1408.12 2982.71 1370.76 2995.12 1331.72L3080.04 1309.65C3083.01 1308.88 3085.17 1306.29 3085.41 1303.23L3093.59 1198.32C3093.83 1195.25 3092.09 1192.37 3089.27 1191.15L3008.8 1156.19C3002.59 1115.69 2989.87 1075.89 2970.48 1038.44L3014.89 962.84C3016.45 960.187 3016.15 956.84 3014.15 954.507L2945.75 874.534C2944.35 872.907 2942.33 872.013 2940.27 872.013C2939.37 872.013 2938.48 872.174 2937.63 872.52L2856.05 904.68C2822.07 879.733 2784.72 861 2745.67 848.587L2723.6 763.68C2722.83 760.693 2720.25 758.547 2717.19 758.307L2612.27 750.134C2612.08 750.107 2611.89 750.107 2611.71 750.107C2608.85 750.107 2606.24 751.8 2605.09 754.44L2570.13 834.907C2529.64 841.134 2489.84 853.853 2452.4 873.227L2376.8 828.813C2375.65 828.147 2374.4 827.827 2373.15 827.827C2371.47 827.827 2369.8 828.413 2368.45 829.56L2288.49 897.96C2286.15 899.96 2285.33 903.227 2286.47 906.093L2318.63 987.654C2293.68 1021.65 2274.96 1058.99 2262.55 1098.04L2177.63 1120.11C2174.65 1120.88 2172.49 1123.47 2172.25 1126.53L2164.08 1231.45C2163.84 1234.51 2165.57 1237.39 2168.4 1238.61L2248.87 1273.57C2255.08 1314.07 2267.8 1353.87 2287.17 1391.32L2242.77 1466.92C2241.21 1469.57 2241.51 1472.92 2243.51 1475.25L2311.92 1555.23C2313.31 1556.85 2315.33 1557.75 2317.39 1557.75C2318.28 1557.75 2319.17 1557.59 2320.04 1557.24L2401.6 1525.08C2435.6 1550.03 2472.95 1568.76 2511.99 1581.17L2534.07 1666.08C2534.83 1669.07 2537.41 1671.21 2540.48 1671.45L2585.79 1674.99C2160.65 1746.65 1818.79 2071.72 1712.57 2493.88C1703.16 2531.29 1670.51 2554.83 1635.67 2554.83C1624.09 2554.83 1612.27 2552.23 1600.97 2546.67C1511.25 2502.55 1410.77 2477.81 1304.62 2477.81C1249.29 2477.81 1192.4 2484.55 1134.73 2498.73C968.819 2539.57 827.019 2643.25 734.559 2783.97C700.556 2365.35 792.648 1926.08 1026.41 1560.17C1373.05 1017.57 1987.95 704.36 2579.71 704.36C2594.21 704.36 2608.64 704.547 2623.12 704.92C2753.43 708.32 3252.79 729.24 3691.65 1096.41C3756.11 1150.35 3898.28 1278.49 4026.41 1481.8C4303.91 1922.09 4347.47 2522.11 4176.47 3033.39ZM3279.95 1654.25C3297.41 1667.07 3316.6 1676.68 3336.65 1683.07L3347.99 1726.68C3348.39 1728.21 3349.71 1729.32 3351.29 1729.44L3405.19 1733.64C3405.28 1733.64 3405.37 1733.65 3405.47 1733.65C3406.93 1733.65 3408.28 1732.79 3408.87 1731.43L3426.83 1690.09C3447.63 1686.89 3468.07 1680.36 3487.31 1670.4L3526.15 1693.21C3526.72 1693.56 3527.37 1693.73 3528.01 1693.73C3528.88 1693.73 3529.73 1693.43 3530.43 1692.84L3571.49 1657.69C3572.71 1656.67 3573.12 1655 3572.53 1653.53L3556.01 1611.63C3568.83 1594.16 3578.45 1574.99 3584.83 1554.92L3628.45 1543.59C3629.97 1543.19 3631.08 1541.87 3631.21 1540.29L3635.41 1486.4C3635.53 1484.83 3634.64 1483.35 3633.19 1482.71L3591.85 1464.76C3588.67 1443.95 3582.13 1423.51 3572.17 1404.27L3594.99 1365.44C3595.79 1364.08 3595.63 1362.36 3594.61 1361.16L3559.47 1320.08C3558.75 1319.24 3557.71 1318.79 3556.65 1318.79C3556.2 1318.79 3555.73 1318.87 3555.29 1319.04L3513.4 1335.56C3495.93 1322.75 3476.75 1313.12 3456.69 1306.75L3445.36 1263.13C3444.96 1261.6 3443.64 1260.49 3442.05 1260.37L3388.16 1256.17C3388.07 1256.16 3387.97 1256.16 3387.87 1256.16C3386.41 1256.16 3385.07 1257.03 3384.48 1258.39L3366.52 1299.72C3345.72 1302.92 3325.28 1309.45 3306.04 1319.4L3267.2 1296.59C3266.63 1296.25 3265.97 1296.08 3265.33 1296.08C3264.47 1296.08 3263.61 1296.39 3262.92 1296.97L3221.84 1332.11C3220.64 1333.13 3220.23 1334.81 3220.81 1336.28L3237.33 1378.19C3224.52 1395.64 3214.89 1414.83 3208.52 1434.89L3164.89 1446.23C3163.37 1446.63 3162.27 1447.95 3162.13 1449.52L3157.93 1503.41C3157.81 1504.99 3158.71 1506.47 3160.16 1507.09L3201.49 1525.05C3204.68 1545.85 3211.21 1566.31 3221.17 1585.53L3198.36 1624.37C3197.56 1625.73 3197.72 1627.45 3198.73 1628.65L3233.88 1669.73C3234.6 1670.57 3235.63 1671.03 3236.69 1671.03C3237.15 1671.03 3237.61 1670.95 3238.05 1670.77L3279.95 1654.25Z" fill="url(#paint0_linear_0_1)"/>
</g>
<mask id="mask1_0_1" style="mask-type:luminance" maskUnits="userSpaceOnUse" x="618" y="1660" width="3711" height="2225">
<path d="M3842.15 3884.97H3695.51C3940.45 3884.97 4139.63 3677.09 4129.13 3426.17C4122.24 3261.43 4026.91 3120.17 3890.59 3051.05C3912.04 3007.21 3931.97 2960.69 3949.97 2911.35C4036.43 2930.52 4114.23 2973.55 4176.47 3033.39C4265.13 3118.65 4322.24 3238.04 4327.8 3371.13C4339.56 3652.15 4116.48 3884.97 3842.15 3884.97ZM1122.31 3859.88C780.869 3763.63 545.919 3403.68 638.859 3007C657.805 2926.13 690.605 2850.87 734.559 2783.97C827.019 2643.25 968.819 2539.57 1134.73 2498.73C1192.4 2484.55 1249.29 2477.81 1304.62 2477.81C1410.77 2477.81 1511.25 2502.55 1600.97 2546.67C1612.27 2552.23 1624.09 2554.83 1635.67 2554.83C1670.51 2554.83 1703.16 2531.29 1712.57 2493.88C1818.79 2071.72 2160.65 1746.65 2585.79 1674.99L2645.4 1679.63C2645.59 1679.65 2645.77 1679.65 2645.96 1679.65C2648.81 1679.65 2651.41 1677.96 2652.57 1675.32L2656.85 1665.47C2691.83 1661.99 2727.24 1660.2 2763.11 1660.2C3046.11 1660.2 3303.81 1771.32 3496.97 1953.29C3417.71 1925.03 3341.23 1888.23 3277.09 1840.28C3267.35 1833 3254.04 1827.2 3242.07 1827.2C3234.77 1827.2 3227.97 1829.35 3222.8 1834.65C3175.4 1883.15 3121.96 1924.48 3065.88 1959.09C2961.8 1919.92 2849.39 1898.55 2732.07 1898.55C2280.89 1898.55 1901.79 2214.81 1794.07 2642.91C1785.67 2676.32 1756.52 2697.32 1725.41 2697.32C1715.07 2697.32 1704.51 2695 1694.43 2690.04C1614.33 2650.64 1524.6 2628.57 1429.83 2628.57C1380.43 2628.57 1329.63 2634.57 1278.14 2647.25C1059.58 2701.04 887.892 2876.96 835.388 3101.05C766.503 3395.07 899.371 3666.49 1120.88 3799.39L1122.31 3859.88Z" fill="white"/>
</mask>
<g mask="url(#mask1_0_1)">
<path d="M3842.15 3884.97H3695.51C3940.45 3884.97 4139.63 3677.09 4129.13 3426.17C4122.24 3261.43 4026.91 3120.17 3890.59 3051.05C3912.04 3007.21 3931.97 2960.69 3949.97 2911.35C4036.43 2930.52 4114.23 2973.55 4176.47 3033.39C4265.13 3118.65 4322.24 3238.04 4327.8 3371.13C4339.56 3652.15 4116.48 3884.97 3842.15 3884.97ZM1122.31 3859.88C780.869 3763.63 545.919 3403.68 638.859 3007C657.805 2926.13 690.605 2850.87 734.559 2783.97C827.019 2643.25 968.819 2539.57 1134.73 2498.73C1192.4 2484.55 1249.29 2477.81 1304.62 2477.81C1410.77 2477.81 1511.25 2502.55 1600.97 2546.67C1612.27 2552.23 1624.09 2554.83 1635.67 2554.83C1670.51 2554.83 1703.16 2531.29 1712.57 2493.88C1818.79 2071.72 2160.65 1746.65 2585.79 1674.99L2645.4 1679.63C2645.59 1679.65 2645.77 1679.65 2645.96 1679.65C2648.81 1679.65 2651.41 1677.96 2652.57 1675.32L2656.85 1665.47C2691.83 1661.99 2727.24 1660.2 2763.11 1660.2C3046.11 1660.2 3303.81 1771.32 3496.97 1953.29C3417.71 1925.03 3341.23 1888.23 3277.09 1840.28C3267.35 1833 3254.04 1827.2 3242.07 1827.2C3234.77 1827.2 3227.97 1829.35 3222.8 1834.65C3175.4 1883.15 3121.96 1924.48 3065.88 1959.09C2961.8 1919.92 2849.39 1898.55 2732.07 1898.55C2280.89 1898.55 1901.79 2214.81 1794.07 2642.91C1785.67 2676.32 1756.52 2697.32 1725.41 2697.32C1715.07 2697.32 1704.51 2695 1694.43 2690.04C1614.33 2650.64 1524.6 2628.57 1429.83 2628.57C1380.43 2628.57 1329.63 2634.57 1278.14 2647.25C1059.58 2701.04 887.892 2876.96 835.388 3101.05C766.503 3395.07 899.371 3666.49 1120.88 3799.39L1122.31 3859.88Z" fill="url(#paint1_linear_0_1)"/>
</g>
<mask id="mask2_0_1" style="mask-type:luminance" maskUnits="userSpaceOnUse" x="817" y="1898" width="3313" height="1987">
<path d="M3695.51 3884.97H3233.21L3236.28 3673.07C3242.8 3675.77 3249.76 3677.15 3256.75 3677.15C3264.51 3677.15 3272.28 3675.45 3279.49 3672.04C3373.68 3627.43 3694.57 3451.68 3890.59 3051.05C4026.91 3120.17 4122.24 3261.43 4129.13 3426.17C4139.63 3677.09 3940.45 3884.97 3695.51 3884.97ZM1120.88 3799.39C899.371 3666.49 766.503 3395.07 835.388 3101.05C887.892 2876.96 1059.58 2701.04 1278.14 2647.25C1329.63 2634.57 1380.43 2628.57 1429.83 2628.57C1524.6 2628.57 1614.33 2650.64 1694.43 2690.04C1704.51 2695 1715.07 2697.32 1725.41 2697.32C1756.52 2697.32 1785.67 2676.32 1794.07 2642.91C1901.79 2214.81 2280.89 1898.55 2732.07 1898.55C2849.39 1898.55 2961.8 1919.92 3065.88 1959.09C2906.93 2057.17 2726.79 2101.23 2602.83 2101.23C2588.72 2101.23 2575.32 2100.65 2562.79 2099.52C2561.19 2099.39 2559.6 2099.31 2558.01 2099.31C2544.56 2099.31 2531.55 2104.41 2521.65 2113.68C2510.59 2124.05 2504.48 2138.64 2504.83 2153.8C2510.27 2390.11 2503.95 2670.07 2606.63 2950.04L1199 2913.61C1198.18 2913.59 1197.37 2913.59 1196.55 2913.59C1171.6 2913.59 1147.62 2923.47 1129.91 2941.12C1111.62 2959.35 1101.61 2984.28 1102.22 3010.08L1120.88 3799.39Z" fill="white"/>
</mask>
<g mask="url(#mask2_0_1)">
<path d="M3695.51 3884.97H3233.21L3236.28 3673.07C3242.8 3675.77 3249.76 3677.15 3256.75 3677.15C3264.51 3677.15 3272.28 3675.45 3279.49 3672.04C3373.68 3627.43 3694.57 3451.68 3890.59 3051.05C4026.91 3120.17 4122.24 3261.43 4129.13 3426.17C4139.63 3677.09 3940.45 3884.97 3695.51 3884.97ZM1120.88 3799.39C899.371 3666.49 766.503 3395.07 835.388 3101.05C887.892 2876.96 1059.58 2701.04 1278.14 2647.25C1329.63 2634.57 1380.43 2628.57 1429.83 2628.57C1524.6 2628.57 1614.33 2650.64 1694.43 2690.04C1704.51 2695 1715.07 2697.32 1725.41 2697.32C1756.52 2697.32 1785.67 2676.32 1794.07 2642.91C1901.79 2214.81 2280.89 1898.55 2732.07 1898.55C2849.39 1898.55 2961.8 1919.92 3065.88 1959.09C2906.93 2057.17 2726.79 2101.23 2602.83 2101.23C2588.72 2101.23 2575.32 2100.65 2562.79 2099.52C2561.19 2099.39 2559.6 2099.31 2558.01 2099.31C2544.56 2099.31 2531.55 2104.41 2521.65 2113.68C2510.59 2124.05 2504.48 2138.64 2504.83 2153.8C2510.27 2390.11 2503.95 2670.07 2606.63 2950.04L1199 2913.61C1198.18 2913.59 1197.37 2913.59 1196.55 2913.59C1171.6 2913.59 1147.62 2923.47 1129.91 2941.12C1111.62 2959.35 1101.61 2984.28 1102.22 3010.08L1120.88 3799.39Z" fill="url(#paint2_linear_0_1)"/>
</g>
<mask id="mask3_0_1" style="mask-type:luminance" maskUnits="userSpaceOnUse" x="1102" y="2913" width="2135" height="1311">
<path d="M3191.43 4223.01H1167.44C1146.86 4223.01 1130.01 4206.19 1130.01 4185.63L1122.31 3859.88L1120.88 3799.39L1102.22 3010.08C1101.61 2984.28 1111.62 2959.35 1129.91 2941.12C1147.62 2923.47 1171.6 2913.59 1196.55 2913.59C1197.37 2913.59 1198.18 2913.59 1199 2913.61L2606.63 2950.04C2612.25 2965.37 2618.19 2980.67 2624.48 2995.99L1206.78 2957.96C1206.19 2957.95 1205.6 2957.93 1205.01 2957.93C1187.49 2957.93 1170.67 2964.88 1158.24 2977.28C1145.39 2990.09 1138.32 3007.64 1138.77 3025.79L1166.97 4149.75C1166.97 4169.23 1182.9 4185.16 1202.38 4185.16H3142.61C3162.09 4185.16 3178.03 4169.23 3178.03 4149.75L3185.68 3641.68C3199.69 3650.88 3213.95 3660 3228.55 3669.09C3231.04 3670.64 3233.61 3671.96 3236.28 3673.07L3233.21 3884.97L3229.87 4116.24L3228.85 4185.63C3228.85 4206.19 3212.01 4223.01 3191.43 4223.01Z" fill="white"/>
</mask>
<g mask="url(#mask3_0_1)">
<path d="M3191.43 4223.01H1167.44C1146.86 4223.01 1130.01 4206.19 1130.01 4185.63L1122.31 3859.88L1120.88 3799.39L1102.22 3010.08C1101.61 2984.28 1111.62 2959.35 1129.91 2941.12C1147.62 2923.47 1171.6 2913.59 1196.55 2913.59C1197.37 2913.59 1198.18 2913.59 1199 2913.61L2606.63 2950.04C2612.25 2965.37 2618.19 2980.67 2624.48 2995.99L1206.78 2957.96C1206.19 2957.95 1205.6 2957.93 1205.01 2957.93C1187.49 2957.93 1170.67 2964.88 1158.24 2977.28C1145.39 2990.09 1138.32 3007.64 1138.77 3025.79L1166.97 4149.75C1166.97 4169.23 1182.9 4185.16 1202.38 4185.16H3142.61C3162.09 4185.16 3178.03 4169.23 3178.03 4149.75L3185.68 3641.68C3199.69 3650.88 3213.95 3660 3228.55 3669.09C3231.04 3670.64 3233.61 3671.96 3236.28 3673.07L3233.21 3884.97L3229.87 4116.24L3228.85 4185.63C3228.85 4206.19 3212.01 4223.01 3191.43 4223.01Z" fill="url(#paint3_linear_0_1)"/>
</g>
<path d="M1166.97 4149.75C1166.97 4169.23 1182.9 4185.16 1202.38 4185.16H3142.61C3162.09 4185.16 3178.03 4169.23 3178.03 4149.75L3193.92 3093.85C3192.05 3030.31 3136.35 3007.47 3102.57 3008.81L1206.78 2957.96C1188.63 2957.47 1171.09 2964.47 1158.24 2977.28C1145.39 2990.09 1138.32 3007.64 1138.77 3025.79L1166.97 4149.75Z" fill="#7D97F4"/>
<path d="M3157.07 3648.12H3157.01C3154.12 3648.08 3151.83 3645.72 3151.88 3642.85L3153.13 3557.23C3153.17 3554.39 3155.49 3552.11 3158.32 3552.11H3158.36C3161.25 3552.15 3163.55 3554.51 3163.51 3557.37L3162.25 3643.01C3162.21 3645.85 3159.89 3648.12 3157.07 3648.12Z" fill="black"/>
<path d="M3160.15 3438.28H3160.07C3157.2 3438.24 3154.91 3435.88 3154.96 3433.01L3159.77 3105.04C3159.68 3085.56 3153.77 3070 3142.19 3058.92C3120.59 3038.21 3086.29 3039.27 3084.84 3039.35L2478.91 3023.09C2476.04 3023.01 2473.77 3020.63 2473.85 3017.77C2473.93 3014.91 2476.13 3012.47 2479.19 3012.72L3084.76 3028.97C3088.53 3028.75 3125.05 3028.12 3149.37 3051.43C3163.05 3064.53 3170.04 3082.59 3170.15 3105.09L3165.33 3433.17C3165.29 3436 3162.97 3438.28 3160.15 3438.28Z" fill="black"/>
<mask id="mask4_0_1" style="mask-type:luminance" maskUnits="userSpaceOnUse" x="965" y="4217" width="2388" height="103">
<path d="M973.357 4319.57H3344.48C3348.63 4319.57 3352.01 4316.17 3352.01 4312.03V4224.91C3352.01 4220.76 3348.63 4217.37 3344.48 4217.37H973.357C969.212 4217.37 965.819 4220.76 965.819 4224.91V4312.03C965.819 4316.17 969.212 4319.57 973.357 4319.57Z" fill="white"/>
</mask>
<g mask="url(#mask4_0_1)">
<path d="M973.357 4319.57H3344.48C3348.63 4319.57 3352.01 4316.17 3352.01 4312.03V4224.91C3352.01 4220.76 3348.63 4217.37 3344.48 4217.37H973.357C969.212 4217.37 965.819 4220.76 965.819 4224.91V4312.03C965.819 4316.17 969.212 4319.57 973.357 4319.57Z" fill="url(#paint4_linear_0_1)"/>
</g>
<path d="M2008.73 4133.65H1261.69C1234.15 4133.65 1211.82 4111.32 1211.82 4083.77V3108.65C1211.82 3080.36 1235.33 3057.73 1263.6 3058.81L2010.64 3087.41C2037.43 3088.43 2058.6 3110.44 2058.6 3137.24V4083.77C2058.6 4111.32 2036.28 4133.65 2008.73 4133.65Z" fill="#91B3FA"/>
<path d="M1860.15 3507.11H1365.31C1361.39 3507.11 1358.2 3503.92 1358.2 3500V3448.45C1358.2 3444.53 1361.39 3441.35 1365.31 3441.35H1860.15C1864.07 3441.35 1867.25 3444.53 1867.25 3448.45V3500C1867.25 3503.92 1864.07 3507.11 1860.15 3507.11Z" fill="#C9DAFD"/>
<path d="M1861.15 3612.13H1366.31C1362.39 3612.13 1359.2 3608.95 1359.2 3605.01V3553.48C1359.2 3549.55 1362.39 3546.36 1366.31 3546.36H1861.15C1865.07 3546.36 1868.25 3549.55 1868.25 3553.48V3605.01C1868.25 3608.95 1865.07 3612.13 1861.15 3612.13Z" fill="#C9DAFD"/>
<path d="M1864.13 3719.35H1369.29C1365.37 3719.35 1362.19 3716.16 1362.19 3712.24V3660.69C1362.19 3656.77 1365.37 3653.59 1369.29 3653.59H1864.13C1868.05 3653.59 1871.24 3656.77 1871.24 3660.69V3712.24C1871.24 3716.16 1868.05 3719.35 1864.13 3719.35Z" fill="#C9DAFD"/>
<path d="M1865.13 3824.36H1370.29C1366.37 3824.36 1363.19 3821.19 1363.19 3817.25V3765.71C1363.19 3761.79 1366.37 3758.6 1370.29 3758.6H1865.13C1869.05 3758.6 1872.24 3761.79 1872.24 3765.71V3817.25C1872.24 3821.19 1869.05 3824.36 1865.13 3824.36Z" fill="#C9DAFD"/>
<path d="M2945.36 3507.03H2227.71C2223.79 3507.03 2220.6 3503.85 2220.6 3499.92V3448.37C2220.6 3444.45 2223.79 3441.27 2227.71 3441.27H2931.81C2938.6 3447.77 2945.47 3454.25 2952.47 3460.73V3499.92C2952.47 3503.85 2949.28 3507.03 2945.36 3507.03Z" fill="#BFCCFA"/>
<path d="M2947.61 3612.13H2229.97C2226.04 3612.13 2222.87 3608.95 2222.87 3605.01V3553.48C2222.87 3549.55 2226.04 3546.36 2229.97 3546.36H2947.61C2951.55 3546.36 2954.73 3549.55 2954.73 3553.48V3605.01C2954.73 3608.95 2951.55 3612.13 2947.61 3612.13Z" fill="#BFCCFA"/>
<path d="M2649.41 3719.35H2229.97C2226.04 3719.35 2222.87 3716.16 2222.87 3712.24V3660.69C2222.87 3656.77 2226.04 3653.59 2229.97 3653.59H2649.41C2653.35 3653.59 2656.53 3656.77 2656.53 3660.69V3712.24C2656.53 3716.16 2653.35 3719.35 2649.41 3719.35Z" fill="#BFCCFA"/>
<path d="M2609.11 3196.17H2597.96C2592.43 3196.17 2587.93 3191.68 2587.93 3186.15V3148.04C2587.93 3134.4 2576.88 3123.35 2563.24 3123.35H2494.17C2480.53 3123.35 2469.47 3134.4 2469.47 3148.04V3186.15C2469.47 3191.68 2464.99 3196.17 2459.45 3196.17H2448.29C2442.76 3196.17 2438.28 3191.68 2438.28 3186.15V3148.04C2438.28 3117.17 2463.29 3092.16 2494.17 3092.16H2563.24C2594.11 3092.16 2619.13 3117.17 2619.13 3148.04V3186.15C2619.13 3191.68 2614.65 3196.17 2609.11 3196.17Z" fill="#BFCCFA"/>
<path d="M2622.93 3391.61H2434.48C2422.93 3391.61 2413.57 3382.25 2413.57 3370.71V3226.08C2413.57 3214.53 2422.93 3205.16 2434.48 3205.16H2622.93C2634.48 3205.16 2643.84 3214.53 2643.84 3226.08V3370.71C2643.84 3382.25 2634.48 3391.61 2622.93 3391.61ZM2528.71 3242.27C2527.97 3242.27 2527.23 3242.29 2526.48 3242.35C2508.96 3243.43 2494.75 3257.77 2493.83 3275.31C2493.11 3288.84 2500.11 3300.8 2510.81 3307.2L2501.75 3344.95C2500.57 3349.81 2504.27 3354.51 2509.28 3354.51H2548.13C2553.15 3354.51 2556.84 3349.81 2555.67 3344.95L2546.6 3307.2C2556.8 3301.11 2563.64 3289.95 2563.64 3277.2C2563.64 3257.91 2548 3242.27 2528.71 3242.27Z" fill="#BFCCFA"/>
<path d="M3157.67 1507.75C3156.93 1507.75 3156.17 1507.57 3155.49 1507.19C3153.32 1505.97 3152.55 1503.25 3153.75 1501.08C3156.64 1495.88 3159.44 1490.65 3162.16 1485.37C3163.29 1483.17 3165.99 1482.32 3168.2 1483.45C3170.4 1484.59 3171.27 1487.29 3170.13 1489.51C3167.37 1494.85 3164.52 1500.16 3161.6 1505.44C3160.77 1506.92 3159.24 1507.75 3157.67 1507.75Z" fill="#91B3FA"/>
<path d="M2075.83 1442.37C2074.05 1442.37 2072.37 1441.31 2071.67 1439.56C2067.23 1428.63 2063.07 1417.44 2059.29 1406.33C2058.51 1403.99 2059.76 1401.44 2062.12 1400.64C2064.44 1399.85 2067 1401.11 2067.8 1403.45C2071.51 1414.4 2075.61 1425.41 2079.99 1436.19C2080.92 1438.49 2079.81 1441.11 2077.52 1442.04C2076.96 1442.27 2076.39 1442.37 2075.83 1442.37ZM2117.09 1524.96C2115.57 1524.96 2114.08 1524.17 2113.24 1522.77C2107.16 1512.64 2101.32 1502.24 2095.88 1491.84C2094.75 1489.65 2095.59 1486.93 2097.79 1485.79C2099.97 1484.64 2102.69 1485.49 2103.84 1487.69C2109.2 1497.92 2114.95 1508.17 2120.93 1518.16C2122.21 1520.28 2121.52 1523.04 2119.4 1524.32C2118.68 1524.75 2117.88 1524.96 2117.09 1524.96ZM3106.75 1584.75C3105.79 1584.75 3104.81 1584.44 3104 1583.8C3102.04 1582.28 3101.69 1579.45 3103.21 1577.49C3110.36 1568.31 3117.31 1558.83 3123.85 1549.32C3125.27 1547.27 3128.07 1546.76 3130.09 1548.16C3132.13 1549.56 3132.65 1552.36 3131.25 1554.4C3124.6 1564.07 3117.56 1573.69 3110.29 1583.01C3109.41 1584.15 3108.09 1584.75 3106.75 1584.75ZM2170.57 1600.21C2169.29 1600.21 2168.01 1599.65 2167.12 1598.59C2159.6 1589.56 2152.24 1580.17 2145.23 1570.69C2143.76 1568.71 2144.19 1565.89 2146.17 1564.41C2148.19 1562.95 2150.99 1563.37 2152.45 1565.36C2159.36 1574.69 2166.61 1583.95 2174.03 1592.85C2175.61 1594.75 2175.35 1597.59 2173.44 1599.17C2172.61 1599.87 2171.59 1600.21 2170.57 1600.21ZM3044.63 1653.01C3043.43 1653.01 3042.24 1652.53 3041.36 1651.6C3039.65 1649.8 3039.73 1646.96 3041.55 1645.25C3049.99 1637.28 3058.31 1628.97 3066.25 1620.56C3067.96 1618.76 3070.8 1618.68 3072.6 1620.37C3074.4 1622.08 3074.48 1624.92 3072.79 1626.72C3064.71 1635.27 3056.28 1643.69 3047.71 1651.79C3046.84 1652.6 3045.72 1653.01 3044.63 1653.01ZM2234.85 1666.48C2233.8 1666.48 2232.73 1666.11 2231.88 1665.36C2223.09 1657.59 2214.4 1649.41 2206.03 1641.09C2204.27 1639.35 2204.27 1636.51 2206.01 1634.75C2207.76 1632.99 2210.6 1632.97 2212.36 1634.73C2220.6 1642.92 2229.17 1650.97 2237.84 1658.63C2239.69 1660.28 2239.87 1663.11 2238.23 1664.97C2237.33 1665.97 2236.09 1666.48 2234.85 1666.48ZM2972.81 1711.11C2971.39 1711.11 2969.99 1710.43 2969.11 1709.17C2967.71 1707.13 2968.21 1704.33 2970.25 1702.92C2979.8 1696.33 2989.29 1689.37 2998.44 1682.24C3000.39 1680.72 3003.21 1681.07 3004.73 1683.03C3006.27 1684.97 3005.92 1687.8 3003.96 1689.32C2994.67 1696.56 2985.05 1703.63 2975.36 1710.32C2974.57 1710.85 2973.68 1711.11 2972.81 1711.11ZM2308.45 1722.15C2307.63 1722.15 2306.77 1721.92 2306.03 1721.43C2296.12 1715.08 2286.28 1708.35 2276.76 1701.43C2274.76 1699.96 2274.32 1697.16 2275.77 1695.15C2277.24 1693.15 2280.05 1692.71 2282.05 1694.16C2291.41 1700.99 2301.11 1707.61 2310.88 1713.88C2312.96 1715.21 2313.57 1717.99 2312.23 1720.08C2311.37 1721.41 2309.93 1722.15 2308.45 1722.15ZM2892.99 1757.51C2891.32 1757.51 2889.71 1756.57 2888.93 1754.96C2887.85 1752.73 2888.8 1750.05 2891.04 1748.97C2901.48 1743.95 2911.91 1738.53 2922.05 1732.88C2924.24 1731.68 2926.95 1732.45 2928.16 1734.63C2929.37 1736.79 2928.59 1739.52 2926.43 1740.73C2916.12 1746.47 2905.53 1751.96 2894.92 1757.07C2894.29 1757.37 2893.64 1757.51 2892.99 1757.51ZM2389.76 1765.79C2389.15 1765.79 2388.53 1765.67 2387.95 1765.41C2377.16 1760.65 2366.39 1755.52 2355.95 1750.16C2353.75 1749.03 2352.87 1746.32 2354 1744.11C2355.13 1741.92 2357.84 1741.04 2360.05 1742.17C2370.33 1747.45 2380.95 1752.51 2391.57 1757.19C2393.84 1758.19 2394.87 1760.84 2393.87 1763.11C2393.13 1764.79 2391.48 1765.79 2389.76 1765.79ZM2806.96 1791.03C2805.03 1791.03 2803.25 1789.79 2802.67 1787.84C2801.95 1785.47 2803.29 1782.96 2805.65 1782.24C2816.77 1778.88 2827.92 1775.13 2838.79 1771.13C2841.11 1770.28 2843.69 1771.47 2844.55 1773.8C2845.4 1776.12 2844.21 1778.69 2841.89 1779.56C2830.87 1783.63 2819.55 1787.41 2808.27 1790.84C2807.83 1790.97 2807.39 1791.03 2806.96 1791.03ZM2476.85 1796.4C2476.47 1796.4 2476.08 1796.35 2475.69 1796.24C2464.31 1793.21 2452.88 1789.8 2441.72 1786.09C2439.36 1785.32 2438.08 1782.77 2438.87 1780.43C2439.64 1778.08 2442.17 1776.8 2444.53 1777.57C2455.55 1781.21 2466.8 1784.59 2478 1787.57C2480.4 1788.21 2481.83 1790.68 2481.19 1793.07C2480.64 1795.08 2478.83 1796.4 2476.85 1796.4ZM2716.8 1810.91C2714.6 1810.91 2712.68 1809.29 2712.36 1807.05C2712.01 1804.59 2713.72 1802.32 2716.17 1801.97C2727.67 1800.36 2739.25 1798.37 2750.61 1796.09C2753.03 1795.6 2755.41 1797.17 2755.91 1799.6C2756.39 1802.03 2754.81 1804.4 2752.39 1804.89C2740.85 1807.21 2729.09 1809.23 2717.43 1810.87C2717.21 1810.89 2717 1810.91 2716.8 1810.91ZM2567.6 1813.32C2567.43 1813.32 2567.27 1813.31 2567.11 1813.29C2555.39 1812.01 2543.56 1810.39 2531.99 1808.45C2529.53 1808.04 2527.89 1805.72 2528.29 1803.28C2528.71 1800.84 2531.03 1799.17 2533.47 1799.6C2544.88 1801.51 2556.52 1803.12 2568.07 1804.36C2570.53 1804.63 2572.32 1806.84 2572.05 1809.31C2571.8 1811.61 2569.85 1813.32 2567.6 1813.32ZM2632.56 1816.81C2629.91 1816.81 2627.25 1816.8 2624.61 1816.76C2622.13 1816.73 2620.15 1814.69 2620.17 1812.21C2620.21 1809.76 2622.21 1807.79 2624.67 1807.79H2624.73C2636.35 1807.95 2648.07 1807.75 2659.65 1807.23C2661.97 1807.07 2664.24 1809.03 2664.35 1811.51C2664.45 1813.99 2662.53 1816.08 2660.07 1816.2C2650.95 1816.61 2641.69 1816.81 2632.56 1816.81Z" fill="#91B3FA"/>
<path d="M2047.75 1354.16C2045.71 1354.16 2043.87 1352.77 2043.37 1350.71C2042 1344.83 2040.71 1338.95 2039.51 1333.04C2039.01 1330.61 2040.57 1328.24 2043 1327.75C2045.43 1327.25 2047.8 1328.81 2048.29 1331.25C2049.48 1337.07 2050.76 1342.87 2052.12 1348.65C2052.68 1351.07 2051.19 1353.48 2048.77 1354.05C2048.43 1354.12 2048.08 1354.16 2047.75 1354.16Z" fill="#91B3FA"/>
<path d="M2123.85 896.414C2123.03 896.414 2122.2 896.187 2121.45 895.72C2119.36 894.4 2118.73 891.627 2120.05 889.52C2123.27 884.44 2126.55 879.387 2129.92 874.374C2131.29 872.32 2134.09 871.76 2136.15 873.16C2138.2 874.534 2138.75 877.32 2137.37 879.387C2134.04 884.32 2130.81 889.294 2127.65 894.307C2126.8 895.667 2125.33 896.414 2123.85 896.414Z" fill="#91B3FA"/>
<path d="M2590.04 617.093C2587.71 617.093 2585.73 615.28 2585.57 612.92C2585.4 610.44 2587.25 608.307 2589.73 608.134C2602.05 607.267 2614.59 606.774 2626.99 606.667H2627.03C2629.49 606.667 2631.49 608.654 2631.51 611.12C2631.53 613.6 2629.53 615.627 2627.07 615.64C2614.85 615.747 2602.51 616.227 2590.36 617.08L2590.04 617.093ZM2723.83 622.6C2723.61 622.6 2723.37 622.587 2723.15 622.547C2711.09 620.693 2698.83 619.2 2686.68 618.093C2684.21 617.88 2682.4 615.693 2682.61 613.213C2682.85 610.747 2684.97 608.92 2687.49 609.16C2699.83 610.28 2712.28 611.8 2724.51 613.68C2726.96 614.053 2728.64 616.347 2728.27 618.787C2727.92 621.014 2726.01 622.6 2723.83 622.6ZM2494.08 631.654C2492.05 631.654 2490.2 630.267 2489.72 628.2C2489.15 625.787 2490.64 623.374 2493.05 622.8C2505.13 619.947 2517.43 617.454 2529.6 615.374C2532.09 614.974 2534.36 616.6 2534.77 619.04C2535.2 621.48 2533.56 623.8 2531.12 624.213C2519.12 626.267 2507.01 628.734 2495.12 631.534C2494.77 631.614 2494.43 631.654 2494.08 631.654ZM2818.24 644.987C2817.79 644.987 2817.32 644.92 2816.85 644.774C2805.28 641.014 2793.4 637.574 2781.6 634.534C2779.2 633.907 2777.75 631.454 2778.36 629.067C2778.99 626.654 2781.47 625.213 2783.84 625.827C2795.83 628.92 2807.87 632.413 2819.63 636.227C2821.99 637 2823.28 639.533 2822.52 641.893C2821.89 643.787 2820.13 644.987 2818.24 644.987ZM2401.73 661.507C2399.97 661.507 2398.31 660.467 2397.59 658.747C2396.64 656.453 2397.72 653.827 2400.01 652.88C2411.41 648.133 2423.15 643.68 2434.87 639.64C2437.23 638.827 2439.77 640.067 2440.59 642.413C2441.39 644.76 2440.15 647.32 2437.8 648.12C2426.24 652.107 2414.69 656.494 2403.45 661.174C2402.89 661.4 2402.31 661.507 2401.73 661.507ZM2907.8 682.32C2907.11 682.32 2906.41 682.16 2905.75 681.813C2894.92 676.24 2883.77 670.92 2872.61 666.013C2870.35 665.013 2869.31 662.373 2870.31 660.093C2871.31 657.827 2873.95 656.787 2876.23 657.8C2887.56 662.774 2898.88 668.174 2909.87 673.84C2912.07 674.974 2912.93 677.68 2911.8 679.88C2911 681.427 2909.43 682.32 2907.8 682.32ZM2315.43 705.96C2313.93 705.96 2312.47 705.2 2311.61 703.84C2310.31 701.734 2310.95 698.974 2313.05 697.654C2323.56 691.12 2334.41 684.814 2345.31 678.934C2347.51 677.747 2350.23 678.573 2351.4 680.747C2352.57 682.933 2351.76 685.653 2349.59 686.827C2338.84 692.627 2328.15 698.84 2317.8 705.28C2317.07 705.733 2316.24 705.96 2315.43 705.96ZM2990.12 733.654C2989.2 733.654 2988.25 733.36 2987.45 732.774C2977.67 725.494 2967.53 718.44 2957.32 711.8C2955.24 710.453 2954.65 707.667 2956.01 705.587C2957.36 703.507 2960.13 702.92 2962.23 704.28C2972.59 711.027 2982.88 718.187 2992.81 725.56C2994.8 727.04 2995.21 729.854 2993.73 731.84C2992.85 733.027 2991.49 733.654 2990.12 733.654ZM2237.43 763.76C2236.19 763.76 2234.93 763.24 2234.05 762.227C2232.43 760.36 2232.61 757.52 2234.48 755.893C2243.81 747.733 2253.52 739.773 2263.29 732.213C2265.28 730.707 2268.08 731.08 2269.6 733.027C2271.11 734.987 2270.75 737.813 2268.79 739.333C2259.15 746.76 2249.59 754.614 2240.39 762.654C2239.53 763.4 2238.48 763.76 2237.43 763.76ZM3063.07 797.613C3061.89 797.613 3060.72 797.16 3059.84 796.254C3051.39 787.534 3042.52 778.933 3033.49 770.693C3031.65 769.027 3031.52 766.187 3033.2 764.36C3034.87 762.52 3037.71 762.387 3039.53 764.067C3048.71 772.427 3057.71 781.147 3066.29 790C3068.01 791.787 3067.97 794.627 3066.19 796.347C3065.32 797.2 3064.2 797.613 3063.07 797.613ZM2169.65 833.227C2168.65 833.227 2167.63 832.893 2166.8 832.2C2164.89 830.613 2164.63 827.787 2166.21 825.88C2174.08 816.387 2182.39 806.987 2190.88 797.933C2192.57 796.12 2195.41 796.04 2197.23 797.733C2199.04 799.44 2199.13 802.28 2197.43 804.08C2189.05 813 2180.88 822.267 2173.12 831.613C2172.23 832.68 2170.95 833.227 2169.65 833.227ZM3124.93 872.413C3123.51 872.413 3122.12 871.747 3121.24 870.493C3114.27 860.52 3106.87 850.613 3099.27 841.067C3097.72 839.12 3098.04 836.307 3099.99 834.76C3101.93 833.213 3104.75 833.533 3106.29 835.467C3114 845.173 3121.52 855.227 3128.6 865.347C3130.03 867.373 3129.53 870.173 3127.49 871.6C3126.72 872.147 3125.81 872.413 3124.93 872.413ZM3173.95 956.174C3172.28 956.174 3170.67 955.24 3169.89 953.64C3164.6 942.627 3158.91 931.654 3152.96 921.04C3151.76 918.88 3152.53 916.147 3154.69 914.933C3156.85 913.733 3159.6 914.494 3160.8 916.654C3166.83 927.427 3172.61 938.56 3177.99 949.747C3179.07 951.973 3178.12 954.667 3175.89 955.733C3175.27 956.04 3174.6 956.174 3173.95 956.174ZM3208.73 1046.79C3206.79 1046.79 3205 1045.52 3204.43 1043.56C3201 1031.85 3197.15 1020.11 3193 1008.64C3192.16 1006.32 3193.37 1003.75 3195.71 1002.89C3198.03 1002.05 3200.61 1003.27 3201.45 1005.6C3205.67 1017.23 3209.56 1029.15 3213.04 1041.03C3213.75 1043.41 3212.37 1045.91 3210 1046.6C3209.57 1046.72 3209.15 1046.79 3208.73 1046.79Z" fill="#91B3FA"/>
<path d="M3225.8 1123.21C3223.63 1123.21 3221.72 1121.63 3221.37 1119.41C3220.45 1113.55 3219.45 1107.69 3218.36 1101.85C3217.91 1099.41 3219.51 1097.07 3221.95 1096.61C3224.37 1096.2 3226.73 1097.77 3227.19 1100.21C3228.29 1106.13 3229.31 1112.08 3230.24 1118.03C3230.63 1120.48 3228.95 1122.77 3226.49 1123.16C3226.27 1123.19 3226.03 1123.21 3225.8 1123.21Z" fill="#91B3FA"/>
<path d="M3093.59 1198.32C3093.83 1195.25 3092.09 1192.37 3089.27 1191.15L3008.8 1156.19C3002.59 1115.69 2989.87 1075.89 2970.48 1038.44L3014.89 962.84C3016.45 960.187 3016.15 956.84 3014.15 954.507L2945.75 874.534C2943.75 872.2 2940.48 871.387 2937.63 872.52L2856.05 904.68C2822.07 879.734 2784.72 861 2745.67 848.587L2723.6 763.68C2722.83 760.694 2720.25 758.547 2717.19 758.307L2612.27 750.134C2609.2 749.894 2606.32 751.627 2605.09 754.44L2570.13 834.907C2529.64 841.134 2489.84 853.854 2452.4 873.227L2376.8 828.814C2374.15 827.267 2370.8 827.56 2368.45 829.56L2288.49 897.96C2286.15 899.96 2285.33 903.227 2286.47 906.094L2318.63 987.654C2293.68 1021.65 2274.96 1058.99 2262.55 1098.04L2177.63 1120.11C2174.65 1120.88 2172.49 1123.47 2172.25 1126.53L2164.08 1231.45C2163.84 1234.51 2165.57 1237.39 2168.4 1238.61L2248.87 1273.57C2255.08 1314.07 2267.8 1353.87 2287.17 1391.32L2242.77 1466.92C2241.21 1469.57 2241.51 1472.92 2243.51 1475.25L2311.92 1555.23C2313.91 1557.56 2317.17 1558.37 2320.04 1557.24L2401.6 1525.08C2435.6 1550.03 2472.95 1568.76 2511.99 1581.17L2534.07 1666.08C2534.83 1669.07 2537.41 1671.21 2540.48 1671.45L2645.4 1679.63C2648.47 1679.87 2651.35 1678.13 2652.57 1675.32L2687.52 1594.85C2728.03 1588.64 2767.83 1575.92 2805.27 1556.53L2880.87 1600.95C2883.52 1602.49 2886.87 1602.2 2889.2 1600.2L2969.17 1531.8C2971.51 1529.8 2972.32 1526.53 2971.2 1523.68L2939.04 1442.11C2963.97 1408.12 2982.71 1370.76 2995.12 1331.72L3080.04 1309.65C3083.01 1308.88 3085.17 1306.29 3085.41 1303.23L3093.59 1198.32Z" fill="#91B3FA"/>
<path d="M2628.61 1315.08C2608.07 1315.08 2588.07 1308.76 2570.96 1296.65C2525.87 1264.75 2515.15 1202.11 2547.05 1157.01C2562.52 1135.17 2585.56 1120.65 2611.93 1116.15C2617.64 1115.16 2623.36 1114.68 2629.03 1114.68C2649.57 1114.68 2669.59 1121 2686.69 1133.11C2708.55 1148.57 2723.05 1171.6 2727.57 1197.97C2732.08 1224.36 2726.05 1250.91 2710.6 1272.75C2695.15 1294.59 2672.11 1309.11 2645.73 1313.63C2640.03 1314.6 2634.29 1315.08 2628.61 1315.08ZM2629.01 1128.15C2624.09 1128.15 2619.15 1128.57 2614.2 1129.41C2591.37 1133.32 2571.43 1145.88 2558.05 1164.79C2530.43 1203.81 2539.71 1258.04 2578.73 1285.65C2593.55 1296.15 2610.87 1301.61 2628.65 1301.61C2633.56 1301.61 2638.52 1301.19 2643.47 1300.35C2666.29 1296.44 2686.23 1283.88 2699.6 1264.97C2712.99 1246.07 2718.2 1223.08 2714.31 1200.25C2710.39 1177.43 2697.83 1157.48 2678.92 1144.11C2664.11 1133.63 2646.8 1128.15 2629.01 1128.15Z" fill="white"/>
<path d="M2627.01 1475.57C2620.15 1475.57 2613.25 1475.31 2606.35 1474.76C2536.93 1469.36 2473.77 1437.24 2428.52 1384.33C2387.76 1336.69 2365.91 1277.33 2365.91 1215.32C2365.91 1208.45 2366.17 1201.56 2366.72 1194.64C2372.12 1125.23 2404.24 1062.08 2457.16 1016.81C2504.79 976.067 2564.15 954.214 2626.17 954.214C2633.04 954.214 2639.93 954.48 2646.84 955.014C2716.27 960.427 2779.41 992.547 2824.67 1045.45C2836.76 1059.57 2847.33 1074.96 2856.09 1091.19L2844.25 1097.59C2835.93 1082.2 2825.91 1067.6 2814.44 1054.2C2771.52 1004.03 2711.63 973.574 2645.8 968.44C2639.28 967.934 2632.77 967.68 2626.31 967.68C2567.45 967.68 2511.12 988.374 2465.91 1027.04C2415.73 1069.97 2385.27 1129.87 2380.13 1195.69C2379.63 1202.24 2379.37 1208.79 2379.37 1215.29C2379.37 1274.11 2400.11 1330.41 2438.75 1375.59C2481.67 1425.76 2541.56 1456.21 2607.39 1461.35C2613.95 1461.85 2620.49 1462.11 2627.01 1462.11C2685.85 1462.11 2742.11 1441.39 2787.28 1402.75C2821.33 1373.61 2846.81 1335.87 2860.96 1293.61L2873.73 1297.88C2858.81 1342.45 2831.95 1382.25 2796.03 1412.97C2748.4 1453.72 2689.04 1475.57 2627.01 1475.57Z" fill="white"/>
<path d="M3663.97 1655.09C3663.2 1655.09 3662.41 1654.89 3661.69 1654.47C3659.56 1653.21 3658.85 1650.45 3660.12 1648.32C3663.13 1643.23 3666.03 1638.03 3668.69 1632.85C3669.83 1630.65 3672.53 1629.79 3674.75 1630.92C3676.95 1632.05 3677.8 1634.77 3676.67 1636.97C3673.92 1642.29 3670.95 1647.65 3667.84 1652.89C3667.01 1654.32 3665.51 1655.09 3663.97 1655.09Z" fill="#91B3FA"/>
<path d="M3138.48 1663.89C3137 1663.89 3135.55 1663.17 3134.69 1661.83C3128.11 1651.56 3122.08 1640.79 3116.75 1629.8C3115.67 1627.57 3116.59 1624.89 3118.83 1623.81C3121.07 1622.73 3123.73 1623.67 3124.81 1625.89C3130 1636.55 3135.87 1647.01 3142.25 1656.99C3143.59 1659.08 3142.99 1661.85 3140.89 1663.19C3140.15 1663.67 3139.31 1663.89 3138.48 1663.89ZM3603.75 1728.11C3602.52 1728.11 3601.28 1727.6 3600.4 1726.61C3598.75 1724.76 3598.91 1721.92 3600.76 1720.28L3603.4 1717.89C3611.29 1710.69 3618.88 1703.01 3625.96 1695.05C3627.61 1693.19 3630.44 1693.03 3632.29 1694.68C3634.16 1696.33 3634.32 1699.16 3632.67 1701.01C3625.39 1709.2 3617.57 1717.12 3609.44 1724.53L3606.73 1726.97C3605.88 1727.73 3604.81 1728.11 3603.75 1728.11ZM3201.05 1734.88C3200.04 1734.88 3199.03 1734.53 3198.19 1733.84C3188.85 1726.05 3179.85 1717.6 3171.44 1708.72C3169.73 1706.92 3169.81 1704.08 3171.6 1702.37C3173.41 1700.68 3176.25 1700.75 3177.95 1702.55C3186.13 1711.17 3194.87 1719.37 3203.93 1726.95C3205.84 1728.53 3206.09 1731.36 3204.51 1733.27C3203.61 1734.33 3202.35 1734.88 3201.05 1734.88ZM3524.32 1779.56C3522.6 1779.56 3520.96 1778.57 3520.21 1776.91C3519.2 1774.64 3520.21 1771.99 3522.48 1770.97C3533.29 1766.13 3543.95 1760.61 3554.12 1754.53C3556.24 1753.27 3559 1753.96 3560.27 1756.09C3561.55 1758.21 3560.85 1760.97 3558.72 1762.24C3548.25 1768.49 3537.28 1774.19 3526.15 1779.17C3525.55 1779.44 3524.92 1779.56 3524.32 1779.56ZM3282.16 1783.59C3281.59 1783.59 3281.01 1783.48 3280.47 1783.27C3269.17 1778.68 3258.04 1773.36 3247.35 1767.47C3245.17 1766.28 3244.37 1763.55 3245.57 1761.37C3246.77 1759.2 3249.49 1758.41 3251.67 1759.61C3262.07 1765.33 3272.89 1770.49 3283.85 1774.95C3286.13 1775.88 3287.25 1778.49 3286.32 1780.8C3285.6 1782.53 3283.92 1783.59 3282.16 1783.59ZM3432.97 1804.39C3430.72 1804.39 3428.77 1802.68 3428.52 1800.39C3428.24 1797.93 3430.01 1795.71 3432.48 1795.43C3444.29 1794.11 3456.12 1792.08 3467.63 1789.41C3470.01 1788.83 3472.44 1790.35 3473.01 1792.76C3473.57 1795.17 3472.07 1797.59 3469.65 1798.15C3457.81 1800.91 3445.64 1802.99 3433.48 1804.36C3433.31 1804.37 3433.15 1804.39 3432.97 1804.39ZM3374.27 1805.33L3373.91 1805.32C3361.73 1804.36 3349.51 1802.68 3337.56 1800.32C3335.12 1799.84 3333.55 1797.47 3334.03 1795.04C3334.51 1792.61 3336.88 1791.03 3339.29 1791.51C3350.91 1793.8 3362.79 1795.44 3374.61 1796.37C3377.08 1796.56 3378.93 1798.73 3378.73 1801.2C3378.56 1803.55 3376.59 1805.33 3374.27 1805.33Z" fill="#91B3FA"/>
<path d="M3100.29 1577.11C3098.31 1577.11 3096.49 1575.77 3095.96 1573.76C3094.41 1567.93 3093.01 1561.96 3091.81 1556.04C3091.32 1553.61 3092.88 1551.24 3095.32 1550.75C3097.75 1550.25 3100.12 1551.81 3100.6 1554.25C3101.77 1560 3103.13 1565.79 3104.64 1571.47C3105.28 1573.85 3103.84 1576.32 3101.44 1576.95C3101.05 1577.05 3100.68 1577.11 3100.29 1577.11Z" fill="#91B3FA"/>
<path d="M3137.27 1333.49C3136.45 1333.49 3135.63 1333.28 3134.88 1332.8C3132.79 1331.48 3132.16 1328.72 3133.48 1326.61C3136.69 1321.49 3140.12 1316.41 3143.63 1311.49C3145.07 1309.48 3147.88 1309.01 3149.89 1310.45C3151.91 1311.89 3152.37 1314.69 3150.93 1316.71C3147.52 1321.48 3144.2 1326.43 3141.07 1331.4C3140.21 1332.76 3138.76 1333.49 3137.27 1333.49Z" fill="#91B3FA"/>
<path d="M3350 1193.07C3347.83 1193.07 3345.92 1191.49 3345.57 1189.28C3345.19 1186.83 3346.85 1184.53 3349.31 1184.15C3361.12 1182.28 3373.21 1181.07 3385.23 1180.56C3387.71 1180.51 3389.8 1182.37 3389.91 1184.85C3390.01 1187.33 3388.08 1189.43 3385.61 1189.53C3373.93 1190.03 3362.19 1191.2 3350.71 1193.01C3350.47 1193.05 3350.23 1193.07 3350 1193.07ZM3477.99 1199.64C3477.61 1199.64 3477.21 1199.59 3476.83 1199.48C3465.57 1196.49 3454.01 1194.13 3442.48 1192.45C3440.03 1192.09 3438.32 1189.81 3438.68 1187.36C3439.04 1184.91 3441.29 1183.15 3443.76 1183.57C3455.64 1185.29 3467.55 1187.73 3479.13 1190.81C3481.53 1191.44 3482.96 1193.91 3482.32 1196.29C3481.79 1198.31 3479.97 1199.64 3477.99 1199.64ZM3261.31 1221.36C3259.65 1221.36 3258.07 1220.45 3257.28 1218.88C3256.17 1216.65 3257.08 1213.96 3259.29 1212.85C3270.03 1207.52 3281.2 1202.76 3292.52 1198.68C3294.87 1197.85 3297.41 1199.05 3298.27 1201.39C3299.11 1203.72 3297.89 1206.29 3295.56 1207.13C3284.56 1211.09 3273.71 1215.72 3263.29 1220.89C3262.65 1221.21 3261.97 1221.36 3261.31 1221.36ZM3563.29 1236.87C3562.47 1236.87 3561.64 1236.64 3560.89 1236.17C3551.04 1229.95 3540.72 1224.24 3530.23 1219.2C3528 1218.12 3527.05 1215.44 3528.13 1213.21C3529.2 1210.97 3531.87 1210.01 3534.12 1211.11C3544.92 1216.29 3555.55 1222.17 3565.69 1228.59C3567.79 1229.91 3568.41 1232.68 3567.09 1234.77C3566.24 1236.13 3564.77 1236.87 3563.29 1236.87ZM3185.13 1274.93C3183.96 1274.93 3182.77 1274.47 3181.89 1273.55C3180.17 1271.75 3180.24 1268.91 3182.04 1267.2C3183.85 1265.47 3185.69 1263.75 3187.56 1262.05C3194.56 1255.65 3201.95 1249.49 3209.49 1243.77C3211.47 1242.27 3214.28 1242.64 3215.79 1244.63C3217.28 1246.6 3216.91 1249.41 3214.92 1250.92C3207.6 1256.48 3200.41 1262.47 3193.61 1268.68C3191.8 1270.33 3190 1272.01 3188.24 1273.69C3187.36 1274.52 3186.25 1274.93 3185.13 1274.93ZM3633.56 1297.96C3632.29 1297.96 3631.04 1297.43 3630.15 1296.39C3627.85 1293.69 3625.51 1291.03 3623.11 1288.39C3617.63 1282.39 3611.85 1276.55 3605.93 1271C3604.12 1269.31 3604.03 1266.47 3605.72 1264.65C3607.41 1262.84 3610.25 1262.75 3612.07 1264.44C3618.16 1270.15 3624.11 1276.17 3629.73 1282.35C3632.21 1285.05 3634.63 1287.79 3636.99 1290.56C3638.59 1292.45 3638.36 1295.28 3636.48 1296.89C3635.63 1297.61 3634.6 1297.96 3633.56 1297.96ZM3682.55 1377.15C3680.8 1377.15 3679.13 1376.13 3678.41 1374.41C3673.85 1363.69 3668.63 1353.12 3662.85 1342.99C3661.63 1340.84 3662.37 1338.09 3664.53 1336.87C3666.68 1335.64 3669.41 1336.4 3670.65 1338.55C3676.6 1348.97 3681.99 1359.87 3686.68 1370.91C3687.64 1373.19 3686.59 1375.83 3684.29 1376.8C3683.72 1377.04 3683.13 1377.15 3682.55 1377.15Z" fill="#91B3FA"/>
<path d="M3703.32 1450C3701.15 1450 3699.24 1448.41 3698.89 1446.2C3697.99 1440.4 3696.89 1434.55 3695.67 1428.81C3695.15 1426.39 3696.68 1424 3699.11 1423.48C3701.57 1422.96 3703.92 1424.51 3704.44 1426.92C3705.71 1432.83 3706.83 1438.85 3707.76 1444.81C3708.15 1447.27 3706.47 1449.56 3704.01 1449.95C3703.79 1449.97 3703.55 1450 3703.32 1450Z" fill="#91B3FA"/>
<path d="M3635.41 1486.4C3635.53 1484.83 3634.64 1483.35 3633.19 1482.71L3591.85 1464.76C3588.67 1443.95 3582.13 1423.51 3572.17 1404.27L3594.99 1365.44C3595.79 1364.08 3595.63 1362.36 3594.61 1361.16L3559.47 1320.08C3558.44 1318.88 3556.76 1318.45 3555.29 1319.04L3513.4 1335.56C3495.93 1322.75 3476.75 1313.12 3456.69 1306.75L3445.36 1263.13C3444.96 1261.6 3443.64 1260.49 3442.05 1260.37L3388.16 1256.17C3386.59 1256.04 3385.11 1256.93 3384.48 1258.39L3366.52 1299.72C3345.72 1302.92 3325.28 1309.45 3306.04 1319.4L3267.2 1296.59C3265.84 1295.79 3264.12 1295.95 3262.92 1296.97L3221.84 1332.11C3220.64 1333.13 3220.23 1334.81 3220.81 1336.28L3237.33 1378.19C3224.52 1395.64 3214.89 1414.83 3208.52 1434.89L3164.89 1446.23C3163.37 1446.63 3162.27 1447.95 3162.13 1449.52L3157.93 1503.41C3157.81 1504.99 3158.71 1506.47 3160.16 1507.09L3201.49 1525.05C3204.68 1545.85 3211.21 1566.31 3221.17 1585.53L3198.36 1624.37C3197.56 1625.73 3197.72 1627.45 3198.73 1628.65L3233.88 1669.73C3234.91 1670.93 3236.59 1671.35 3238.05 1670.77L3279.95 1654.25C3297.41 1667.07 3316.6 1676.68 3336.65 1683.07L3347.99 1726.68C3348.39 1728.21 3349.71 1729.32 3351.29 1729.44L3405.19 1733.64C3406.76 1733.76 3408.24 1732.87 3408.87 1731.43L3426.83 1690.09C3447.63 1686.89 3468.07 1680.36 3487.31 1670.4L3526.15 1693.21C3527.51 1694.01 3529.23 1693.87 3530.43 1692.84L3571.49 1657.69C3572.71 1656.67 3573.12 1655 3572.53 1653.53L3556.01 1611.63C3568.83 1594.16 3578.45 1574.99 3584.83 1554.92L3628.45 1543.59C3629.97 1543.19 3631.08 1541.87 3631.21 1540.29L3635.41 1486.4Z" fill="#91B3FA"/>
<path d="M3396.56 1549.65C3385.33 1549.65 3374.4 1546.2 3365.05 1539.59C3340.43 1522.15 3334.56 1487.92 3352 1463.29C3360.44 1451.35 3373.03 1443.43 3387.44 1440.96C3390.56 1440.43 3393.69 1440.16 3396.79 1440.16C3408.01 1440.16 3418.95 1443.61 3428.29 1450.23C3440.23 1458.68 3448.16 1471.25 3450.63 1485.67C3453.09 1500.08 3449.8 1514.59 3441.35 1526.52C3432.91 1538.47 3420.32 1546.39 3405.91 1548.85C3402.79 1549.39 3399.67 1549.65 3396.56 1549.65ZM3396.73 1453.65C3383.77 1453.65 3371.03 1459.71 3362.99 1471.07C3349.85 1489.64 3354.27 1515.44 3372.84 1528.59C3379.88 1533.57 3388.13 1536.19 3396.59 1536.19C3398.93 1536.19 3401.28 1535.99 3403.63 1535.59C3414.49 1533.72 3423.99 1527.75 3430.36 1518.75C3436.72 1509.75 3439.2 1498.8 3437.35 1487.95C3435.49 1477.08 3429.51 1467.59 3420.52 1461.23C3413.29 1456.11 3404.97 1453.65 3396.73 1453.65Z" fill="white"/>
<path d="M3395.75 1632.09C3392.13 1632.09 3388.51 1631.96 3384.87 1631.67C3348.33 1628.83 3315.11 1611.92 3291.29 1584.08C3269.21 1558.28 3258.41 1526.56 3258.41 1495C3258.41 1456.27 3274.68 1417.76 3306.36 1390.67C3332.16 1368.6 3363.87 1357.79 3395.43 1357.79C3434.16 1357.79 3472.67 1374.07 3499.76 1405.75C3500.15 1406.19 3500.53 1406.64 3500.91 1407.09C3506.24 1413.49 3510.99 1420.36 3515.05 1427.56L3515.09 1427.64L3515.28 1427.96C3515.39 1428.15 3515.48 1428.33 3515.59 1428.52L3515.76 1428.83C3515.95 1429.16 3516.12 1429.48 3516.29 1429.81L3504.45 1436.21C3500.28 1428.51 3495.27 1421.21 3489.53 1414.49C3465.09 1385.93 3430.36 1371.25 3395.43 1371.25C3385.48 1371.25 3375.52 1372.45 3365.77 1374.85C3347.63 1379.31 3330.24 1387.96 3315.11 1400.91C3286.55 1425.33 3271.88 1460.07 3271.87 1494.99C3271.87 1523.45 3281.61 1552.05 3301.52 1575.32C3325.95 1603.88 3360.68 1618.56 3395.61 1618.56C3424.08 1618.56 3452.67 1608.83 3475.95 1588.92C3492.97 1574.33 3505.72 1555.45 3512.8 1534.31L3525.59 1538.59C3517.72 1562.04 3503.59 1582.99 3484.69 1599.15C3459.63 1620.59 3428.39 1632.09 3395.75 1632.09Z" fill="white"/>
<mask id="mask5_0_1" style="mask-type:luminance" maskUnits="userSpaceOnUse" x="2504" y="1827" width="1544" height="1851">
<path d="M3256.75 3677.15C3249.76 3677.15 3242.8 3675.77 3236.28 3673.07C3233.61 3671.96 3231.04 3670.64 3228.55 3669.09C3213.95 3660 3199.69 3650.88 3185.68 3641.68C3096.72 3583.27 3019.45 3522.72 2952.47 3460.73C2945.47 3454.25 2938.6 3447.77 2931.81 3441.27C2793.04 3308.01 2700.23 3168.21 2637.87 3027.36C2636.32 3023.87 2634.79 3020.35 2633.28 3016.85C2630.28 3009.91 2627.35 3002.95 2624.48 2995.99C2618.19 2980.67 2612.25 2965.37 2606.63 2950.04C2503.95 2670.07 2510.27 2390.11 2504.83 2153.8C2504.48 2138.64 2510.59 2124.05 2521.65 2113.68C2531.55 2104.41 2544.56 2099.31 2558.01 2099.31C2559.6 2099.31 2561.19 2099.39 2562.79 2099.52C2575.32 2100.65 2588.72 2101.23 2602.83 2101.23C2726.79 2101.23 2906.93 2057.17 3065.88 1959.09C3121.96 1924.48 3175.4 1883.15 3222.8 1834.65C3227.97 1829.35 3234.77 1827.2 3242.07 1827.2C3254.04 1827.2 3267.35 1833 3277.09 1840.28C3341.23 1888.23 3417.71 1925.03 3496.97 1953.29C3688.49 2021.57 3896.29 2039.99 3985.45 2044.88C4011.53 2046.32 4032.69 2066.55 4035.39 2092.53C4069.93 2426.16 4028.65 2695.63 3949.97 2911.35C3931.97 2960.69 3912.04 3007.21 3890.59 3051.05C3694.57 3451.68 3373.68 3627.43 3279.49 3672.04C3272.28 3675.45 3264.51 3677.15 3256.75 3677.15ZM2602.68 2180.44C2597.85 2180.44 2593.35 2182.32 2590 2185.75C2586.67 2189.13 2584.88 2193.63 2584.96 2198.39L2585.48 2226.89C2589.24 2440.77 2593.49 2683.19 2680.45 2921.25C2777.81 3187.8 2964.04 3406.16 3249.77 3588.81C3252.67 3590.67 3256 3591.6 3259.33 3591.6C3262.09 3591.6 3264.85 3590.96 3267.37 3589.67C3341.83 3551.39 3532.35 3439.12 3693.01 3223.64C3908.13 2935.12 3998.01 2569.75 3960.13 2137.65C3959.37 2128.97 3952.53 2122.23 3943.85 2121.57C3780.92 2109.57 3475.6 2068.21 3261.57 1926.2C3258.59 1924.23 3255.19 1923.25 3251.8 1923.25C3247.56 1923.25 3243.35 1924.77 3240.03 1927.76C3045.23 2102.31 2779.63 2180.44 2602.68 2180.44ZM3259.32 3584.35C3257.36 3584.35 3255.39 3583.79 3253.68 3582.71C2969.35 3400.93 2784.07 3183.76 2687.27 2918.76C2600.72 2681.84 2596.47 2440.08 2592.73 2226.76L2592.21 2198.25C2592.16 2195.45 2593.21 2192.81 2595.17 2190.83C2597.16 2188.81 2599.83 2187.69 2602.83 2187.69C2781.01 2187.69 3048.64 2108.99 3244.87 1933.16C3246.83 1931.4 3249.31 1930.51 3251.8 1930.51C3253.8 1930.51 3255.8 1931.08 3257.56 1932.24C3472.97 2075.17 3779.68 2116.75 3943.33 2128.81C3948.43 2129.19 3952.45 2133.17 3952.91 2138.29C3990.61 2568.55 3901.23 2932.25 3687.2 3219.31C3527.44 3433.57 3338.07 3545.17 3264.05 3583.21C3262.57 3583.97 3260.95 3584.35 3259.32 3584.35ZM2991.91 2558.89C2957 2558.89 2928.69 2587.2 2928.69 2622.11V3059.35C2928.69 3094.25 2957 3122.56 2991.91 3122.56H3561.63C3596.53 3122.56 3624.84 3094.25 3624.84 3059.35V2622.11C3624.84 2587.2 3596.53 2558.89 3561.63 2558.89H2991.91ZM3172.35 2311.55H3381.19C3422.41 2311.55 3455.84 2344.97 3455.84 2386.21V2501.4C3455.84 2518.15 3469.41 2531.71 3486.15 2531.71H3519.85C3536.59 2531.71 3550.15 2518.15 3550.15 2501.4V2386.21C3550.15 2292.89 3474.51 2217.24 3381.19 2217.24H3172.35C3079.03 2217.24 3003.37 2292.89 3003.37 2386.21V2501.4C3003.37 2518.15 3016.95 2531.71 3033.68 2531.71H3067.39C3084.12 2531.71 3097.68 2518.15 3097.68 2501.4V2386.21C3097.68 2344.97 3131.11 2311.55 3172.35 2311.55ZM3335.51 3010.39H3218.03C3202.88 3010.39 3191.72 2996.21 3195.25 2981.49L3222.67 2867.37C3190.31 2848.03 3169.15 2811.87 3171.31 2770.96C3174.11 2717.96 3217.05 2674.57 3270.03 2671.28C3272.28 2671.15 3274.53 2671.08 3276.76 2671.08C3335.09 2671.08 3382.37 2718.35 3382.37 2776.68C3382.37 2815.23 3361.71 2848.93 3330.87 2867.37L3358.28 2981.49C3361.81 2996.21 3350.65 3010.39 3335.51 3010.39Z" fill="white"/>
</mask>
<g mask="url(#mask5_0_1)">
<path d="M3256.75 3677.15C3249.76 3677.15 3242.8 3675.77 3236.28 3673.07C3233.61 3671.96 3231.04 3670.64 3228.55 3669.09C3213.95 3660 3199.69 3650.88 3185.68 3641.68C3096.72 3583.27 3019.45 3522.72 2952.47 3460.73C2945.47 3454.25 2938.6 3447.77 2931.81 3441.27C2793.04 3308.01 2700.23 3168.21 2637.87 3027.36C2636.32 3023.87 2634.79 3020.35 2633.28 3016.85C2630.28 3009.91 2627.35 3002.95 2624.48 2995.99C2618.19 2980.67 2612.25 2965.37 2606.63 2950.04C2503.95 2670.07 2510.27 2390.11 2504.83 2153.8C2504.48 2138.64 2510.59 2124.05 2521.65 2113.68C2531.55 2104.41 2544.56 2099.31 2558.01 2099.31C2559.6 2099.31 2561.19 2099.39 2562.79 2099.52C2575.32 2100.65 2588.72 2101.23 2602.83 2101.23C2726.79 2101.23 2906.93 2057.17 3065.88 1959.09C3121.96 1924.48 3175.4 1883.15 3222.8 1834.65C3227.97 1829.35 3234.77 1827.2 3242.07 1827.2C3254.04 1827.2 3267.35 1833 3277.09 1840.28C3341.23 1888.23 3417.71 1925.03 3496.97 1953.29C3688.49 2021.57 3896.29 2039.99 3985.45 2044.88C4011.53 2046.32 4032.69 2066.55 4035.39 2092.53C4069.93 2426.16 4028.65 2695.63 3949.97 2911.35C3931.97 2960.69 3912.04 3007.21 3890.59 3051.05C3694.57 3451.68 3373.68 3627.43 3279.49 3672.04C3272.28 3675.45 3264.51 3677.15 3256.75 3677.15ZM2602.68 2180.44C2597.85 2180.44 2593.35 2182.32 2590 2185.75C2586.67 2189.13 2584.88 2193.63 2584.96 2198.39L2585.48 2226.89C2589.24 2440.77 2593.49 2683.19 2680.45 2921.25C2777.81 3187.8 2964.04 3406.16 3249.77 3588.81C3252.67 3590.67 3256 3591.6 3259.33 3591.6C3262.09 3591.6 3264.85 3590.96 3267.37 3589.67C3341.83 3551.39 3532.35 3439.12 3693.01 3223.64C3908.13 2935.12 3998.01 2569.75 3960.13 2137.65C3959.37 2128.97 3952.53 2122.23 3943.85 2121.57C3780.92 2109.57 3475.6 2068.21 3261.57 1926.2C3258.59 1924.23 3255.19 1923.25 3251.8 1923.25C3247.56 1923.25 3243.35 1924.77 3240.03 1927.76C3045.23 2102.31 2779.63 2180.44 2602.68 2180.44ZM3259.32 3584.35C3257.36 3584.35 3255.39 3583.79 3253.68 3582.71C2969.35 3400.93 2784.07 3183.76 2687.27 2918.76C2600.72 2681.84 2596.47 2440.08 2592.73 2226.76L2592.21 2198.25C2592.16 2195.45 2593.21 2192.81 2595.17 2190.83C2597.16 2188.81 2599.83 2187.69 2602.83 2187.69C2781.01 2187.69 3048.64 2108.99 3244.87 1933.16C3246.83 1931.4 3249.31 1930.51 3251.8 1930.51C3253.8 1930.51 3255.8 1931.08 3257.56 1932.24C3472.97 2075.17 3779.68 2116.75 3943.33 2128.81C3948.43 2129.19 3952.45 2133.17 3952.91 2138.29C3990.61 2568.55 3901.23 2932.25 3687.2 3219.31C3527.44 3433.57 3338.07 3545.17 3264.05 3583.21C3262.57 3583.97 3260.95 3584.35 3259.32 3584.35ZM2991.91 2558.89C2957 2558.89 2928.69 2587.2 2928.69 2622.11V3059.35C2928.69 3094.25 2957 3122.56 2991.91 3122.56H3561.63C3596.53 3122.56 3624.84 3094.25 3624.84 3059.35V2622.11C3624.84 2587.2 3596.53 2558.89 3561.63 2558.89H2991.91ZM3172.35 2311.55H3381.19C3422.41 2311.55 3455.84 2344.97 3455.84 2386.21V2501.4C3455.84 2518.15 3469.41 2531.71 3486.15 2531.71H3519.85C3536.59 2531.71 3550.15 2518.15 3550.15 2501.4V2386.21C3550.15 2292.89 3474.51 2217.24 3381.19 2217.24H3172.35C3079.03 2217.24 3003.37 2292.89 3003.37 2386.21V2501.4C3003.37 2518.15 3016.95 2531.71 3033.68 2531.71H3067.39C3084.12 2531.71 3097.68 2518.15 3097.68 2501.4V2386.21C3097.68 2344.97 3131.11 2311.55 3172.35 2311.55ZM3335.51 3010.39H3218.03C3202.88 3010.39 3191.72 2996.21 3195.25 2981.49L3222.67 2867.37C3190.31 2848.03 3169.15 2811.87 3171.31 2770.96C3174.11 2717.96 3217.05 2674.57 3270.03 2671.28C3272.28 2671.15 3274.53 2671.08 3276.76 2671.08C3335.09 2671.08 3382.37 2718.35 3382.37 2776.68C3382.37 2815.23 3361.71 2848.93 3330.87 2867.37L3358.28 2981.49C3361.81 2996.21 3350.65 3010.39 3335.51 3010.39Z" fill="url(#paint5_linear_0_1)"/>
</g>
<mask id="mask6_0_1" style="mask-type:luminance" maskUnits="userSpaceOnUse" x="2584" y="1923" width="1385" height="1669">
<path d="M3259.33 3591.6C3256 3591.6 3252.67 3590.67 3249.77 3588.81C2964.04 3406.16 2777.81 3187.8 2680.45 2921.25C2593.49 2683.19 2589.24 2440.77 2585.48 2226.89L2584.96 2198.39C2584.88 2193.63 2586.67 2189.13 2590 2185.75C2593.35 2182.32 2597.85 2180.44 2602.68 2180.44C2779.63 2180.44 3045.23 2102.31 3240.03 1927.76C3243.35 1924.77 3247.56 1923.25 3251.8 1923.25C3255.19 1923.25 3258.59 1924.23 3261.57 1926.2C3475.6 2068.21 3780.92 2109.57 3943.85 2121.57C3952.53 2122.23 3959.37 2128.97 3960.13 2137.65C3998.01 2569.75 3908.13 2935.12 3693.01 3223.64C3532.35 3439.12 3341.83 3551.39 3267.37 3589.67C3264.85 3590.96 3262.09 3591.6 3259.33 3591.6ZM2602.83 2187.69C2599.83 2187.69 2597.16 2188.81 2595.17 2190.83C2593.21 2192.81 2592.16 2195.45 2592.21 2198.25L2592.73 2226.76C2596.47 2440.08 2600.72 2681.84 2687.27 2918.76C2784.07 3183.76 2969.35 3400.93 3253.68 3582.71C3255.39 3583.79 3257.36 3584.35 3259.32 3584.35C3260.95 3584.35 3262.57 3583.97 3264.05 3583.21C3338.07 3545.17 3527.44 3433.57 3687.2 3219.31C3901.23 2932.25 3990.61 2568.55 3952.91 2138.29C3952.45 2133.17 3948.43 2129.19 3943.33 2128.81C3779.68 2116.75 3472.97 2075.17 3257.56 1932.24C3255.8 1931.08 3253.8 1930.51 3251.8 1930.51C3249.31 1930.51 3246.83 1931.4 3244.87 1933.16C3048.64 2108.99 2781.01 2187.69 2602.83 2187.69Z" fill="white"/>
</mask>
<g mask="url(#mask6_0_1)">
<path d="M3259.33 3591.6C3256 3591.6 3252.67 3590.67 3249.77 3588.81C2964.04 3406.16 2777.81 3187.8 2680.45 2921.25C2593.49 2683.19 2589.24 2440.77 2585.48 2226.89L2584.96 2198.39C2584.88 2193.63 2586.67 2189.13 2590 2185.75C2593.35 2182.32 2597.85 2180.44 2602.68 2180.44C2779.63 2180.44 3045.23 2102.31 3240.03 1927.76C3243.35 1924.77 3247.56 1923.25 3251.8 1923.25C3255.19 1923.25 3258.59 1924.23 3261.57 1926.2C3475.6 2068.21 3780.92 2109.57 3943.85 2121.57C3952.53 2122.23 3959.37 2128.97 3960.13 2137.65C3998.01 2569.75 3908.13 2935.12 3693.01 3223.64C3532.35 3439.12 3341.83 3551.39 3267.37 3589.67C3264.85 3590.96 3262.09 3591.6 3259.33 3591.6ZM2602.83 2187.69C2599.83 2187.69 2597.16 2188.81 2595.17 2190.83C2593.21 2192.81 2592.16 2195.45 2592.21 2198.25L2592.73 2226.76C2596.47 2440.08 2600.72 2681.84 2687.27 2918.76C2784.07 3183.76 2969.35 3400.93 3253.68 3582.71C3255.39 3583.79 3257.36 3584.35 3259.32 3584.35C3260.95 3584.35 3262.57 3583.97 3264.05 3583.21C3338.07 3545.17 3527.44 3433.57 3687.2 3219.31C3901.23 2932.25 3990.61 2568.55 3952.91 2138.29C3952.45 2133.17 3948.43 2129.19 3943.33 2128.81C3779.68 2116.75 3472.97 2075.17 3257.56 1932.24C3255.8 1931.08 3253.8 1930.51 3251.8 1930.51C3249.31 1930.51 3246.83 1931.4 3244.87 1933.16C3048.64 2108.99 2781.01 2187.69 2602.83 2187.69Z" fill="url(#paint6_linear_0_1)"/>
</g>
<mask id="mask7_0_1" style="mask-type:luminance" maskUnits="userSpaceOnUse" x="3003" y="2217" width="548" height="315">
<path d="M3519.85 2531.71H3486.15C3469.41 2531.71 3455.84 2518.15 3455.84 2501.4V2386.21C3455.84 2344.97 3422.41 2311.55 3381.19 2311.55H3172.35C3131.11 2311.55 3097.68 2344.97 3097.68 2386.21V2501.4C3097.68 2518.15 3084.12 2531.71 3067.39 2531.71H3033.68C3016.95 2531.71 3003.37 2518.15 3003.37 2501.4V2386.21C3003.37 2292.89 3079.03 2217.24 3172.35 2217.24H3381.19C3474.51 2217.24 3550.15 2292.89 3550.15 2386.21V2501.4C3550.15 2518.15 3536.59 2531.71 3519.85 2531.71Z" fill="white"/>
</mask>
<g mask="url(#mask7_0_1)">
<path d="M3519.85 2531.71H3486.15C3469.41 2531.71 3455.84 2518.15 3455.84 2501.4V2386.21C3455.84 2344.97 3422.41 2311.55 3381.19 2311.55H3172.35C3131.11 2311.55 3097.68 2344.97 3097.68 2386.21V2501.4C3097.68 2518.15 3084.12 2531.71 3067.39 2531.71H3033.68C3016.95 2531.71 3003.37 2518.15 3003.37 2501.4V2386.21C3003.37 2292.89 3079.03 2217.24 3172.35 2217.24H3381.19C3474.51 2217.24 3550.15 2292.89 3550.15 2386.21V2501.4C3550.15 2518.15 3536.59 2531.71 3519.85 2531.71Z" fill="url(#paint7_linear_0_1)"/>
</g>
<mask id="mask8_0_1" style="mask-type:luminance" maskUnits="userSpaceOnUse" x="2928" y="2558" width="697" height="565">
<path d="M3561.63 3122.56H2991.91C2957 3122.56 2928.69 3094.25 2928.69 3059.35V2622.11C2928.69 2587.2 2957 2558.89 2991.91 2558.89H3561.63C3596.53 2558.89 3624.84 2587.2 3624.84 2622.11V3059.35C3624.84 3094.25 3596.53 3122.56 3561.63 3122.56ZM3276.76 2671.08C3274.53 2671.08 3272.28 2671.15 3270.03 2671.28C3217.05 2674.57 3174.11 2717.96 3171.31 2770.96C3169.15 2811.87 3190.31 2848.03 3222.67 2867.37L3195.25 2981.49C3191.72 2996.21 3202.88 3010.39 3218.03 3010.39H3335.51C3350.65 3010.39 3361.81 2996.21 3358.28 2981.49L3330.87 2867.37C3361.71 2848.93 3382.37 2815.23 3382.37 2776.68C3382.37 2718.35 3335.09 2671.08 3276.76 2671.08Z" fill="white"/>
</mask>
<g mask="url(#mask8_0_1)">
<path d="M3561.63 3122.56H2991.91C2957 3122.56 2928.69 3094.25 2928.69 3059.35V2622.11C2928.69 2587.2 2957 2558.89 2991.91 2558.89H3561.63C3596.53 2558.89 3624.84 2587.2 3624.84 2622.11V3059.35C3624.84 3094.25 3596.53 3122.56 3561.63 3122.56ZM3276.76 2671.08C3274.53 2671.08 3272.28 2671.15 3270.03 2671.28C3217.05 2674.57 3174.11 2717.96 3171.31 2770.96C3169.15 2811.87 3190.31 2848.03 3222.67 2867.37L3195.25 2981.49C3191.72 2996.21 3202.88 3010.39 3218.03 3010.39H3335.51C3350.65 3010.39 3361.81 2996.21 3358.28 2981.49L3330.87 2867.37C3361.71 2848.93 3382.37 2815.23 3382.37 2776.68C3382.37 2718.35 3335.09 2671.08 3276.76 2671.08Z" fill="url(#paint8_linear_0_1)"/>
</g>
<mask id="mask9_0_1" style="mask-type:luminance" maskUnits="userSpaceOnUse" x="890" y="2415" width="255" height="218">
<path d="M1092.93 2415.96C1092.93 2415.96 1139.07 2418.4 1144.73 2513.33C1144.73 2513.33 1037.73 2609.25 893.2 2632.08C882.348 2633.8 908.369 2558.01 912.28 2547.75C930.892 2498.91 989.507 2467.45 1092.93 2415.96Z" fill="white"/>
</mask>
<g mask="url(#mask9_0_1)">
<path d="M1092.93 2415.96C1092.93 2415.96 1139.07 2418.4 1144.73 2513.33C1144.73 2513.33 1037.73 2609.25 893.2 2632.08C882.348 2633.8 908.369 2558.01 912.28 2547.75C930.892 2498.91 989.507 2467.45 1092.93 2415.96Z" fill="url(#paint9_linear_0_1)"/>
</g>
<path d="M1612.59 2304.35H1515.21C1515.21 2304.35 1216.36 1974.28 1020.34 1940.97C1020.34 1940.97 883.895 2115.15 1027.61 2440.59C1039.17 2466.76 1071.5 2478.39 1095.62 2462.99C1102.83 2458.37 1108.01 2452.2 1111.16 2444.47L1099.61 2166.6C1099.61 2166.6 1354.53 2389.56 1398.85 2432.59C1443.16 2475.61 1668.4 2449.39 1612.59 2304.35Z" fill="#7D97F4"/>
<mask id="mask10_0_1" style="mask-type:luminance" maskUnits="userSpaceOnUse" x="670" y="2909" width="233" height="135">
<path d="M671.204 2997.33C712.008 2961.57 777.024 2921.45 870.88 2909.95L902.621 2929.36C902.621 2929.36 882.381 2959.23 845.405 2990.76C811.421 3010.49 758.945 3037.23 715.441 3043.03C673.144 3048.65 666.907 3023.09 671.204 2997.33Z" fill="white"/>
</mask>
<g mask="url(#mask10_0_1)">
<path d="M671.204 2997.33C712.008 2961.57 777.024 2921.45 870.88 2909.95L902.621 2929.36C902.621 2929.36 882.381 2959.23 845.405 2990.76C811.421 3010.49 758.945 3037.23 715.441 3043.03C673.144 3048.65 666.907 3023.09 671.204 2997.33Z" fill="url(#paint10_linear_0_1)"/>
</g>
<path d="M912.28 2547.75C937.417 2555.88 948.473 2591.51 1012.26 2567.95C1073.97 2545.16 1119.85 2515.77 1143.45 2498.83C1143.98 2503.43 1144.42 2508.23 1144.73 2513.33C1144.73 2513.33 1031.91 2620.64 887.379 2643.48C876.528 2645.19 867.929 2634.36 871.841 2624.09C878.86 2605.67 891.513 2577.73 912.28 2547.75Z" fill="#91B3FA"/>
<path d="M640.465 3027.87C648.509 3018.72 658.776 3008.23 671.204 2997.33C666.907 3023.09 673.144 3048.65 715.441 3043.03C758.945 3037.23 811.421 3010.49 845.405 2990.76C802.812 3027.08 738.005 3065.64 656.209 3063.37C638.04 3062.87 628.459 3041.51 640.465 3027.87Z" fill="#91B3FA"/>
<path d="M1609.03 2374.8L1153.04 2379.73C1153.04 2379.73 892.637 2595.17 845.405 2923.69C845.405 2923.69 837.565 2947.87 884.636 2952C884.636 2952 1042.07 2849.17 1144.73 2667.37C1270.6 2444.47 1519.97 2544.8 1519.97 2544.8C1639.77 2571.24 1735.12 2561.4 1804.91 2454.03L1609.03 2374.8Z" fill="#7D97F4"/>
<mask id="mask11_0_1" style="mask-type:luminance" maskUnits="userSpaceOnUse" x="1202" y="2007" width="477" height="373">
<path d="M1598.27 2007.47C1598.27 2007.47 1549.17 2253.48 1308.65 2350.8L1223.1 2340.72L1202.91 2372.91L1403.6 2379.31C1403.6 2379.31 1575.13 2311.36 1666.03 2126.23C1669.03 2120.11 1719.08 2016.76 1598.27 2007.47Z" fill="white"/>
</mask>
<g mask="url(#mask11_0_1)">
<path d="M1598.27 2007.47C1598.27 2007.47 1549.17 2253.48 1308.65 2350.8L1223.1 2340.72L1202.91 2372.91L1403.6 2379.31C1403.6 2379.31 1575.13 2311.36 1666.03 2126.23C1669.03 2120.11 1719.08 2016.76 1598.27 2007.47Z" fill="url(#paint11_linear_0_1)"/>
</g>
<mask id="mask12_0_1" style="mask-type:luminance" maskUnits="userSpaceOnUse" x="1564" y="1771" width="531" height="687">
<path d="M1571.96 2370.77C1571.96 2370.77 1627.77 2219.04 1639.77 2071.6C1639.77 2071.6 1598.93 2036.51 1573.41 2021.36C1565.15 2016.45 1562.03 2006.08 1566.2 1997.43C1584.97 1958.55 1698.45 1805.91 1706.96 1803.79C1753.16 1792.25 1942.67 1702.15 2076.13 1884.71C2133.41 1963.05 2064.77 2204.24 1804.91 2454.03C1721.29 2467.64 1643.11 2443.55 1571.96 2370.77Z" fill="white"/>
</mask>
<g mask="url(#mask12_0_1)">
<path d="M1571.96 2370.77C1571.96 2370.77 1627.77 2219.04 1639.77 2071.6C1639.77 2071.6 1598.93 2036.51 1573.41 2021.36C1565.15 2016.45 1562.03 2006.08 1566.2 1997.43C1584.97 1958.55 1698.45 1805.91 1706.96 1803.79C1753.16 1792.25 1942.67 1702.15 2076.13 1884.71C2133.41 1963.05 2064.77 2204.24 1804.91 2454.03C1721.29 2467.64 1643.11 2443.55 1571.96 2370.77Z" fill="url(#paint12_linear_0_1)"/>
</g>
<mask id="mask13_0_1" style="mask-type:luminance" maskUnits="userSpaceOnUse" x="1253" y="2104" width="617" height="272">
<path d="M1787.05 2104.84C1787.05 2104.84 1631.96 2288.48 1433.68 2315.32C1433.68 2315.32 1382.44 2268.61 1344.33 2285.28C1306.22 2301.96 1253.97 2375.59 1253.97 2375.59H1508.57C1508.57 2375.59 1749.29 2367.11 1869.59 2221.13C1859.91 2170.05 1830.92 2139.53 1787.05 2104.84Z" fill="white"/>
</mask>
<g mask="url(#mask13_0_1)">
<path d="M1787.05 2104.84C1787.05 2104.84 1631.96 2288.48 1433.68 2315.32C1433.68 2315.32 1382.44 2268.61 1344.33 2285.28C1306.22 2301.96 1253.97 2375.59 1253.97 2375.59H1508.57C1508.57 2375.59 1749.29 2367.11 1869.59 2221.13C1859.91 2170.05 1830.92 2139.53 1787.05 2104.84Z" fill="url(#paint13_linear_0_1)"/>
</g>
<mask id="mask14_0_1" style="mask-type:luminance" maskUnits="userSpaceOnUse" x="1769" y="1674" width="143" height="149">
<path d="M1877.52 1674.99L1911.45 1788.16C1913.01 1793.35 1911.09 1798.96 1906.63 1802.01C1890.29 1813.21 1847.59 1835.47 1789.01 1813.84C1782.32 1811.36 1777.72 1805.11 1777.15 1797.99L1769.09 1699.39L1877.52 1674.99Z" fill="white"/>
</mask>
<g mask="url(#mask14_0_1)">
<path d="M1877.52 1674.99L1911.45 1788.16C1913.01 1793.35 1911.09 1798.96 1906.63 1802.01C1890.29 1813.21 1847.59 1835.47 1789.01 1813.84C1782.32 1811.36 1777.72 1805.11 1777.15 1797.99L1769.09 1699.39L1877.52 1674.99Z" fill="url(#paint14_linear_0_1)"/>
</g>
<mask id="mask15_0_1" style="mask-type:luminance" maskUnits="userSpaceOnUse" x="1678" y="1505" width="226" height="248">
<path d="M1678.83 1583.32C1678.83 1583.32 1695.51 1700.64 1740.57 1736.72C1785.64 1772.8 1873.45 1745.64 1903.11 1657.19L1844.01 1505.96L1678.83 1583.32Z" fill="white"/>
</mask>
<g mask="url(#mask15_0_1)">
<path d="M1678.83 1583.32C1678.83 1583.32 1695.51 1700.64 1740.57 1736.72C1785.64 1772.8 1873.45 1745.64 1903.11 1657.19L1844.01 1505.96L1678.83 1583.32Z" fill="url(#paint15_linear_0_1)"/>
</g>
<mask id="mask16_0_1" style="mask-type:luminance" maskUnits="userSpaceOnUse" x="1604" y="1407" width="366" height="261">
<path d="M1850.67 1603.83C1847.24 1604.93 1843.65 1602.73 1843.12 1599.17C1841.49 1588.35 1837.43 1566.91 1829.21 1552.31C1829.21 1552.31 1833.51 1536.92 1790.31 1560.17C1747.11 1583.43 1682.23 1617.57 1644.01 1597.24C1606.77 1577.41 1569.04 1477.61 1667.48 1496.09C1671.23 1496.8 1674.67 1493.81 1674.39 1490.01C1673.17 1473.61 1674.8 1435.88 1713.03 1423.76C1748.79 1412.43 1768.36 1428.57 1776.43 1438.32C1778.8 1441.19 1783.2 1441.12 1785.47 1438.17C1796.19 1424.19 1825.27 1394.41 1868.11 1413.29C1903.37 1428.84 1908.87 1450.57 1908.28 1464.11C1908.09 1468.49 1912.55 1471.47 1916.53 1469.63C1927.33 1464.65 1944.71 1462.07 1961.36 1482.92C1984.37 1511.76 1951.48 1536.76 1941.61 1543.32C1940 1544.4 1939 1546.17 1938.99 1548.12C1938.89 1563.11 1936.56 1628.52 1903.77 1665.41C1900.93 1668.61 1895.69 1667.67 1894.04 1663.73L1868.8 1603.59C1867.63 1600.8 1864.51 1599.36 1861.63 1600.29L1850.67 1603.83Z" fill="white"/>
</mask>
<g mask="url(#mask16_0_1)">
<path d="M1850.67 1603.83C1847.24 1604.93 1843.65 1602.73 1843.12 1599.17C1841.49 1588.35 1837.43 1566.91 1829.21 1552.31C1829.21 1552.31 1833.51 1536.92 1790.31 1560.17C1747.11 1583.43 1682.23 1617.57 1644.01 1597.24C1606.77 1577.41 1569.04 1477.61 1667.48 1496.09C1671.23 1496.8 1674.67 1493.81 1674.39 1490.01C1673.17 1473.61 1674.8 1435.88 1713.03 1423.76C1748.79 1412.43 1768.36 1428.57 1776.43 1438.32C1778.8 1441.19 1783.2 1441.12 1785.47 1438.17C1796.19 1424.19 1825.27 1394.41 1868.11 1413.29C1903.37 1428.84 1908.87 1450.57 1908.28 1464.11C1908.09 1468.49 1912.55 1471.47 1916.53 1469.63C1927.33 1464.65 1944.71 1462.07 1961.36 1482.92C1984.37 1511.76 1951.48 1536.76 1941.61 1543.32C1940 1544.4 1939 1546.17 1938.99 1548.12C1938.89 1563.11 1936.56 1628.52 1903.77 1665.41C1900.93 1668.61 1895.69 1667.67 1894.04 1663.73L1868.8 1603.59C1867.63 1600.8 1864.51 1599.36 1861.63 1600.29L1850.67 1603.83Z" fill="url(#paint16_linear_0_1)"/>
</g>
<mask id="mask17_0_1" style="mask-type:luminance" maskUnits="userSpaceOnUse" x="1850" y="1569" width="48" height="79">
<path d="M1850.13 1616.04C1850.13 1616.04 1865.55 1553.25 1888.96 1573.64C1912.39 1594.03 1882.87 1638.88 1856.04 1647.44L1850.13 1616.04Z" fill="white"/>
</mask>
<g mask="url(#mask17_0_1)">
<path d="M1850.13 1616.04C1850.13 1616.04 1865.55 1553.25 1888.96 1573.64C1912.39 1594.03 1882.87 1638.88 1856.04 1647.44L1850.13 1616.04Z" fill="url(#paint17_linear_0_1)"/>
</g>
<mask id="mask18_0_1" style="mask-type:luminance" maskUnits="userSpaceOnUse" x="940" y="1970" width="327" height="432">
<path d="M1266.79 2389.84L1152.48 2008.61C1147.82 1993.07 1134 1982.03 1117.8 1980.92L963.465 1970.36C947.777 1969.29 936.109 1984.61 941.317 1999.45L1069.11 2363.52C1073.23 2375.24 1083.75 2383.53 1096.12 2384.79L1248.1 2401.65L1266.79 2389.84Z" fill="white"/>
</mask>
<g mask="url(#mask18_0_1)">
<path d="M1266.79 2389.84L1152.48 2008.61C1147.82 1993.07 1134 1982.03 1117.8 1980.92L963.465 1970.36C947.777 1969.29 936.109 1984.61 941.317 1999.45L1069.11 2363.52C1073.23 2375.24 1083.75 2383.53 1096.12 2384.79L1248.1 2401.65L1266.79 2389.84Z" fill="url(#paint18_linear_0_1)"/>
</g>
<path d="M1055.97 2137.83C1064.5 2155.05 1079.24 2165.15 1088.89 2160.36C1098.53 2155.59 1099.44 2137.75 1090.9 2120.52C1082.37 2103.29 1067.63 2093.2 1057.98 2097.97C1048.34 2102.76 1047.43 2120.6 1055.97 2137.83Z" fill="#91B3FA"/>
<mask id="mask19_0_1" style="mask-type:luminance" maskUnits="userSpaceOnUse" x="1233" y="2356" width="354" height="46">
<path d="M1248.1 2401.65C1248.35 2401.65 1248.6 2401.65 1248.85 2401.64L1572.69 2385.27C1580.69 2384.87 1586.85 2378.05 1586.45 2370.04C1586.04 2362.04 1579.2 2355.75 1571.23 2356.28L1247.38 2372.65C1239.38 2373.05 1233.22 2379.87 1233.62 2387.88C1234.01 2395.63 1240.42 2401.65 1248.1 2401.65Z" fill="white"/>
</mask>
<g mask="url(#mask19_0_1)">
<path d="M1248.1 2401.65C1248.35 2401.65 1248.6 2401.65 1248.85 2401.64L1572.69 2385.27C1580.69 2384.87 1586.85 2378.05 1586.45 2370.04C1586.04 2362.04 1579.2 2355.75 1571.23 2356.28L1247.38 2372.65C1239.38 2373.05 1233.22 2379.87 1233.62 2387.88C1234.01 2395.63 1240.42 2401.65 1248.1 2401.65Z" fill="url(#paint19_linear_0_1)"/>
</g>
<mask id="mask20_0_1" style="mask-type:luminance" maskUnits="userSpaceOnUse" x="1637" y="1910" width="32" height="164">
<path d="M1639.77 2073.84C1638.53 2073.84 1637.53 2072.84 1637.53 2071.6C1637.31 2003.24 1663.61 1912.77 1663.88 1911.87C1664.23 1910.68 1665.47 1910 1666.65 1910.35C1667.85 1910.69 1668.53 1911.93 1668.19 1913.12C1667.92 1914.03 1641.8 2003.89 1642.01 2071.59C1642.03 2072.83 1641.01 2073.84 1639.77 2073.84Z" fill="white"/>
</mask>
<g mask="url(#mask20_0_1)">
<path d="M1639.77 2073.84C1638.53 2073.84 1637.53 2072.84 1637.53 2071.6C1637.31 2003.24 1663.61 1912.77 1663.88 1911.87C1664.23 1910.68 1665.47 1910 1666.65 1910.35C1667.85 1910.69 1668.53 1911.93 1668.19 1913.12C1667.92 1914.03 1641.8 2003.89 1642.01 2071.59C1642.03 2072.83 1641.01 2073.84 1639.77 2073.84Z" fill="url(#paint20_linear_0_1)"/>
</g>
<mask id="mask21_0_1" style="mask-type:luminance" maskUnits="userSpaceOnUse" x="1784" y="1950" width="101" height="158">
<path d="M1787.05 2107.09C1786.56 2107.09 1786.07 2106.93 1785.65 2106.61C1784.69 2105.84 1784.52 2104.43 1785.29 2103.45C1786 2102.56 1856.39 2013.08 1880.48 1952.03C1880.93 1950.87 1882.23 1950.28 1883.39 1950.76C1884.55 1951.21 1885.11 1952.52 1884.65 1953.68C1860.32 2015.33 1789.52 2105.33 1788.81 2106.24C1788.37 2106.8 1787.71 2107.09 1787.05 2107.09Z" fill="white"/>
</mask>
<g mask="url(#mask21_0_1)">
<path d="M1787.05 2107.09C1786.56 2107.09 1786.07 2106.93 1785.65 2106.61C1784.69 2105.84 1784.52 2104.43 1785.29 2103.45C1786 2102.56 1856.39 2013.08 1880.48 1952.03C1880.93 1950.87 1882.23 1950.28 1883.39 1950.76C1884.55 1951.21 1885.11 1952.52 1884.65 1953.68C1860.32 2015.33 1789.52 2105.33 1788.81 2106.24C1788.37 2106.8 1787.71 2107.09 1787.05 2107.09Z" fill="url(#paint21_linear_0_1)"/>
</g>
<mask id="mask22_0_1" style="mask-type:luminance" maskUnits="userSpaceOnUse" x="1873" y="2073" width="182" height="172">
<path d="M1886.83 2244.68L1874.03 2226.57C1873.31 2225.56 1873.55 2224.16 1874.56 2223.44C1875.57 2222.72 1876.97 2222.96 1877.69 2223.97L1888.4 2239.12C1988.28 2195.33 2050.11 2075.84 2050.73 2074.63C2051.29 2073.53 2052.64 2073.08 2053.75 2073.65C2054.85 2074.21 2055.29 2075.57 2054.72 2076.67C2054.09 2077.91 1990.87 2200.13 1888.49 2243.96L1886.83 2244.68Z" fill="white"/>
</mask>
<g mask="url(#mask22_0_1)">
<path d="M1886.83 2244.68L1874.03 2226.57C1873.31 2225.56 1873.55 2224.16 1874.56 2223.44C1875.57 2222.72 1876.97 2222.96 1877.69 2223.97L1888.4 2239.12C1988.28 2195.33 2050.11 2075.84 2050.73 2074.63C2051.29 2073.53 2052.64 2073.08 2053.75 2073.65C2054.85 2074.21 2055.29 2075.57 2054.72 2076.67C2054.09 2077.91 1990.87 2200.13 1888.49 2243.96L1886.83 2244.68Z" fill="url(#paint22_linear_0_1)"/>
</g>
<line x1="2034.5" y1="1238.98" x2="2038.5" y2="1109.98" stroke="#1B1974"/>
</g>
<defs>
<linearGradient id="paint0_linear_0_1" x1="4594.47" y1="4373.89" x2="1912.89" y2="2027.52" gradientUnits="userSpaceOnUse">
<stop/>
<stop offset="1"/>
</linearGradient>
<linearGradient id="paint1_linear_0_1" x1="916.912" y1="872.973" x2="3787.93" y2="5328" gradientUnits="userSpaceOnUse">
<stop stop-color="#4F52FF"/>
<stop offset="1" stop-color="#4042E2"/>
</linearGradient>
<linearGradient id="paint2_linear_0_1" x1="916.912" y1="872.973" x2="3787.93" y2="5328" gradientUnits="userSpaceOnUse">
<stop stop-color="#5D67FE"/>
<stop offset="1" stop-color="#515AE7"/>
</linearGradient>
<linearGradient id="paint3_linear_0_1" x1="2364.31" y1="4133.6" x2="1886.29" y2="2699.53" gradientUnits="userSpaceOnUse">
<stop stop-color="#09005D"/>
<stop offset="1" stop-color="#1A0F91"/>
</linearGradient>
<linearGradient id="paint4_linear_0_1" x1="1252.09" y1="4047.89" x2="3380.55" y2="4565.63" gradientUnits="userSpaceOnUse">
<stop stop-color="#09005D"/>
<stop offset="1" stop-color="#1A0F91"/>
</linearGradient>
<linearGradient id="paint5_linear_0_1" x1="4891.67" y1="989.507" x2="4272.24" y2="1595.46" gradientUnits="userSpaceOnUse">
<stop stop-color="#FF928E"/>
<stop offset="1" stop-color="#FE7062"/>
</linearGradient>
<linearGradient id="paint6_linear_0_1" x1="4891.67" y1="989.507" x2="4272.24" y2="1595.46" gradientUnits="userSpaceOnUse">
<stop stop-color="#FFD5D3"/>
<stop offset="1" stop-color="#FFC7C2"/>
</linearGradient>
<linearGradient id="paint7_linear_0_1" x1="4891.67" y1="989.507" x2="4272.24" y2="1595.46" gradientUnits="userSpaceOnUse">
<stop stop-color="#FFD5D3"/>
<stop offset="1" stop-color="#FFC7C2"/>
</linearGradient>
<linearGradient id="paint8_linear_0_1" x1="4891.67" y1="989.507" x2="4272.24" y2="1595.46" gradientUnits="userSpaceOnUse">
<stop stop-color="#FFD5D3"/>
<stop offset="1" stop-color="#FFC7C2"/>
</linearGradient>
<linearGradient id="paint9_linear_0_1" x1="1046.3" y1="2506.2" x2="879.025" y2="2680.91" gradientUnits="userSpaceOnUse">
<stop stop-color="#09005D"/>
<stop offset="1" stop-color="#1A0F91"/>
</linearGradient>
<linearGradient id="paint10_linear_0_1" x1="824.399" y1="2944.72" x2="507.986" y2="3176.95" gradientUnits="userSpaceOnUse">
<stop stop-color="#09005D"/>
<stop offset="1" stop-color="#1A0F91"/>
</linearGradient>
<linearGradient id="paint11_linear_0_1" x1="1335.6" y1="2086.45" x2="1550.41" y2="2341.91" gradientUnits="userSpaceOnUse">
<stop stop-color="#FEBBBA"/>
<stop offset="1" stop-color="#FF928E"/>
</linearGradient>
<linearGradient id="paint12_linear_0_1" x1="2400.72" y1="1457.71" x2="1754.33" y2="2131.03" gradientUnits="userSpaceOnUse">
<stop stop-color="#FF928E"/>
<stop offset="1" stop-color="#FE7062"/>
</linearGradient>
<linearGradient id="paint13_linear_0_1" x1="1586.08" y1="2318.88" x2="1156.71" y2="1731.47" gradientUnits="userSpaceOnUse">
<stop stop-color="#FEBBBA"/>
<stop offset="1" stop-color="#FF928E"/>
</linearGradient>
<linearGradient id="paint14_linear_0_1" x1="1848.73" y1="1832.11" x2="1832.92" y2="1689.77" gradientUnits="userSpaceOnUse">
<stop stop-color="#FEBBBA"/>
<stop offset="1" stop-color="#FF928E"/>
</linearGradient>
<linearGradient id="paint15_linear_0_1" x1="1764.39" y1="1707.93" x2="1834.1" y2="1478.01" gradientUnits="userSpaceOnUse">
<stop stop-color="#FEBBBA"/>
<stop offset="1" stop-color="#FF928E"/>
</linearGradient>
<linearGradient id="paint16_linear_0_1" x1="1827.29" y1="1285.76" x2="1762.48" y2="1655.43" gradientUnits="userSpaceOnUse">
<stop stop-color="#09005D"/>
<stop offset="1" stop-color="#1A0F91"/>
</linearGradient>
<linearGradient id="paint17_linear_0_1" x1="1836.59" y1="1729.83" x2="1906.3" y2="1499.9" gradientUnits="userSpaceOnUse">
<stop stop-color="#FEBBBA"/>
<stop offset="1" stop-color="#FF928E"/>
</linearGradient>
<linearGradient id="paint18_linear_0_1" x1="1266.79" y1="2185.99" x2="940.06" y2="2185.99" gradientUnits="userSpaceOnUse">
<stop stop-color="#09005D"/>
<stop offset="1" stop-color="#1A0F91"/>
</linearGradient>
<linearGradient id="paint19_linear_0_1" x1="1227.14" y1="2328.81" x2="1488.39" y2="2400.42" gradientUnits="userSpaceOnUse">
<stop stop-color="#09005D"/>
<stop offset="1" stop-color="#1A0F91"/>
</linearGradient>
<linearGradient id="paint20_linear_0_1" x1="1710.76" y1="1095.77" x2="1609.77" y2="2651.07" gradientUnits="userSpaceOnUse">
<stop stop-color="#E1473D"/>
<stop offset="1" stop-color="#E9605A"/>
</linearGradient>
<linearGradient id="paint21_linear_0_1" x1="1894.63" y1="1107.72" x2="1793.63" y2="2663.01" gradientUnits="userSpaceOnUse">
<stop stop-color="#E1473D"/>
<stop offset="1" stop-color="#E9605A"/>
</linearGradient>
<linearGradient id="paint22_linear_0_1" x1="2031.43" y1="1116.6" x2="1930.43" y2="2671.89" gradientUnits="userSpaceOnUse">
<stop stop-color="#E1473D"/>
<stop offset="1" stop-color="#E9605A"/>
</linearGradient>
<clipPath id="clip0_0_1">
<rect width="4946.67" height="4946.67" fill="white"/>
</clipPath>
</defs>
</svg>
